<?xml version="1.0" encoding="UTF-8"?>
<svg width="25px" height="25px" viewBox="0 0 25 25" version="1.1" xmlns="http://www.w3.org/2000/svg" xmlns:xlink="http://www.w3.org/1999/xlink">
    <!-- Generator: Sketch 47.1 (45422) - http://www.bohemiancoding.com/sketch -->
    <title>facebook</title>
    <desc>Created with Sketch.</desc>
    <defs></defs>
    <g id="Page-1" stroke="none" stroke-width="1" fill="none" fill-rule="evenodd">
        <g id="Artboard-2" transform="translate(-425.000000, -262.000000)" fill-rule="nonzero" fill="#FFFFFF">
            <g id="facebook" transform="translate(425.000000, 262.000000)">
                <path d="M12.7,24.4 C9.5,24.4 6.5,23.2 4.2,20.9 C1.9,18.6 0.7,15.6 0.7,12.4 C0.7,9.2 1.9,6.2 4.2,3.9 C6.5,1.6 9.5,0.4 12.7,0.4 C15.9,0.4 18.9,1.6 21.2,3.9 C23.5,6.2 24.7,9.2 24.7,12.4 C24.7,15.6 23.5,18.6 21.2,20.9 C18.9,23.2 15.9,24.4 12.7,24.4 Z M12.7,1.2 C9.7,1.2 6.9,2.4 4.7,4.5 C2.6,6.6 1.4,9.5 1.4,12.5 C1.4,15.5 2.6,18.3 4.7,20.5 C6.8,22.6 9.7,23.8 12.7,23.8 C15.7,23.8 18.5,22.6 20.7,20.5 C22.8,18.4 24,15.5 24,12.5 C24,9.5 22.8,6.7 20.7,4.5 C18.5,2.4 15.7,1.2 12.7,1.2 Z" id="Shape"></path>
                <path d="M15.6,10.1 L13.5,10.1 L13.5,8.7 C13.5,8.2 13.8,8.1 14.1,8.1 C14.3,8.1 15.6,8.1 15.6,8.1 L15.6,5.8 L13.5,5.8 C11.2,5.8 10.7,7.5 10.7,8.6 L10.7,10.1 L9.4,10.1 L9.4,12.5 L10.7,12.5 C10.7,15.6 10.7,19.2 10.7,19.2 L13.5,19.2 C13.5,19.2 13.5,15.5 13.5,12.5 L15.4,12.5 L15.6,10.1 Z" id="Shape"></path>
            </g>
        </g>
    </g>
</svg>