<?xml version="1.0" encoding="UTF-8"?>
<svg width="356px" height="138px" viewBox="0 0 356 138" version="1.1" xmlns="http://www.w3.org/2000/svg" xmlns:xlink="http://www.w3.org/1999/xlink">
    <!-- Generator: Sketch 47.1 (45422) - http://www.bohemiancoding.com/sketch -->
    <title>item2</title>
    <desc>Created with Sketch.</desc>
    <defs></defs>
    <g id="Page-1" stroke="none" stroke-width="1" fill="none" fill-rule="evenodd">
        <g id="Tablet" transform="translate(-239.000000, -482.000000)">
            <g id="item2" transform="translate(240.000000, 483.000000)">
                <path d="M38.4536133,25.0678711 L40.9072266,25.0678711 L40.9072266,43 L38.4536133,43 L38.4536133,25.0678711 Z M44.5571289,29.9262695 L46.6445312,29.9262695 L46.6445312,31.7817383 C47.2630239,31.0167605 47.9181281,30.4674496 48.6098633,30.1337891 C49.3015985,29.8001285 50.0706338,29.6333008 50.9169922,29.6333008 C52.7724702,29.6333008 54.0257129,30.280267 54.6767578,31.5742188 C55.0348325,32.2822301 55.2138672,33.2954036 55.2138672,34.6137695 L55.2138672,43 L52.9799805,43 L52.9799805,34.7602539 C52.9799805,33.9627239 52.8619803,33.3198267 52.6259766,32.831543 C52.2353496,32.0177368 51.5273489,31.6108398 50.5019531,31.6108398 C49.9811172,31.6108398 49.5538754,31.6637365 49.2202148,31.7695312 C48.6179983,31.9485686 48.0890322,32.3066379 47.6333008,32.84375 C47.267088,33.2750673 47.0290533,33.7206194 46.9191895,34.1804199 C46.8093256,34.6402204 46.7543945,35.297359 46.7543945,36.1518555 L46.7543945,43 L44.5571289,43 L44.5571289,29.9262695 Z M59.7670898,38.8984375 C59.8321943,39.630863 60.015298,40.1923809 60.3164062,40.5830078 C60.8697944,41.2910192 61.8300713,41.6450195 63.1972656,41.6450195 C64.0110718,41.6450195 64.7272104,41.4680193 65.3457031,41.1140137 C65.9641958,40.760008 66.2734375,40.2127316 66.2734375,39.472168 C66.2734375,38.9106417 66.0252303,38.4833999 65.5288086,38.1904297 C65.2114242,38.0113923 64.5848029,37.8038749 63.6489258,37.5678711 L61.9033203,37.128418 C60.7884059,36.8517239 59.966474,36.5424822 59.4375,36.2006836 C58.4934849,35.6066051 58.0214844,34.7846732 58.0214844,33.7348633 C58.0214844,32.4978779 58.4670366,31.4969114 59.3581543,30.7319336 C60.249272,29.9669558 61.4475836,29.5844727 62.953125,29.5844727 C64.9225359,29.5844727 66.3426063,30.1622664 67.2133789,31.3178711 C67.758629,32.0502966 68.0231121,32.8396768 68.0068359,33.6860352 L65.9316406,33.6860352 C65.8909503,33.1896134 65.7159846,32.7379578 65.4067383,32.3310547 C64.9021785,31.7532523 64.02735,31.4643555 62.7822266,31.4643555 C61.9521443,31.4643555 61.3234885,31.6230453 60.8962402,31.9404297 C60.468992,32.2578141 60.2553711,32.676918 60.2553711,33.1977539 C60.2553711,33.7674182 60.53613,34.2231428 61.0976562,34.5649414 C61.4231787,34.7683929 61.9033171,34.9474276 62.5380859,35.1020508 L63.9907227,35.4560547 C65.5695066,35.8385436 66.6274387,36.2088198 67.1645508,36.5668945 C68.0190472,37.1284208 68.4462891,38.0113872 68.4462891,39.2158203 C68.4462891,40.3795631 68.0048058,41.3845986 67.1218262,42.230957 C66.2388465,43.0773154 64.894052,43.5004883 63.0874023,43.5004883 C61.1424056,43.5004883 59.7650594,43.0590051 58.9553223,42.1760254 C58.1455851,41.2930457 57.7122399,40.2005273 57.6552734,38.8984375 L59.7670898,38.8984375 Z M71.4003906,26.2763672 L73.6220703,26.2763672 L73.6220703,29.9262695 L75.7094727,29.9262695 L75.7094727,31.7207031 L73.6220703,31.7207031 L73.6220703,40.253418 C73.6220703,40.7091494 73.7766912,41.0143221 74.0859375,41.1689453 C74.2568368,41.258464 74.5416647,41.3032227 74.9404297,41.3032227 C75.0462245,41.3032227 75.1601556,41.3011882 75.2822266,41.2971191 C75.4042975,41.2930501 75.5467114,41.2828777 75.7094727,41.2666016 L75.7094727,43 C75.4571927,43.0732426 75.1947442,43.1261392 74.9221191,43.1586914 C74.6494941,43.1912437 74.3544938,43.2075195 74.0371094,43.2075195 C73.0117136,43.2075195 72.3159198,42.945071 71.949707,42.420166 C71.5834943,41.895261 71.4003906,41.2137086 71.4003906,40.3754883 L71.4003906,31.7207031 L69.6303711,31.7207031 L69.6303711,29.9262695 L71.4003906,29.9262695 L71.4003906,26.2763672 Z M78.4316406,40.3388672 L80.9829102,40.3388672 L80.9829102,43 L78.4316406,43 L78.4316406,40.3388672 Z M38.1362305,55.0678711 L46.2050781,55.0678711 C47.8001382,55.0678711 49.0859326,55.5174922 50.0625,56.416748 C51.0390674,57.3160038 51.5273438,58.5794189 51.5273438,60.2070312 C51.5273438,61.6067778 51.091964,62.8254343 50.2211914,63.8630371 C49.3504188,64.90064 48.0117278,65.4194336 46.2050781,65.4194336 L40.5654297,65.4194336 L40.5654297,73 L38.1362305,73 L38.1362305,55.0678711 Z M47.6088867,57.5336914 C47.0717747,57.2814115 46.3352911,57.1552734 45.3994141,57.1552734 L40.5654297,57.1552734 L40.5654297,63.3686523 L45.3994141,63.3686523 C46.4899143,63.3686523 47.3749152,63.1367211 48.0544434,62.6728516 C48.7339715,62.2089821 49.0737305,61.3911191 49.0737305,60.2192383 C49.0737305,58.9008723 48.5854541,58.005699 47.6088867,57.5336914 Z M54.347168,59.9262695 L56.4345703,59.9262695 L56.4345703,62.1845703 C56.6054696,61.745115 57.0245735,61.2100455 57.6918945,60.5793457 C58.3592156,59.9486459 59.1282509,59.6333008 59.9990234,59.6333008 C60.0397137,59.6333008 60.1088862,59.6373698 60.206543,59.6455078 C60.3041997,59.6536459 60.4710275,59.6699218 60.7070312,59.6943359 L60.7070312,62.0136719 C60.5768223,61.9892577 60.4567877,61.9729818 60.3469238,61.9648438 C60.23706,61.9567057 60.1170254,61.9526367 59.9868164,61.9526367 C58.88004,61.9526367 58.0296254,62.3086716 57.4355469,63.020752 C56.8414684,63.7328323 56.5444336,64.5527297 56.5444336,65.4804688 L56.5444336,73 L54.347168,73 L54.347168,59.9262695 Z M70.7961426,69.9299316 C71.3373237,68.8272243 71.6079102,67.6004299 71.6079102,66.2495117 C71.6079102,65.0288025 71.4125996,64.0359739 71.0219727,63.2709961 C70.40348,62.066563 69.3374099,61.4643555 67.8237305,61.4643555 C66.4809503,61.4643555 65.5043976,61.9770457 64.894043,63.0024414 C64.2836884,64.0278372 63.9785156,65.264804 63.9785156,66.7133789 C63.9785156,68.1049874 64.2836884,69.2646438 64.894043,70.1923828 C65.5043976,71.1201218 66.4728124,71.5839844 67.7993164,71.5839844 C69.2560294,71.5839844 70.2549615,71.032639 70.7961426,69.9299316 Z M72.1572266,61.2324219 C73.3209694,62.3554744 73.902832,64.0074761 73.902832,66.1884766 C73.902832,68.2962345 73.3901418,70.0377535 72.3647461,71.4130859 C71.3393503,72.7884183 69.7483832,73.4760742 67.5917969,73.4760742 C65.7932853,73.4760742 64.3650769,72.8677632 63.3071289,71.651123 C62.2491809,70.4344828 61.7202148,68.8007915 61.7202148,66.75 C61.7202148,64.5527234 62.2776637,62.8030664 63.3925781,61.5009766 C64.5074926,60.1988867 66.0048734,59.5478516 67.8847656,59.5478516 C69.5693444,59.5478516 70.9934838,60.1093694 72.1572266,61.2324219 Z M77.5405273,55.9345703 C78.0532252,55.1858687 79.0419849,54.8115234 80.5068359,54.8115234 C80.645183,54.8115234 80.7875969,54.8155924 80.934082,54.8237305 C81.0805671,54.8318685 81.2473949,54.8440754 81.4345703,54.8603516 L81.4345703,56.8623047 C81.2067046,56.8460286 81.0419113,56.8358561 80.9401855,56.8317871 C80.8384598,56.8277181 80.742839,56.8256836 80.6533203,56.8256836 C79.9859993,56.8256836 79.5872402,56.9986148 79.4570312,57.3444824 C79.3268223,57.69035 79.2617188,58.571282 79.2617188,59.9873047 L81.4345703,59.9873047 L81.4345703,61.7207031 L79.2373047,61.7207031 L79.2373047,73 L77.0644531,73 L77.0644531,61.7207031 L75.2456055,61.7207031 L75.2456055,59.9873047 L77.0644531,59.9873047 L77.0644531,57.9365234 C77.0970054,57.0250605 77.2556952,56.3577495 77.5405273,55.9345703 Z M91.6030273,60.286377 C92.4737999,60.7217632 93.137042,61.2853156 93.5927734,61.9770508 C94.0322288,62.6362338 94.3251946,63.405269 94.4716797,64.2841797 C94.6018887,64.8863962 94.6669922,65.8466731 94.6669922,67.1650391 L85.0844727,67.1650391 C85.125163,68.4915431 85.4384736,69.5555787 86.0244141,70.3571777 C86.6103545,71.1587768 87.5177347,71.5595703 88.746582,71.5595703 C89.8940487,71.5595703 90.8095669,71.1811561 91.4931641,70.4243164 C91.883791,69.9848611 92.160481,69.4762399 92.3232422,68.8984375 L94.4838867,68.8984375 C94.4269203,69.3785831 94.2377132,69.9136526 93.9162598,70.5036621 C93.5948063,71.0936716 93.2347025,71.5758445 92.8359375,71.9501953 C92.1686165,72.6012402 91.3426156,73.040689 90.3579102,73.2685547 C89.8289362,73.3987637 89.2307976,73.4638672 88.5634766,73.4638672 C86.9358643,73.4638672 85.5564835,72.8718321 84.425293,71.6877441 C83.2941024,70.5036562 82.7285156,68.845551 82.7285156,66.7133789 C82.7285156,64.613759 83.2981714,62.9088607 84.4375,61.5986328 C85.5768286,60.2884049 87.0660715,59.6333008 88.9052734,59.6333008 C89.8330125,59.6333008 90.7322548,59.8509907 91.6030273,60.286377 Z M92.4086914,65.4194336 C92.3191727,64.4672804 92.1116553,63.7063831 91.7861328,63.1367188 C91.1839163,62.0787708 90.1788807,61.5498047 88.7709961,61.5498047 C87.7618765,61.5498047 86.9155308,61.9139775 86.2319336,62.642334 C85.5483364,63.3706905 85.1861981,64.2963811 85.1455078,65.4194336 L92.4086914,65.4194336 Z M98.6708984,68.8984375 C98.7360029,69.630863 98.9191066,70.1923809 99.2202148,70.5830078 C99.773603,71.2910192 100.73388,71.6450195 102.101074,71.6450195 C102.91488,71.6450195 103.631019,71.4680193 104.249512,71.1140137 C104.868004,70.760008 105.177246,70.2127316 105.177246,69.472168 C105.177246,68.9106417 104.929039,68.4833999 104.432617,68.1904297 C104.115233,68.0113923 103.488611,67.8038749 102.552734,67.5678711 L100.807129,67.128418 C99.6922145,66.8517239 98.8702826,66.5424822 98.3413086,66.2006836 C97.3972935,65.6066051 96.925293,64.7846732 96.925293,63.7348633 C96.925293,62.4978779 97.3708452,61.4969114 98.2619629,60.7319336 C99.1530806,59.9669558 100.351392,59.5844727 101.856934,59.5844727 C103.826344,59.5844727 105.246415,60.1622664 106.117188,61.3178711 C106.662438,62.0502966 106.926921,62.8396768 106.910645,63.6860352 L104.835449,63.6860352 C104.794759,63.1896134 104.619793,62.7379578 104.310547,62.3310547 C103.805987,61.7532523 102.931159,61.4643555 101.686035,61.4643555 C100.855953,61.4643555 100.227297,61.6230453 99.8000488,61.9404297 C99.3728006,62.2578141 99.1591797,62.676918 99.1591797,63.1977539 C99.1591797,63.7674182 99.4399386,64.2231428 100.001465,64.5649414 C100.326987,64.7683929 100.807126,64.9474276 101.441895,65.1020508 L102.894531,65.4560547 C104.473315,65.8385436 105.531247,66.2088198 106.068359,66.5668945 C106.922856,67.1284208 107.350098,68.0113872 107.350098,69.2158203 C107.350098,70.3795631 106.908614,71.3845986 106.025635,72.230957 C105.142655,73.0773154 103.797861,73.5004883 101.991211,73.5004883 C100.046214,73.5004883 98.668868,73.0590051 97.8591309,72.1760254 C97.0493937,71.2930457 96.6160485,70.2005273 96.559082,68.8984375 L98.6708984,68.8984375 Z M109.864746,59.9873047 L112.098633,59.9873047 L112.098633,73 L109.864746,73 L109.864746,59.9873047 Z M109.864746,55.0678711 L112.098633,55.0678711 L112.098633,57.5581055 L109.864746,57.5581055 L109.864746,55.0678711 Z M123.60376,69.9299316 C124.144941,68.8272243 124.415527,67.6004299 124.415527,66.2495117 C124.415527,65.0288025 124.220217,64.0359739 123.82959,63.2709961 C123.211097,62.066563 122.145027,61.4643555 120.631348,61.4643555 C119.288568,61.4643555 118.312015,61.9770457 117.70166,63.0024414 C117.091306,64.0278372 116.786133,65.264804 116.786133,66.7133789 C116.786133,68.1049874 117.091306,69.2646438 117.70166,70.1923828 C118.312015,71.1201218 119.28043,71.5839844 120.606934,71.5839844 C122.063647,71.5839844 123.062579,71.032639 123.60376,69.9299316 Z M124.964844,61.2324219 C126.128587,62.3554744 126.710449,64.0074761 126.710449,66.1884766 C126.710449,68.2962345 126.197759,70.0377535 125.172363,71.4130859 C124.146968,72.7884183 122.556,73.4760742 120.399414,73.4760742 C118.600902,73.4760742 117.172694,72.8677632 116.114746,71.651123 C115.056798,70.4344828 114.527832,68.8007915 114.527832,66.75 C114.527832,64.5527234 115.085281,62.8030664 116.200195,61.5009766 C117.31511,60.1988867 118.812491,59.5478516 120.692383,59.5478516 C122.376962,59.5478516 123.801101,60.1093694 124.964844,61.2324219 Z M129.322754,59.9262695 L131.410156,59.9262695 L131.410156,61.7817383 C132.028649,61.0167605 132.683753,60.4674496 133.375488,60.1337891 C134.067224,59.8001285 134.836259,59.6333008 135.682617,59.6333008 C137.538095,59.6333008 138.791338,60.280267 139.442383,61.5742188 C139.800458,62.2822301 139.979492,63.2954036 139.979492,64.6137695 L139.979492,73 L137.745605,73 L137.745605,64.7602539 C137.745605,63.9627239 137.627605,63.3198267 137.391602,62.831543 C137.000975,62.0177368 136.292974,61.6108398 135.267578,61.6108398 C134.746742,61.6108398 134.3195,61.6637365 133.98584,61.7695312 C133.383623,61.9485686 132.854657,62.3066379 132.398926,62.84375 C132.032713,63.2750673 131.794678,63.7206194 131.684814,64.1804199 C131.574951,64.6402204 131.52002,65.297359 131.52002,66.1518555 L131.52002,73 L129.322754,73 L129.322754,59.9262695 Z M145.606934,71.0224609 C146.070803,71.3886737 146.620114,71.5717773 147.254883,71.5717773 C148.027999,71.5717773 148.776689,71.3927427 149.500977,71.034668 C150.721686,70.4405895 151.332031,69.4681057 151.332031,68.1171875 L151.332031,66.347168 C151.063475,66.5180673 150.717613,66.6604812 150.294434,66.7744141 C149.871254,66.8883469 149.456219,66.9697263 149.049316,67.0185547 L147.71875,67.1894531 C146.92122,67.2952479 146.323081,67.4620757 145.924316,67.6899414 C145.248857,68.0724303 144.911133,68.6827758 144.911133,69.5209961 C144.911133,70.1557649 145.143064,70.6562482 145.606934,71.0224609 Z M150.233398,65.0776367 C150.737958,65.0125322 151.075683,64.8009458 151.246582,64.4428711 C151.344239,64.2475576 151.393066,63.9667987 151.393066,63.6005859 C151.393066,62.8518843 151.126549,62.3086768 150.593506,61.9709473 C150.060463,61.6332177 149.297531,61.4643555 148.304688,61.4643555 C147.157221,61.4643555 146.343427,61.7735972 145.863281,62.3920898 C145.594725,62.7338884 145.41976,63.2425096 145.338379,63.9179688 L143.287598,63.9179688 C143.328288,62.3066326 143.851151,61.1856314 144.856201,60.5549316 C145.861252,59.9242319 147.027012,59.6088867 148.353516,59.6088867 C149.891609,59.6088867 151.140783,59.9018525 152.101074,60.487793 C153.053227,61.0737334 153.529297,61.9851826 153.529297,63.222168 L153.529297,70.7539062 C153.529297,70.981772 153.57609,71.1648756 153.669678,71.3032227 C153.763265,71.4415697 153.96061,71.5107422 154.261719,71.5107422 C154.359375,71.5107422 154.469238,71.5046387 154.591309,71.4924316 C154.71338,71.4802245 154.843587,71.4619142 154.981934,71.4375 L154.981934,73.0610352 C154.640135,73.1586919 154.379721,73.2197264 154.200684,73.2441406 C154.021646,73.2685548 153.777508,73.2807617 153.468262,73.2807617 C152.711422,73.2807617 152.162111,73.0122097 151.820312,72.4750977 C151.641275,72.1902655 151.515137,71.7874375 151.441895,71.2666016 C150.994301,71.852542 150.351404,72.3611632 149.513184,72.7924805 C148.674963,73.2237977 147.751307,73.4394531 146.742188,73.4394531 C145.529616,73.4394531 144.538822,73.0712114 143.769775,72.3347168 C143.000729,71.5982222 142.616211,70.6766006 142.616211,69.5698242 C142.616211,68.3572531 142.994625,67.417321 143.751465,66.75 C144.508305,66.082679 145.501133,65.671713 146.72998,65.5170898 L150.233398,65.0776367 Z M157.191406,55.0678711 L159.388672,55.0678711 L159.388672,73 L157.191406,73 L157.191406,55.0678711 Z M170.82666,60.286377 C171.697433,60.7217632 172.360675,61.2853156 172.816406,61.9770508 C173.255862,62.6362338 173.548827,63.405269 173.695312,64.2841797 C173.825521,64.8863962 173.890625,65.8466731 173.890625,67.1650391 L164.308105,67.1650391 C164.348796,68.4915431 164.662106,69.5555787 165.248047,70.3571777 C165.833987,71.1587768 166.741368,71.5595703 167.970215,71.5595703 C169.117682,71.5595703 170.0332,71.1811561 170.716797,70.4243164 C171.107424,69.9848611 171.384114,69.4762399 171.546875,68.8984375 L173.70752,68.8984375 C173.650553,69.3785831 173.461346,69.9136526 173.139893,70.5036621 C172.818439,71.0936716 172.458335,71.5758445 172.05957,71.9501953 C171.392249,72.6012402 170.566248,73.040689 169.581543,73.2685547 C169.052569,73.3987637 168.45443,73.4638672 167.787109,73.4638672 C166.159497,73.4638672 164.780116,72.8718321 163.648926,71.6877441 C162.517735,70.5036562 161.952148,68.845551 161.952148,66.7133789 C161.952148,64.613759 162.521804,62.9088607 163.661133,61.5986328 C164.800461,60.2884049 166.289704,59.6333008 168.128906,59.6333008 C169.056645,59.6333008 169.955888,59.8509907 170.82666,60.286377 Z M171.632324,65.4194336 C171.542806,64.4672804 171.335288,63.7063831 171.009766,63.1367188 C170.407549,62.0787708 169.402514,61.5498047 167.994629,61.5498047 C166.985509,61.5498047 166.139164,61.9139775 165.455566,62.642334 C164.771969,63.3706905 164.409831,64.2963811 164.369141,65.4194336 L171.632324,65.4194336 Z M177.894531,68.8984375 C177.959636,69.630863 178.142739,70.1923809 178.443848,70.5830078 C178.997236,71.2910192 179.957513,71.6450195 181.324707,71.6450195 C182.138513,71.6450195 182.854652,71.4680193 183.473145,71.1140137 C184.091637,70.760008 184.400879,70.2127316 184.400879,69.472168 C184.400879,68.9106417 184.152672,68.4833999 183.65625,68.1904297 C183.338866,68.0113923 182.712244,67.8038749 181.776367,67.5678711 L180.030762,67.128418 C178.915847,66.8517239 178.093915,66.5424822 177.564941,66.2006836 C176.620926,65.6066051 176.148926,64.7846732 176.148926,63.7348633 C176.148926,62.4978779 176.594478,61.4969114 177.485596,60.7319336 C178.376713,59.9669558 179.575025,59.5844727 181.080566,59.5844727 C183.049977,59.5844727 184.470048,60.1622664 185.34082,61.3178711 C185.88607,62.0502966 186.150553,62.8396768 186.134277,63.6860352 L184.059082,63.6860352 C184.018392,63.1896134 183.843426,62.7379578 183.53418,62.3310547 C183.02962,61.7532523 182.154791,61.4643555 180.909668,61.4643555 C180.079586,61.4643555 179.45093,61.6230453 179.023682,61.9404297 C178.596433,62.2578141 178.382812,62.676918 178.382812,63.1977539 C178.382812,63.7674182 178.663571,64.2231428 179.225098,64.5649414 C179.55062,64.7683929 180.030759,64.9474276 180.665527,65.1020508 L182.118164,65.4560547 C183.696948,65.8385436 184.75488,66.2088198 185.291992,66.5668945 C186.146489,67.1284208 186.57373,68.0113872 186.57373,69.2158203 C186.57373,70.3795631 186.132247,71.3845986 185.249268,72.230957 C184.366288,73.0773154 183.021493,73.5004883 181.214844,73.5004883 C179.269847,73.5004883 177.892501,73.0590051 177.082764,72.1760254 C176.273027,71.2930457 175.839681,70.2005273 175.782715,68.8984375 L177.894531,68.8984375 Z M45.777832,89.9262695 L48.2070312,89.9262695 C47.8977849,90.7644899 47.210129,92.6769056 46.144043,95.6635742 C45.3465129,97.9096792 44.6792019,99.7407156 44.1420898,101.156738 C42.8725522,104.493344 41.9773789,106.527828 41.456543,107.260254 C40.935707,107.992679 40.0405337,108.358887 38.7709961,108.358887 C38.4617498,108.358887 38.223715,108.34668 38.0568848,108.322266 C37.8900545,108.297851 37.6845715,108.253093 37.4404297,108.187988 L37.4404297,106.186035 C37.8229186,106.29183 38.0996085,106.356933 38.2705078,106.381348 C38.4414071,106.405762 38.591959,106.417969 38.722168,106.417969 C39.129071,106.417969 39.4281403,106.350831 39.6193848,106.216553 C39.8106292,106.082275 39.9713535,105.917481 40.1015625,105.722168 C40.1422528,105.657063 40.2887357,105.323408 40.5410156,104.721191 C40.7932955,104.118975 40.9763992,103.671388 41.090332,103.378418 L36.2563477,89.9262695 L38.746582,89.9262695 L42.25,100.570801 L45.777832,89.9262695 Z M70.1918945,86.3740234 C71.445156,87.5703185 72.1409498,88.9293544 72.2792969,90.4511719 L69.9111328,90.4511719 C69.6425768,89.2955671 69.1075073,88.380049 68.3059082,87.7045898 C67.5043091,87.0291307 66.379239,86.6914062 64.9306641,86.6914062 C63.1647047,86.6914062 61.7385308,87.3119241 60.6520996,88.5529785 C59.5656684,89.7940329 59.0224609,91.6962762 59.0224609,94.2597656 C59.0224609,96.3593855 59.5127718,98.0622493 60.4934082,99.3684082 C61.4740446,100.674567 62.9368392,101.327637 64.8818359,101.327637 C66.6722095,101.327637 68.0353143,100.639981 68.9711914,99.2646484 C69.4676132,98.540361 69.8378894,97.588222 70.0820312,96.4082031 L72.4501953,96.4082031 C72.2386057,98.2962334 71.5387429,99.8790626 70.3505859,101.156738 C68.9264252,102.694832 67.0058715,103.463867 64.5888672,103.463867 C62.5055234,103.463867 60.7558665,102.833177 59.3398438,101.571777 C57.4762277,99.9034747 56.5444336,97.3278169 56.5444336,93.8447266 C56.5444336,91.1998566 57.2442964,89.0310957 58.644043,87.3383789 C60.1577224,85.499177 62.2451039,84.5795898 64.90625,84.5795898 C67.1767692,84.5795898 68.9386331,85.1777284 70.1918945,86.3740234 Z M75.6362305,85.0678711 L88.0751953,85.0678711 L88.0751953,87.2651367 L78.0654297,87.2651367 L78.0654297,92.7094727 L86.8666992,92.7094727 L86.8666992,94.8457031 L78.0654297,94.8457031 L78.0654297,103 L75.6362305,103 L75.6362305,85.0678711 Z M103.724609,85.0678711 L103.724609,87.2041016 L97.6821289,87.2041016 L97.6821289,103 L95.2163086,103 L95.2163086,87.2041016 L89.1738281,87.2041016 L89.1738281,85.0678711 L103.724609,85.0678711 Z" id="Inst.-Profesionales" fill="#004A97"></path>
                <path d="M353.3,129.4 C353.3,132.7 350.6,135.4 347.3,135.4 L6.7,135.4 C3.4,135.4 0.7,132.7 0.7,129.4 L0.7,6.1 C0.7,2.8 3.4,0.1 6.7,0.1 L347.4,0.1 C350.7,0.1 353.4,2.8 353.4,6.1 L353.4,129.4 L353.3,129.4 Z" id="Shape" stroke="#005283" stroke-width="2"></path>
                <path d="M235.6,38.3 L233.7,38.6 L227.9,34.5 L229.2,34.5 L229.8,34.4 L268.2,30.3 L266.8,28.3 L224.2,32.7 L224.2,33.4 L224.2,35 L224.2,89.5 L231.9,94.9 L231.9,94.9 L237.2,94.5 L237.2,41 L239.5,40.9 L272.4,37.6 L272.4,34.6 L235.6,38.3 Z M283.1,41.9 L283.1,41.5 L246,45.6 L246.6,45.9 L283.1,41.9 Z M299.7,52.7 L262.6,56.8 L262.6,56.8 L262,56.8 L262.6,57.2 L298.7,53.2 L298.7,53.2 L299.7,53.1 L299.7,52.7 L299.7,52.7 Z M300.9,56 L300.9,56 L301.9,55.9 L301.9,55.6 L266.2,59.5 L266.2,59.5 L265.6,59.5 L266.2,59.9 L300.9,56 Z M263.9,57.7 L263.3,57.8 L263.9,58.1 L264.5,58.1 L264.5,58.1 L292,55 L299.6,54.1 L300.6,54.1 L300.6,53.7 L263.9,57.7 L263.9,57.7 Z M276.3,57.3 L264.6,58.6 L265.2,59 L265.6,59 L265.6,59 L297.7,55.4 L300.1,55.1 L301.2,55 L301.1,54.6 L276.3,57.3 Z M284,42.9 L283.9,42.5 L247.5,46.5 L247.9,46.9 L284,42.9 Z M284.5,43.9 L284.5,43.5 L248.6,47.3 L249.2,47.7 L284.5,43.9 Z M285.4,44.7 L285.3,44.3 L249.9,48.2 L250.3,48.5 L285.4,44.7 Z M268.1,32.2 L268,31.9 L231.9,35.9 L232.5,36.2 L268.1,32.2 Z M267.3,31.3 L267.2,30.9 L230.7,34.9 L231.3,35.3 L267.3,31.3 Z M268.7,32.7 L233.2,36.5 L233.6,36.9 L268.7,33 L268.7,32.7 Z M269.4,34 L269.4,33.6 L234.3,37.5 L234.9,37.9 L269.4,34 Z M266.1,60.4 L265.4,59.8 L264.8,59.5 L264.2,59.1 L263.6,58.7 L262.9,58.3 L262.5,57.9 L261.6,57.3 L261,57 L260.1,56.4 L261.4,56.3 L300.8,52 L299.1,50 L256.3,54.6 L256.3,55.2 L256.3,56.9 L256.3,111.2 L264.1,116.6 L264.1,116.7 L304.5,112.6 L304.5,56.6 L266.1,60.4 Z M271.8,85.2 L271.5,68.8 L296.5,66.7 L271.8,85.2 Z M252,20.6 L252,20.3 L215.9,24.3 L216.3,24.6 L252,20.6 Z M251.2,19.8 L251.2,19.4 L214.7,23.4 L215.1,23.8 L251.2,19.8 Z M252.7,21.2 L217,25.2 L217.6,25.5 L252.7,21.7 L252.7,21.2 Z M253.4,22.5 L253.4,22 L218.3,25.8 L218.7,26.2 L253.4,22.5 Z M219.9,26.7 L217.9,26.8 L212.1,22.8 L213.4,22.7 L214,22.7 L252.5,18.4 L251.1,16.4 L208.2,21 L208.2,21.6 L208.2,23.3 L208.2,77.6 L216,83.2 L216,83.2 L221.3,82.6 L221.3,29.5 L223.4,29.2 L256.3,26.1 L256.3,23.1 L219.9,26.7 Z M251.2,49 L249.6,49.1 L243.8,45.1 L245,45 L245.1,45 L284,40.7 L282.6,38.7 L242.3,43 L239.9,43.3 L239.9,43.9 L239.9,45.6 L239.9,99.9 L247.6,105.5 L247.6,105.5 L252.9,104.9 L252.9,51.7 L254.9,51.6 L288.1,48.3 L288.1,45.3 L251.2,49 Z" id="Shape" fill="#004A97"></path>
            </g>
        </g>
    </g>
</svg>