<?xml version="1.0" encoding="utf-8"?>
<!-- Generator: Adobe Illustrator 18.1.1, SVG Export Plug-In . SVG Version: 6.00 Build 0)  -->
<svg version="1.1" id="Layer_1" xmlns="http://www.w3.org/2000/svg" xmlns:xlink="http://www.w3.org/1999/xlink" x="0px" y="0px"
	 viewBox="0 0 356 139.5" enable-background="new 0 0 356 139.5" xml:space="preserve">
<g>
	<rect x="20.7" y="41.5" fill="none" width="215.8" height="67.9"/>
	<text transform="matrix(1 0 0 1 20.6782 60.392)"><tspan x="0" y="0" fill="#004A97" font-family="'Avenir-Medium'" font-size="25">Cursos, Magíster </tspan><tspan x="0" y="28" fill="#004A97" font-family="'Avenir-Medium'" font-size="25">y Diplomados</tspan></text>
	<path fill="none" stroke="#005283" stroke-width="2" stroke-miterlimit="10" d="M354.3,131.4c0,3.3-2.7,6-6,6H7.7c-3.3,0-6-2.7-6-6
		V8.1c0-3.3,2.7-6,6-6h340.7c3.3,0,6,2.7,6,6V131.4z"/>
	<path fill-rule="evenodd" clip-rule="evenodd" fill="#004A97" d="M326.7,58.7v2.5v34.9c0,3.9-3.1,7-7,7h-77.1c-3.9,0-7.1-3.2-7.1-7
		V61.4l15.7,13l0.9,0.6l-0.6,1.9v3.4c0,1.4,1.1,2.6,2.5,2.6h6.8c1.4,0,2.5-1.2,2.5-2.6v-3.2v-0.8h35.6v0.8v3.2
		c0,1.4,1.1,2.6,2.5,2.6h6.8c1.4,0,2.5-1.2,2.5-2.6v-3.4v-2.2l15.8-13.2l0.1-0.1l0.2-0.2l0,0l0,0l0,0l0,0v-0.1l0,0l0,0l0,0V61l0,0
		l0,0l0,0l0,0l0,0v-0.1l0,0l0,0l0,0v-0.1l0,0l0,0l0,0l0,0v-0.1l0,0l0,0l0,0v-0.1l0,0l0,0l0,0l0,0v-0.1l0,0l0,0l0,0l0,0v-0.1l0,0l0,0
		l0,0v-0.1l0,0l0,0l0,0v-0.1l0,0l0,0l0,0l0,0l0,0v-0.1l0,0l0,0l0,0v-0.1l0,0l0,0l0,0V60l0,0l0,0l0,0l0,0v-0.1l0,0l0,0l0,0v-0.1l0,0
		l0,0l0,0v-0.1l0,0l0,0l0,0v-0.1l0,0l0,0l0,0l0,0v-0.1l0,0l0,0l0,0l0,0v-0.1l0,0l0,0l0,0v-0.1l0,0v-0.1l0,0l0,0l0,0v-0.1l0,0l0,0
		l0,0l0,0v-0.1l0,0l0,0V59l0,0l0,0v-0.1l0,0V58.7L326.7,58.7L326.7,58.7L326.7,58.7L326.7,58.7L326.7,58.7z M289.9,39.9
		c-0.4-4.5-4.2-8.1-8.8-8.1c-4.6,0-8.4,3.5-8.9,8.1H289.9z M263.3,39.9c0.5-9.4,8.2-17,17.8-17c9.5,0,17.3,7.5,17.7,17h27.9v14.5
		l-16.3,13.8l-0.1,0.1c-0.5-0.7-1.3-1.3-2.2-1.3h-6.8c-1.4,0-2.6,1.1-2.6,2.5v1.7h-35.5v-1.7c0-1.4-1.1-2.5-2.5-2.5H254
		c-1,0-1.8,0.6-2.2,1.3l-0.6-0.5l0,0l-15.7-13.2V39.9H263.3z M310.6,76.9L310.6,76.9L310.6,76.9"/>
</g>
</svg>
