<?xml version="1.0" encoding="UTF-8"?>
<svg width="356px" height="138px" viewBox="0 0 356 138" version="1.1" xmlns="http://www.w3.org/2000/svg" xmlns:xlink="http://www.w3.org/1999/xlink">
    <!-- Generator: Sketch 47.1 (45422) - http://www.bohemiancoding.com/sketch -->
    <title>item3</title>
    <desc>Created with Sketch.</desc>
    <defs></defs>
    <g id="Page-1" stroke="none" stroke-width="1" fill="none" fill-rule="evenodd">
        <g id="Tablet" transform="translate(-250.000000, -810.000000)">
            <g id="item3" transform="translate(251.000000, 811.000000)">
                <g id="Group" transform="translate(19.678200, 34.392000)" fill="#004A97">
                    <path d="M14.7460938,7.37402344 C15.9993552,8.57031848 16.695149,9.92935437 16.8334961,11.4511719 L14.465332,11.4511719 C14.196776,10.2955671 13.6617065,9.38004895 12.8601074,8.70458984 C12.0585084,8.02913074 10.9334382,7.69140625 9.48486328,7.69140625 C7.71890393,7.69140625 6.29273004,8.31192413 5.20629883,9.55297852 C4.11986761,10.7940329 3.57666016,12.6962762 3.57666016,15.2597656 C3.57666016,17.3593855 4.06697101,19.0622493 5.04760742,20.3684082 C6.02824384,21.6745671 7.49103845,22.3276367 9.43603516,22.3276367 C11.2264087,22.3276367 12.5895135,21.6399808 13.5253906,20.2646484 C14.0218124,19.540361 14.3920886,18.588222 14.6362305,17.4082031 L17.0043945,17.4082031 C16.7928049,19.2962334 16.0929421,20.8790626 14.9047852,22.1567383 C13.4806244,23.6948319 11.5600707,24.4638672 9.14306641,24.4638672 C7.05972266,24.4638672 5.31006567,23.8331769 3.89404297,22.5717773 C2.03042688,20.9034747 1.09863281,18.3278169 1.09863281,14.8447266 C1.09863281,12.1998566 1.79849561,10.0310957 3.19824219,8.33837891 C4.71192163,6.499177 6.7993031,5.57958984 9.46044922,5.57958984 C11.7309684,5.57958984 13.4928323,6.17772839 14.7460938,7.37402344 Z M21.862793,10.9262695 L21.862793,19.6054688 C21.862793,20.2727898 21.9685862,20.8180317 22.1801758,21.2412109 C22.5708027,22.0224648 23.2991483,22.4130859 24.3652344,22.4130859 C25.8951899,22.4130859 26.9368462,21.729499 27.4902344,20.3623047 C27.7913427,19.6298792 27.9418945,18.6248436 27.9418945,17.347168 L27.9418945,10.9262695 L30.1391602,10.9262695 L30.1391602,24 L28.0639648,24 L28.0883789,22.0712891 C27.8035468,22.5677108 27.4495464,22.9868147 27.0263672,23.3286133 C26.1881469,24.0122104 25.1709044,24.3540039 23.9746094,24.3540039 C22.1109933,24.3540039 20.8414747,23.7314515 20.1660156,22.4863281 C19.7998029,21.8190071 19.6166992,20.9279027 19.6166992,19.8129883 L19.6166992,10.9262695 L21.862793,10.9262695 Z M33.6303711,10.9262695 L35.7177734,10.9262695 L35.7177734,13.1845703 C35.8886727,12.745115 36.3077766,12.2100455 36.9750977,11.5793457 C37.6424187,10.9486459 38.411454,10.6333008 39.2822266,10.6333008 C39.3229169,10.6333008 39.3920894,10.6373698 39.4897461,10.6455078 C39.5874028,10.6536459 39.7542306,10.6699218 39.9902344,10.6943359 L39.9902344,13.0136719 C39.8600254,12.9892577 39.7399908,12.9729818 39.630127,12.9648438 C39.5202631,12.9567057 39.4002285,12.9526367 39.2700195,12.9526367 C38.1632432,12.9526367 37.3128285,13.3086716 36.71875,14.020752 C36.1246715,14.7328323 35.8276367,15.5527297 35.8276367,16.4804688 L35.8276367,24 L33.6303711,24 L33.6303711,10.9262695 Z M43.2006836,19.8984375 C43.2657881,20.630863 43.4488917,21.1923809 43.75,21.5830078 C44.3033882,22.2910192 45.263665,22.6450195 46.6308594,22.6450195 C47.4446655,22.6450195 48.1608042,22.4680193 48.7792969,22.1140137 C49.3977896,21.760008 49.7070312,21.2127316 49.7070312,20.472168 C49.7070312,19.9106417 49.4588241,19.4833999 48.9624023,19.1904297 C48.6450179,19.0113923 48.0183966,18.8038749 47.0825195,18.5678711 L45.3369141,18.128418 C44.2219996,17.8517239 43.4000677,17.5424822 42.8710938,17.2006836 C41.9270786,16.6066051 41.4550781,15.7846732 41.4550781,14.7348633 C41.4550781,13.4978779 41.9006303,12.4969114 42.791748,11.7319336 C43.6828658,10.9669558 44.8811774,10.5844727 46.3867188,10.5844727 C48.3561296,10.5844727 49.7762001,11.1622664 50.6469727,12.3178711 C51.1922228,13.0502966 51.4567058,13.8396768 51.4404297,14.6860352 L49.3652344,14.6860352 C49.3245441,14.1896134 49.1495784,13.7379578 48.840332,13.3310547 C48.3357722,12.7532523 47.4609437,12.4643555 46.2158203,12.4643555 C45.385738,12.4643555 44.7570822,12.6230453 44.329834,12.9404297 C43.9025858,13.2578141 43.6889648,13.676918 43.6889648,14.1977539 C43.6889648,14.7674182 43.9697238,15.2231428 44.53125,15.5649414 C44.8567725,15.7683929 45.3369109,15.9474276 45.9716797,16.1020508 L47.4243164,16.4560547 C49.0031003,16.8385436 50.0610325,17.2088198 50.5981445,17.5668945 C51.452641,18.1284208 51.8798828,19.0113872 51.8798828,20.2158203 C51.8798828,21.3795631 51.4383996,22.3845986 50.5554199,23.230957 C49.6724402,24.0773154 48.3276458,24.5004883 46.5209961,24.5004883 C44.5759994,24.5004883 43.1986531,24.0590051 42.388916,23.1760254 C41.5791789,22.2930457 41.1458336,21.2005273 41.0888672,19.8984375 L43.2006836,19.8984375 Z M62.5793457,20.9299316 C63.1205268,19.8272243 63.3911133,18.6004299 63.3911133,17.2495117 C63.3911133,16.0288025 63.1958027,15.0359739 62.8051758,14.2709961 C62.1866831,13.066563 61.120613,12.4643555 59.6069336,12.4643555 C58.2641534,12.4643555 57.2876007,12.9770457 56.6772461,14.0024414 C56.0668915,15.0278372 55.7617188,16.264804 55.7617188,17.7133789 C55.7617188,19.1049874 56.0668915,20.2646438 56.6772461,21.1923828 C57.2876007,22.1201218 58.2560155,22.5839844 59.5825195,22.5839844 C61.0392325,22.5839844 62.0381646,22.032639 62.5793457,20.9299316 Z M63.9404297,12.2324219 C65.1041725,13.3554744 65.6860352,15.0074761 65.6860352,17.1884766 C65.6860352,19.2962345 65.173345,21.0377535 64.1479492,22.4130859 C63.1225535,23.7884183 61.5315863,24.4760742 59.375,24.4760742 C57.5764884,24.4760742 56.14828,23.8677632 55.090332,22.651123 C54.032384,21.4344828 53.503418,19.8007915 53.503418,17.75 C53.503418,15.5527234 54.0608668,13.8030664 55.1757812,12.5009766 C56.2906957,11.1988867 57.7880765,10.5478516 59.6679688,10.5478516 C61.3525475,10.5478516 62.7766869,11.1093694 63.9404297,12.2324219 Z M69.6044922,19.8984375 C69.6695967,20.630863 69.8527003,21.1923809 70.1538086,21.5830078 C70.7071968,22.2910192 71.6674736,22.6450195 73.034668,22.6450195 C73.8484741,22.6450195 74.5646128,22.4680193 75.1831055,22.1140137 C75.8015981,21.760008 76.1108398,21.2127316 76.1108398,20.472168 C76.1108398,19.9106417 75.8626327,19.4833999 75.3662109,19.1904297 C75.0488265,19.0113923 74.4222052,18.8038749 73.4863281,18.5678711 L71.7407227,18.128418 C70.6258082,17.8517239 69.8038763,17.5424822 69.2749023,17.2006836 C68.3308872,16.6066051 67.8588867,15.7846732 67.8588867,14.7348633 C67.8588867,13.4978779 68.3044389,12.4969114 69.1955566,11.7319336 C70.0866744,10.9669558 71.284986,10.5844727 72.7905273,10.5844727 C74.7599382,10.5844727 76.1800087,11.1622664 77.0507812,12.3178711 C77.5960314,13.0502966 77.8605144,13.8396768 77.8442383,14.6860352 L75.769043,14.6860352 C75.7283527,14.1896134 75.553387,13.7379578 75.2441406,13.3310547 C74.7395808,12.7532523 73.8647523,12.4643555 72.6196289,12.4643555 C71.7895466,12.4643555 71.1608908,12.6230453 70.7336426,12.9404297 C70.3063943,13.2578141 70.0927734,13.676918 70.0927734,14.1977539 C70.0927734,14.7674182 70.3735323,15.2231428 70.9350586,15.5649414 C71.2605811,15.7683929 71.7407195,15.9474276 72.3754883,16.1020508 L73.828125,16.4560547 C75.4069089,16.8385436 76.4648411,17.2088198 77.0019531,17.5668945 C77.8564496,18.1284208 78.2836914,19.0113872 78.2836914,20.2158203 C78.2836914,21.3795631 77.8422082,22.3845986 76.9592285,23.230957 C76.0762488,24.0773154 74.7314543,24.5004883 72.9248047,24.5004883 C70.979808,24.5004883 69.6024617,24.0590051 68.7927246,23.1760254 C67.9829875,22.2930457 67.5496422,21.2005273 67.4926758,19.8984375 L69.6044922,19.8984375 Z M81.262207,26.5512695 C81.8237333,26.4536128 82.2184233,26.0589227 82.4462891,25.3671875 C82.56836,25.0009747 82.6293945,24.6469744 82.6293945,24.3051758 C82.6293945,24.2482094 82.62736,24.1973472 82.623291,24.1525879 C82.619222,24.1078286 82.6090496,24.0569664 82.5927734,24 L81.262207,24 L81.262207,21.3388672 L83.8745117,21.3388672 L83.8745117,23.8046875 C83.8745117,24.7731168 83.6792012,25.6235315 83.2885742,26.355957 C82.8979473,27.0883826 82.2224983,27.5400382 81.262207,27.7109375 L81.262207,26.5512695 Z M94.921875,6.06787109 L98.4008789,6.06787109 L103.552246,21.2290039 L108.666992,6.06787109 L112.109375,6.06787109 L112.109375,24 L109.802246,24 L109.802246,13.4165039 C109.802246,13.0502911 109.810384,12.4440146 109.82666,11.5976562 C109.842936,10.7512979 109.851074,9.8439176 109.851074,8.87548828 L104.736328,24 L102.331543,24 L97.1801758,8.87548828 L97.1801758,9.42480469 C97.1801758,9.86426001 97.1903482,10.5336055 97.2106934,11.4328613 C97.2310385,12.3321171 97.2412109,12.9933247 97.2412109,13.4165039 L97.2412109,24 L94.921875,24 L94.921875,6.06787109 Z M117.895508,22.0224609 C118.359377,22.3886737 118.908688,22.5717773 119.543457,22.5717773 C120.316573,22.5717773 121.065263,22.3927427 121.789551,22.034668 C123.01026,21.4405895 123.620605,20.4681057 123.620605,19.1171875 L123.620605,17.347168 C123.352049,17.5180673 123.006187,17.6604812 122.583008,17.7744141 C122.159829,17.8883469 121.744794,17.9697263 121.337891,18.0185547 L120.007324,18.1894531 C119.209794,18.2952479 118.611656,18.4620757 118.212891,18.6899414 C117.537432,19.0724303 117.199707,19.6827758 117.199707,20.5209961 C117.199707,21.1557649 117.431638,21.6562482 117.895508,22.0224609 Z M122.521973,16.0776367 C123.026532,16.0125322 123.364257,15.8009458 123.535156,15.4428711 C123.632813,15.2475576 123.681641,14.9667987 123.681641,14.6005859 C123.681641,13.8518843 123.415123,13.3086768 122.88208,12.9709473 C122.349037,12.6332177 121.586105,12.4643555 120.593262,12.4643555 C119.445795,12.4643555 118.632001,12.7735972 118.151855,13.3920898 C117.883299,13.7338884 117.708334,14.2425096 117.626953,14.9179688 L115.576172,14.9179688 C115.616862,13.3066326 116.139725,12.1856314 117.144775,11.5549316 C118.149826,10.9242319 119.315586,10.6088867 120.64209,10.6088867 C122.180183,10.6088867 123.429357,10.9018525 124.389648,11.487793 C125.341802,12.0737334 125.817871,12.9851826 125.817871,14.222168 L125.817871,21.7539062 C125.817871,21.981772 125.864664,22.1648756 125.958252,22.3032227 C126.05184,22.4415697 126.249185,22.5107422 126.550293,22.5107422 C126.64795,22.5107422 126.757812,22.5046387 126.879883,22.4924316 C127.001954,22.4802245 127.132161,22.4619142 127.270508,22.4375 L127.270508,24.0610352 C126.928709,24.1586919 126.668295,24.2197264 126.489258,24.2441406 C126.31022,24.2685548 126.066082,24.2807617 125.756836,24.2807617 C124.999996,24.2807617 124.450685,24.0122097 124.108887,23.4750977 C123.929849,23.1902655 123.803711,22.7874375 123.730469,22.2666016 C123.282875,22.852542 122.639978,23.3611632 121.801758,23.7924805 C120.963537,24.2237977 120.039881,24.4394531 119.030762,24.4394531 C117.818191,24.4394531 116.827396,24.0712114 116.05835,23.3347168 C115.289303,22.5982222 114.904785,21.6766006 114.904785,20.5698242 C114.904785,19.3572531 115.283199,18.417321 116.040039,17.75 C116.796879,17.082679 117.789707,16.671713 119.018555,16.5170898 L122.521973,16.0776367 Z M136.71875,11.4511719 C137.133791,11.736004 137.556964,12.1510389 137.988281,12.6962891 L137.988281,11.0483398 L140.014648,11.0483398 L140.014648,22.9379883 C140.014648,24.5981528 139.77051,25.9083611 139.282227,26.8686523 C138.370764,28.6427498 136.649589,29.5297852 134.118652,29.5297852 C132.710768,29.5297852 131.526698,29.21444 130.566406,28.5837402 C129.606115,27.9530405 129.069011,26.9663153 128.955078,25.6235352 L131.188965,25.6235352 C131.29476,26.2094756 131.506346,26.6611312 131.82373,26.9785156 C132.320152,27.4667993 133.101394,27.7109375 134.16748,27.7109375 C135.852059,27.7109375 136.95475,27.1168679 137.475586,25.9287109 C137.784832,25.2288376 137.927246,23.9796639 137.902832,22.1811523 C137.463377,22.8484734 136.934411,23.3448877 136.315918,23.6704102 C135.697425,23.9959326 134.879562,24.1586914 133.862305,24.1586914 C132.446282,24.1586914 131.207281,23.6561736 130.145264,22.651123 C129.083247,21.6460724 128.552246,19.9838983 128.552246,17.6645508 C128.552246,15.4754122 129.087316,13.7664449 130.157471,12.5375977 C131.227626,11.3087504 132.519524,10.6943359 134.033203,10.6943359 C135.058599,10.6943359 135.953772,10.9466121 136.71875,11.4511719 Z M136.987305,13.8071289 C136.319984,13.025875 135.469569,12.6352539 134.436035,12.6352539 C132.889803,12.6352539 131.831871,13.3595305 131.262207,14.8081055 C130.961099,15.5812213 130.810547,16.5943948 130.810547,17.8476562 C130.810547,19.3206454 131.109616,20.4416465 131.707764,21.2106934 C132.305911,21.9797402 133.109533,22.3642578 134.118652,22.3642578 C135.697436,22.3642578 136.808265,21.6521881 137.451172,20.2280273 C137.809247,19.4223593 137.988281,18.4824272 137.988281,17.4082031 C137.988281,15.7887289 137.654626,14.5883828 136.987305,13.8071289 Z M144.018555,10.9873047 L146.252441,10.9873047 L146.252441,24 L144.018555,24 L144.018555,10.9873047 Z M147.912598,5.66503906 L144.65332,9.19287109 L142.96875,9.19287109 L145.202637,5.66503906 L147.912598,5.66503906 Z M151.574707,19.8984375 C151.639812,20.630863 151.822915,21.1923809 152.124023,21.5830078 C152.677412,22.2910192 153.637688,22.6450195 155.004883,22.6450195 C155.818689,22.6450195 156.534828,22.4680193 157.15332,22.1140137 C157.771813,21.760008 158.081055,21.2127316 158.081055,20.472168 C158.081055,19.9106417 157.832848,19.4833999 157.336426,19.1904297 C157.019041,19.0113923 156.39242,18.8038749 155.456543,18.5678711 L153.710938,18.128418 C152.596023,17.8517239 151.774091,17.5424822 151.245117,17.2006836 C150.301102,16.6066051 149.829102,15.7846732 149.829102,14.7348633 C149.829102,13.4978779 150.274654,12.4969114 151.165771,11.7319336 C152.056889,10.9669558 153.255201,10.5844727 154.760742,10.5844727 C156.730153,10.5844727 158.150224,11.1622664 159.020996,12.3178711 C159.566246,13.0502966 159.830729,13.8396768 159.814453,14.6860352 L157.739258,14.6860352 C157.698568,14.1896134 157.523602,13.7379578 157.214355,13.3310547 C156.709796,12.7532523 155.834967,12.4643555 154.589844,12.4643555 C153.759761,12.4643555 153.131106,12.6230453 152.703857,12.9404297 C152.276609,13.2578141 152.062988,13.676918 152.062988,14.1977539 C152.062988,14.7674182 152.343747,15.2231428 152.905273,15.5649414 C153.230796,15.7683929 153.710934,15.9474276 154.345703,16.1020508 L155.79834,16.4560547 C157.377124,16.8385436 158.435056,17.2088198 158.972168,17.5668945 C159.826664,18.1284208 160.253906,19.0113872 160.253906,20.2158203 C160.253906,21.3795631 159.812423,22.3845986 158.929443,23.230957 C158.046464,24.0773154 156.701669,24.5004883 154.89502,24.5004883 C152.950023,24.5004883 151.572677,24.0590051 150.762939,23.1760254 C149.953202,22.2930457 149.519857,21.2005273 149.462891,19.8984375 L151.574707,19.8984375 Z M163.208008,7.27636719 L165.429688,7.27636719 L165.429688,10.9262695 L167.51709,10.9262695 L167.51709,12.7207031 L165.429688,12.7207031 L165.429688,21.253418 C165.429688,21.7091494 165.584308,22.0143221 165.893555,22.1689453 C166.064454,22.258464 166.349282,22.3032227 166.748047,22.3032227 C166.853842,22.3032227 166.967773,22.3011882 167.089844,22.2971191 C167.211915,22.2930501 167.354329,22.2828777 167.51709,22.2666016 L167.51709,24 C167.26481,24.0732426 167.002361,24.1261392 166.729736,24.1586914 C166.457111,24.1912437 166.162111,24.2075195 165.844727,24.2075195 C164.819331,24.2075195 164.123537,23.945071 163.757324,23.420166 C163.391111,22.895261 163.208008,22.2137086 163.208008,21.3754883 L163.208008,12.7207031 L161.437988,12.7207031 L161.437988,10.9262695 L163.208008,10.9262695 L163.208008,7.27636719 Z M177.856445,11.286377 C178.727218,11.7217632 179.39046,12.2853156 179.846191,12.9770508 C180.285647,13.6362338 180.578613,14.405269 180.725098,15.2841797 C180.855307,15.8863962 180.92041,16.8466731 180.92041,18.1650391 L171.337891,18.1650391 C171.378581,19.4915431 171.691892,20.5555787 172.277832,21.3571777 C172.863772,22.1587768 173.771153,22.5595703 175,22.5595703 C176.147467,22.5595703 177.062985,22.1811561 177.746582,21.4243164 C178.137209,20.9848611 178.413899,20.4762399 178.57666,19.8984375 L180.737305,19.8984375 C180.680338,20.3785831 180.491131,20.9136526 180.169678,21.5036621 C179.848224,22.0936716 179.48812,22.5758445 179.089355,22.9501953 C178.422034,23.6012402 177.596034,24.040689 176.611328,24.2685547 C176.082354,24.3987637 175.484216,24.4638672 174.816895,24.4638672 C173.189282,24.4638672 171.809901,23.8718321 170.678711,22.6877441 C169.54752,21.5036562 168.981934,19.845551 168.981934,17.7133789 C168.981934,15.613759 169.551589,13.9088607 170.690918,12.5986328 C171.830247,11.2884049 173.31949,10.6333008 175.158691,10.6333008 C176.08643,10.6333008 176.985673,10.8509907 177.856445,11.286377 Z M178.662109,16.4194336 C178.572591,15.4672804 178.365073,14.7063831 178.039551,14.1367188 C177.437334,13.0787708 176.432299,12.5498047 175.024414,12.5498047 C174.015294,12.5498047 173.168949,12.9139775 172.485352,13.642334 C171.801754,14.3706905 171.439616,15.2963811 171.398926,16.4194336 L178.662109,16.4194336 Z M183.679199,10.9262695 L185.766602,10.9262695 L185.766602,13.1845703 C185.937501,12.745115 186.356605,12.2100455 187.023926,11.5793457 C187.691247,10.9486459 188.460282,10.6333008 189.331055,10.6333008 C189.371745,10.6333008 189.440917,10.6373698 189.538574,10.6455078 C189.636231,10.6536459 189.803059,10.6699218 190.039062,10.6943359 L190.039062,13.0136719 C189.908854,12.9892577 189.788819,12.9729818 189.678955,12.9648438 C189.569091,12.9567057 189.449057,12.9526367 189.318848,12.9526367 C188.212071,12.9526367 187.361657,13.3086716 186.767578,14.020752 C186.1735,14.7328323 185.876465,15.5527297 185.876465,16.4804688 L185.876465,24 L183.679199,24 L183.679199,10.9262695 Z" id="Cursos,-Magíster"></path>
                    <path d="M9.77783203,38.9262695 L12.2070312,38.9262695 C11.8977849,39.7644899 11.210129,41.6769056 10.144043,44.6635742 C9.34651294,46.9096792 8.6792019,48.7407156 8.14208984,50.1567383 C6.87255225,53.4933435 5.97737891,55.5278284 5.45654297,56.2602539 C4.93570703,56.9926794 4.04053369,57.3588867 2.77099609,57.3588867 C2.46174976,57.3588867 2.22371503,57.3466798 2.05688477,57.3222656 C1.8900545,57.2978514 1.68457153,57.2530928 1.44042969,57.1879883 L1.44042969,55.1860352 C1.82291858,55.29183 2.09960852,55.3569335 2.27050781,55.3813477 C2.4414071,55.4057618 2.59195898,55.4179687 2.72216797,55.4179687 C3.12907104,55.4179687 3.42814032,55.3508307 3.61938477,55.2165527 C3.81062921,55.0822747 3.97135352,54.9174814 4.1015625,54.722168 C4.14225281,54.6570635 4.28873572,54.323408 4.54101562,53.7211914 C4.79329553,53.1189749 4.97639917,52.6713882 5.09033203,52.378418 L0.256347656,38.9262695 L2.74658203,38.9262695 L6.25,49.5708008 L9.77783203,38.9262695 Z M28.2348633,49.9248047 C29.0568075,49.9248047 29.7322565,49.8393563 30.2612305,49.668457 C31.2052456,49.3510726 31.9783499,48.7407272 32.5805664,47.8374023 C33.060712,47.1131149 33.4065745,46.1853898 33.6181641,45.0541992 C33.740235,44.3787401 33.8012695,43.7521188 33.8012695,43.1743164 C33.8012695,40.9526256 33.3597863,39.2273824 32.4768066,37.9985352 C31.593827,36.7696879 30.171722,36.1552734 28.2104492,36.1552734 L23.9013672,36.1552734 L23.9013672,49.9248047 L28.2348633,49.9248047 Z M21.4599609,34.0678711 L28.7231445,34.0678711 C31.1889772,34.0678711 33.1013929,34.9426996 34.4604492,36.6923828 C35.6730204,38.2711667 36.2792969,40.2934447 36.2792969,42.7592773 C36.2792969,44.6635837 35.9212275,46.3847579 35.2050781,47.9228516 C33.9436786,50.6409641 31.7749177,52 28.6987305,52 L21.4599609,52 L21.4599609,34.0678711 Z M39.1113281,38.9873047 L41.3452148,38.9873047 L41.3452148,52 L39.1113281,52 L39.1113281,38.9873047 Z M39.1113281,34.0678711 L41.3452148,34.0678711 L41.3452148,36.5581055 L39.1113281,36.5581055 L39.1113281,34.0678711 Z M52.7404785,49.2351074 C53.4200067,48.3765419 53.7597656,47.092782 53.7597656,45.3837891 C53.7597656,44.3421172 53.6092137,43.4469438 53.3081055,42.6982422 C52.7384412,41.2578053 51.6967849,40.5375977 50.1831055,40.5375977 C48.661288,40.5375977 47.6196317,41.298495 47.0581055,42.8203125 C46.7569972,43.6341187 46.6064453,44.667637 46.6064453,45.9208984 C46.6064453,46.9300181 46.7569972,47.7885707 47.0581055,48.496582 C47.6277698,49.8475002 48.669426,50.5229492 50.1831055,50.5229492 C51.2085012,50.5229492 52.0609504,50.0936729 52.7404785,49.2351074 Z M44.4946289,38.9873047 L46.6308594,38.9873047 L46.6308594,40.7207031 C47.0703147,40.1266246 47.5504531,39.6668311 48.0712891,39.3413086 C48.8118527,38.8530249 49.6826122,38.6088867 50.6835938,38.6088867 C52.1647209,38.6088867 53.4220326,39.176508 54.4555664,40.3117676 C55.4891002,41.4470272 56.0058594,43.0685116 56.0058594,45.1762695 C56.0058594,48.0245911 55.2612379,50.0590759 53.7719727,51.2797852 C52.8279575,52.052901 51.7293357,52.4394531 50.4760742,52.4394531 C49.4913688,52.4394531 48.6653679,52.2237977 47.9980469,51.7924805 C47.6074199,51.5483386 47.1720402,51.1292347 46.6918945,50.5351562 L46.6918945,57.2124023 L44.4946289,57.2124023 L44.4946289,38.9873047 Z M58.6303711,34.0678711 L60.8276367,34.0678711 L60.8276367,52 L58.6303711,52 L58.6303711,34.0678711 Z M72.3083496,48.9299316 C72.8495307,47.8272243 73.1201172,46.6004299 73.1201172,45.2495117 C73.1201172,44.0288025 72.9248066,43.0359739 72.5341797,42.2709961 C71.915687,41.066563 70.8496169,40.4643555 69.3359375,40.4643555 C67.9931573,40.4643555 67.0166046,40.9770457 66.40625,42.0024414 C65.7958954,43.0278372 65.4907227,44.264804 65.4907227,45.7133789 C65.4907227,47.1049874 65.7958954,48.2646438 66.40625,49.1923828 C67.0166046,50.1201218 67.9850194,50.5839844 69.3115234,50.5839844 C70.7682365,50.5839844 71.7671685,50.032639 72.3083496,48.9299316 Z M73.6694336,40.2324219 C74.8331764,41.3554744 75.4150391,43.0074761 75.4150391,45.1884766 C75.4150391,47.2962345 74.9023489,49.0377535 73.8769531,50.4130859 C72.8515574,51.7884183 71.2605902,52.4760742 69.1040039,52.4760742 C67.3054923,52.4760742 65.8772839,51.8677632 64.8193359,50.651123 C63.7613879,49.4344828 63.2324219,47.8007915 63.2324219,45.75 C63.2324219,43.5527234 63.7898707,41.8030664 64.9047852,40.5009766 C66.0196996,39.1988867 67.5170804,38.5478516 69.3969727,38.5478516 C71.0815514,38.5478516 72.5056908,39.1093694 73.6694336,40.2324219 Z M78.0273438,38.9262695 L80.2001953,38.9262695 L80.2001953,40.7817383 C80.7210312,40.1388314 81.1930317,39.6708999 81.6162109,39.3779297 C82.3404984,38.8815079 83.1624303,38.6333008 84.0820312,38.6333008 C85.1237031,38.6333008 85.9619109,38.8896459 86.5966797,39.4023437 C86.9547544,39.695314 87.280272,40.1266248 87.5732422,40.6962891 C88.0615259,39.9964158 88.6352506,39.4776221 89.2944336,39.1398926 C89.9536166,38.802163 90.6941691,38.6333008 91.5161133,38.6333008 C93.2739346,38.6333008 94.4702117,39.2680601 95.1049805,40.5375977 C95.4467791,41.2211948 95.6176758,42.140782 95.6176758,43.2963867 L95.6176758,52 L93.3349609,52 L93.3349609,42.9179687 C93.3349609,42.0471962 93.1172711,41.4490576 92.6818848,41.1235352 C92.2464985,40.7980127 91.7154979,40.6352539 91.0888672,40.6352539 C90.2262327,40.6352539 89.4836457,40.9241508 88.861084,41.5019531 C88.2385223,42.0797555 87.9272461,43.0441013 87.9272461,44.3950195 L87.9272461,52 L85.6933594,52 L85.6933594,43.4672852 C85.6933594,42.5802365 85.5875662,41.9332703 85.3759766,41.5263672 C85.042316,40.9160126 84.4197637,40.6108398 83.5083008,40.6108398 C82.6782185,40.6108398 81.9234246,40.9322885 81.2438965,41.5751953 C80.5643683,42.2181022 80.2246094,43.3818275 80.2246094,45.0664062 L80.2246094,52 L78.0273438,52 L78.0273438,38.9262695 Z M101.23291,50.0224609 C101.69678,50.3886737 102.246091,50.5717773 102.880859,50.5717773 C103.653975,50.5717773 104.402666,50.3927427 105.126953,50.034668 C106.347662,49.4405895 106.958008,48.4681057 106.958008,47.1171875 L106.958008,45.347168 C106.689452,45.5180673 106.343589,45.6604812 105.92041,45.7744141 C105.497231,45.8883469 105.082196,45.9697263 104.675293,46.0185547 L103.344727,46.1894531 C102.547197,46.2952479 101.949058,46.4620757 101.550293,46.6899414 C100.874834,47.0724303 100.537109,47.6827758 100.537109,48.5209961 C100.537109,49.1557649 100.769041,49.6562482 101.23291,50.0224609 Z M105.859375,44.0776367 C106.363935,44.0125322 106.701659,43.8009458 106.872559,43.4428711 C106.970215,43.2475576 107.019043,42.9667987 107.019043,42.6005859 C107.019043,41.8518843 106.752525,41.3086768 106.219482,40.9709473 C105.686439,40.6332177 104.923508,40.4643555 103.930664,40.4643555 C102.783197,40.4643555 101.969403,40.7735972 101.489258,41.3920898 C101.220702,41.7338884 101.045736,42.2425096 100.964355,42.9179687 L98.9135742,42.9179687 C98.9542645,41.3066326 99.4771271,40.1856314 100.482178,39.5549316 C101.487228,38.9242319 102.652988,38.6088867 103.979492,38.6088867 C105.517586,38.6088867 106.76676,38.9018525 107.727051,39.487793 C108.679204,40.0737334 109.155273,40.9851826 109.155273,42.222168 L109.155273,49.7539062 C109.155273,49.981772 109.202067,50.1648756 109.295654,50.3032227 C109.389242,50.4415697 109.586587,50.5107422 109.887695,50.5107422 C109.985352,50.5107422 110.095214,50.5046387 110.217285,50.4924316 C110.339356,50.4802245 110.469563,50.4619142 110.60791,50.4375 L110.60791,52.0610352 C110.266112,52.1586919 110.005698,52.2197264 109.82666,52.2441406 C109.647623,52.2685548 109.403485,52.2807617 109.094238,52.2807617 C108.337399,52.2807617 107.788088,52.0122097 107.446289,51.4750977 C107.267252,51.1902655 107.141114,50.7874375 107.067871,50.2666016 C106.620278,50.852542 105.97738,51.3611632 105.13916,51.7924805 C104.30094,52.2237977 103.377284,52.4394531 102.368164,52.4394531 C101.155593,52.4394531 100.164799,52.0712114 99.395752,51.3347168 C98.6267051,50.5982222 98.2421875,49.6766006 98.2421875,48.5698242 C98.2421875,47.3572531 98.6206017,46.417321 99.3774414,45.75 C100.134281,45.082679 101.12711,44.671713 102.355957,44.5170898 L105.859375,44.0776367 Z M115.039062,49.1313477 C115.633141,50.0753628 116.58528,50.5473633 117.895508,50.5473633 C118.912766,50.5473633 119.748939,50.109949 120.404053,49.2351074 C121.059167,48.3602658 121.386719,47.1049886 121.386719,45.4692383 C121.386719,43.8172118 121.048994,42.5944864 120.373535,41.8010254 C119.698076,41.0075644 118.863937,40.6108398 117.871094,40.6108398 C116.764317,40.6108398 115.86711,41.0340127 115.179443,41.8803711 C114.491777,42.7267295 114.147949,43.9718342 114.147949,45.6157227 C114.147949,47.0154692 114.444984,48.1873325 115.039062,49.1313477 Z M119.970703,39.3291016 C120.36133,39.5732434 120.804848,40.0004852 121.30127,40.6108398 L121.30127,34.0068359 L123.413086,34.0068359 L123.413086,52 L121.435547,52 L121.435547,50.1811523 C120.922849,50.9868204 120.316573,51.5686831 119.616699,51.9267578 C118.916826,52.2848325 118.115239,52.4638672 117.211914,52.4638672 C115.755201,52.4638672 114.49382,51.8514872 113.427734,50.626709 C112.361648,49.4019307 111.828613,47.7723083 111.828613,45.737793 C111.828613,43.8334866 112.314855,42.1835193 113.287354,40.7878418 C114.259852,39.3921642 115.649405,38.6943359 117.456055,38.6943359 C118.457036,38.6943359 119.295244,38.9059224 119.970703,39.3291016 Z M134.844971,48.9299316 C135.386152,47.8272243 135.656738,46.6004299 135.656738,45.2495117 C135.656738,44.0288025 135.461428,43.0359739 135.070801,42.2709961 C134.452308,41.066563 133.386238,40.4643555 131.872559,40.4643555 C130.529778,40.4643555 129.553226,40.9770457 128.942871,42.0024414 C128.332516,43.0278372 128.027344,44.264804 128.027344,45.7133789 C128.027344,47.1049874 128.332516,48.2646438 128.942871,49.1923828 C129.553226,50.1201218 130.521641,50.5839844 131.848145,50.5839844 C133.304858,50.5839844 134.30379,50.032639 134.844971,48.9299316 Z M136.206055,40.2324219 C137.369797,41.3554744 137.95166,43.0074761 137.95166,45.1884766 C137.95166,47.2962345 137.43897,49.0377535 136.413574,50.4130859 C135.388178,51.7884183 133.797211,52.4760742 131.640625,52.4760742 C129.842113,52.4760742 128.413905,51.8677632 127.355957,50.651123 C126.298009,49.4344828 125.769043,47.8007915 125.769043,45.75 C125.769043,43.5527234 126.326492,41.8030664 127.441406,40.5009766 C128.556321,39.1988867 130.053702,38.5478516 131.933594,38.5478516 C133.618172,38.5478516 135.042312,39.1093694 136.206055,40.2324219 Z M141.870117,47.8984375 C141.935222,48.630863 142.118325,49.1923809 142.419434,49.5830078 C142.972822,50.2910192 143.933099,50.6450195 145.300293,50.6450195 C146.114099,50.6450195 146.830238,50.4680193 147.44873,50.1140137 C148.067223,49.760008 148.376465,49.2127316 148.376465,48.472168 C148.376465,47.9106417 148.128258,47.4833999 147.631836,47.1904297 C147.314452,47.0113923 146.68783,46.8038749 145.751953,46.5678711 L144.006348,46.128418 C142.891433,45.8517239 142.069501,45.5424822 141.540527,45.2006836 C140.596512,44.6066051 140.124512,43.7846732 140.124512,42.7348633 C140.124512,41.4978779 140.570064,40.4969114 141.461182,39.7319336 C142.352299,38.9669558 143.550611,38.5844727 145.056152,38.5844727 C147.025563,38.5844727 148.445634,39.1622664 149.316406,40.3178711 C149.861656,41.0502966 150.126139,41.8396768 150.109863,42.6860352 L148.034668,42.6860352 C147.993978,42.1896134 147.819012,41.7379578 147.509766,41.3310547 C147.005206,40.7532523 146.130377,40.4643555 144.885254,40.4643555 C144.055172,40.4643555 143.426516,40.6230453 142.999268,40.9404297 C142.572019,41.2578141 142.358398,41.676918 142.358398,42.1977539 C142.358398,42.7674182 142.639157,43.2231428 143.200684,43.5649414 C143.526206,43.7683929 144.006344,43.9474276 144.641113,44.1020508 L146.09375,44.4560547 C147.672534,44.8385436 148.730466,45.2088198 149.267578,45.5668945 C150.122075,46.1284208 150.549316,47.0113872 150.549316,48.2158203 C150.549316,49.3795631 150.107833,50.3845986 149.224854,51.230957 C148.341874,52.0773154 146.997079,52.5004883 145.19043,52.5004883 C143.245433,52.5004883 141.868087,52.0590051 141.05835,51.1760254 C140.248612,50.2930457 139.815267,49.2005273 139.758301,47.8984375 L141.870117,47.8984375 Z" id="y-Diplomados"></path>
                </g>
                <path d="M353.3,129.4 C353.3,132.7 350.6,135.4 347.3,135.4 L6.7,135.4 C3.4,135.4 0.7,132.7 0.7,129.4 L0.7,6.1 C0.7,2.8 3.4,0.1 6.7,0.1 L347.4,0.1 C350.7,0.1 353.4,2.8 353.4,6.1 L353.4,129.4 L353.3,129.4 Z" id="Shape" stroke="#005283" stroke-width="2"></path>
                <path d="M325.7,56.7 L325.7,59.2 L325.7,94.1 C325.7,98 322.6,101.1 318.7,101.1 L241.6,101.1 C237.7,101.1 234.5,97.9 234.5,94.1 L234.5,59.4 L250.2,72.4 L251.1,73 L250.5,74.9 L250.5,78.3 C250.5,79.7 251.6,80.9 253,80.9 L259.8,80.9 C261.2,80.9 262.3,79.7 262.3,78.3 L262.3,75.1 L262.3,74.3 L297.9,74.3 L297.9,75.1 L297.9,78.3 C297.9,79.7 299,80.9 300.4,80.9 L307.2,80.9 C308.6,80.9 309.7,79.7 309.7,78.3 L309.7,74.9 L309.7,72.7 L325.5,59.5 L325.6,59.4 L325.8,59.2 L325.8,59.2 L325.8,59.2 L325.8,59.2 L325.8,59.2 L325.8,59.1 L325.8,59.1 L325.8,59.1 L325.8,59.1 L325.8,59 L325.8,59 L325.8,59 L325.8,59 L325.8,59 L325.8,59 L325.8,58.9 L325.8,58.9 L325.8,58.9 L325.8,58.9 L325.8,58.8 L325.8,58.8 L325.8,58.8 L325.8,58.8 L325.8,58.8 L325.8,58.7 L325.8,58.7 L325.8,58.7 L325.8,58.7 L325.8,58.6 L325.8,58.6 L325.8,58.6 L325.8,58.6 L325.8,58.6 L325.8,58.5 L325.8,58.5 L325.8,58.5 L325.8,58.5 L325.8,58.5 L325.8,58.4 L325.8,58.4 L325.8,58.4 L325.8,58.4 L325.8,58.3 L325.8,58.3 L325.8,58.3 L325.8,58.3 L325.8,58.2 L325.8,58.2 L325.8,58.2 L325.8,58.2 L325.8,58.2 L325.8,58.2 L325.8,58.1 L325.8,58.1 L325.8,58.1 L325.8,58.1 L325.8,58 L325.8,58 L325.8,58 L325.8,58 L325.8,58 L325.8,58 L325.8,58 L325.8,58 L325.8,58 L325.8,57.9 L325.8,57.9 L325.8,57.9 L325.8,57.9 L325.8,57.8 L325.8,57.8 L325.8,57.8 L325.8,57.8 L325.8,57.7 L325.8,57.7 L325.8,57.7 L325.8,57.7 L325.8,57.6 L325.8,57.6 L325.8,57.6 L325.8,57.6 L325.8,57.6 L325.8,57.5 L325.8,57.5 L325.8,57.5 L325.8,57.5 L325.8,57.5 L325.8,57.4 L325.8,57.4 L325.8,57.4 L325.8,57.4 L325.8,57.3 L325.8,57.3 L325.8,57.2 L325.8,57.2 L325.8,57.2 L325.8,57.2 L325.8,57.1 L325.8,57.1 L325.8,57.1 L325.8,57.1 L325.8,57.1 L325.8,57 L325.8,57 L325.8,57 L325.8,57 L325.8,57 L325.8,57 L325.8,56.9 L325.8,56.9 L325.8,56.7 L325.7,56.7 L325.7,56.7 L325.7,56.7 L325.7,56.7 L325.7,56.7 Z M288.9,37.9 C288.5,33.4 284.7,29.8 280.1,29.8 C275.5,29.8 271.7,33.3 271.2,37.9 L288.9,37.9 Z M262.3,37.9 C262.8,28.5 270.5,20.9 280.1,20.9 C289.6,20.9 297.4,28.4 297.8,37.9 L325.7,37.9 L325.7,52.4 L309.4,66.2 L309.3,66.3 C308.8,65.6 308,65 307.1,65 L300.3,65 C298.9,65 297.7,66.1 297.7,67.5 L297.7,69.2 L262.2,69.2 L262.2,67.5 C262.2,66.1 261.1,65 259.7,65 L253,65 C252,65 251.2,65.6 250.8,66.3 L250.2,65.8 L250.2,65.8 L234.5,52.6 L234.5,37.9 L262.3,37.9 Z" id="Shape" fill="#004A97"></path>
            </g>
        </g>
    </g>
</svg>