<?xml version="1.0" encoding="UTF-8"?>
<svg width="355px" height="138px" viewBox="0 0 355 138" version="1.1" xmlns="http://www.w3.org/2000/svg" xmlns:xlink="http://www.w3.org/1999/xlink">
    <!-- Generator: Sketch 47.1 (45422) - http://www.bohemiancoding.com/sketch -->
    <title>item3</title>
    <desc>Created with Sketch.</desc>
    <defs></defs>
    <g id="Page-1" stroke="none" stroke-width="1" fill="none" fill-rule="evenodd">
        <g id="Tablet" transform="translate(-304.000000, -640.000000)">
            <g id="item3" transform="translate(305.000000, 641.000000)">
                <rect id="Rectangle-path" x="11.1" y="37.4" width="243.1" height="98.6"></rect>
                <g id="Group" transform="translate(15.095800, 40.280800)" fill="#004A97">
                    <path d="M14.7460937,2.37402344 C15.9993552,3.57031848 16.695149,4.92935437 16.8334961,6.45117188 L14.465332,6.45117188 C14.196776,5.29556714 13.6617065,4.38004895 12.8601074,3.70458984 C12.0585084,3.02913074 10.9334382,2.69140625 9.48486328,2.69140625 C7.71890393,2.69140625 6.29273004,3.31192413 5.20629883,4.55297852 C4.11986761,5.7940329 3.57666016,7.69627625 3.57666016,10.2597656 C3.57666016,12.3593855 4.06697101,14.0622493 5.04760742,15.3684082 C6.02824384,16.6745671 7.49103845,17.3276367 9.43603516,17.3276367 C11.2264087,17.3276367 12.5895135,16.6399808 13.5253906,15.2646484 C14.0218124,14.540361 14.3920886,13.588222 14.6362305,12.4082031 L17.0043945,12.4082031 C16.7928049,14.2962334 16.0929421,15.8790626 14.9047852,17.1567383 C13.4806244,18.6948319 11.5600707,19.4638672 9.14306641,19.4638672 C7.05972266,19.4638672 5.31006567,18.8331769 3.89404297,17.5717773 C2.03042688,15.9034747 1.09863281,13.3278169 1.09863281,9.84472656 C1.09863281,7.19985657 1.79849561,5.0310957 3.19824219,3.33837891 C4.71192163,1.499177 6.7993031,0.579589844 9.46044922,0.579589844 C11.7309684,0.579589844 13.4928323,1.17772839 14.7460937,2.37402344 Z M21.862793,5.92626953 L21.862793,14.6054688 C21.862793,15.2727898 21.9685862,15.8180317 22.1801758,16.2412109 C22.5708027,17.0224648 23.2991483,17.4130859 24.3652344,17.4130859 C25.8951899,17.4130859 26.9368462,16.729499 27.4902344,15.3623047 C27.7913427,14.6298792 27.9418945,13.6248436 27.9418945,12.347168 L27.9418945,5.92626953 L30.1391602,5.92626953 L30.1391602,19 L28.0639648,19 L28.0883789,17.0712891 C27.8035468,17.5677108 27.4495464,17.9868147 27.0263672,18.3286133 C26.1881469,19.0122104 25.1709044,19.3540039 23.9746094,19.3540039 C22.1109933,19.3540039 20.8414747,18.7314515 20.1660156,17.4863281 C19.7998029,16.8190071 19.6166992,15.9279027 19.6166992,14.8129883 L19.6166992,5.92626953 L21.862793,5.92626953 Z M33.6303711,5.92626953 L35.7177734,5.92626953 L35.7177734,8.18457031 C35.8886727,7.74511499 36.3077766,7.21004547 36.9750977,6.5793457 C37.6424187,5.94864594 38.411454,5.63330078 39.2822266,5.63330078 C39.3229169,5.63330078 39.3920894,5.63736975 39.4897461,5.64550781 C39.5874028,5.65364587 39.7542306,5.66992175 39.9902344,5.69433594 L39.9902344,8.01367188 C39.8600254,7.98925769 39.7399908,7.97298181 39.630127,7.96484375 C39.5202631,7.95670569 39.4002285,7.95263672 39.2700195,7.95263672 C38.1632432,7.95263672 37.3128285,8.30867157 36.71875,9.02075195 C36.1246715,9.73283234 35.8276367,10.5527297 35.8276367,11.4804688 L35.8276367,19 L33.6303711,19 L33.6303711,5.92626953 Z M43.2006836,14.8984375 C43.2657881,15.630863 43.4488917,16.1923809 43.75,16.5830078 C44.3033882,17.2910192 45.263665,17.6450195 46.6308594,17.6450195 C47.4446655,17.6450195 48.1608042,17.4680193 48.7792969,17.1140137 C49.3977896,16.760008 49.7070312,16.2127316 49.7070312,15.472168 C49.7070312,14.9106417 49.4588241,14.4833999 48.9624023,14.1904297 C48.6450179,14.0113923 48.0183966,13.8038749 47.0825195,13.5678711 L45.3369141,13.128418 C44.2219996,12.8517239 43.4000677,12.5424822 42.8710938,12.2006836 C41.9270786,11.6066051 41.4550781,10.7846732 41.4550781,9.73486328 C41.4550781,8.49787793 41.9006303,7.49691138 42.791748,6.73193359 C43.6828658,5.96695581 44.8811774,5.58447266 46.3867188,5.58447266 C48.3561296,5.58447266 49.7762001,6.16226636 50.6469727,7.31787109 C51.1922228,8.05029663 51.4567058,8.83967676 51.4404297,9.68603516 L49.3652344,9.68603516 C49.3245441,9.1896134 49.1495784,8.73795776 48.840332,8.33105469 C48.3357722,7.75325232 47.4609437,7.46435547 46.2158203,7.46435547 C45.385738,7.46435547 44.7570822,7.62304529 44.329834,7.94042969 C43.9025858,8.25781409 43.6889648,8.67691797 43.6889648,9.19775391 C43.6889648,9.76741821 43.9697238,10.2231428 44.53125,10.5649414 C44.8567725,10.7683929 45.3369109,10.9474276 45.9716797,11.1020508 L47.4243164,11.4560547 C49.0031003,11.8385436 50.0610325,12.2088198 50.5981445,12.5668945 C51.452641,13.1284208 51.8798828,14.0113872 51.8798828,15.2158203 C51.8798828,16.3795631 51.4383996,17.3845986 50.5554199,18.230957 C49.6724402,19.0773154 48.3276458,19.5004883 46.5209961,19.5004883 C44.5759994,19.5004883 43.1986531,19.0590051 42.388916,18.1760254 C41.5791789,17.2930457 41.1458336,16.2005273 41.0888672,14.8984375 L43.2006836,14.8984375 Z M62.5793457,15.9299316 C63.1205268,14.8272243 63.3911133,13.6004299 63.3911133,12.2495117 C63.3911133,11.0288025 63.1958027,10.0359739 62.8051758,9.27099609 C62.1866831,8.06656299 61.120613,7.46435547 59.6069336,7.46435547 C58.2641534,7.46435547 57.2876007,7.97704565 56.6772461,9.00244141 C56.0668915,10.0278372 55.7617187,11.264804 55.7617187,12.7133789 C55.7617187,14.1049874 56.0668915,15.2646438 56.6772461,16.1923828 C57.2876007,17.1201218 58.2560155,17.5839844 59.5825195,17.5839844 C61.0392325,17.5839844 62.0381646,17.032639 62.5793457,15.9299316 Z M63.9404297,7.23242187 C65.1041725,8.35547437 65.6860352,10.0074761 65.6860352,12.1884766 C65.6860352,14.2962345 65.173345,16.0377535 64.1479492,17.4130859 C63.1225535,18.7884183 61.5315863,19.4760742 59.375,19.4760742 C57.5764884,19.4760742 56.14828,18.8677632 55.090332,17.651123 C54.032384,16.4344828 53.503418,14.8007915 53.503418,12.75 C53.503418,10.5527234 54.0608668,8.80306641 55.1757812,7.50097656 C56.2906957,6.19888672 57.7880765,5.54785156 59.6679687,5.54785156 C61.3525475,5.54785156 62.7766869,6.10936938 63.9404297,7.23242187 Z M69.6044922,14.8984375 C69.6695967,15.630863 69.8527003,16.1923809 70.1538086,16.5830078 C70.7071968,17.2910192 71.6674736,17.6450195 73.034668,17.6450195 C73.8484741,17.6450195 74.5646128,17.4680193 75.1831055,17.1140137 C75.8015981,16.760008 76.1108398,16.2127316 76.1108398,15.472168 C76.1108398,14.9106417 75.8626327,14.4833999 75.3662109,14.1904297 C75.0488265,14.0113923 74.4222052,13.8038749 73.4863281,13.5678711 L71.7407227,13.128418 C70.6258082,12.8517239 69.8038763,12.5424822 69.2749023,12.2006836 C68.3308872,11.6066051 67.8588867,10.7846732 67.8588867,9.73486328 C67.8588867,8.49787793 68.3044389,7.49691138 69.1955566,6.73193359 C70.0866744,5.96695581 71.284986,5.58447266 72.7905273,5.58447266 C74.7599382,5.58447266 76.1800087,6.16226636 77.0507812,7.31787109 C77.5960314,8.05029663 77.8605144,8.83967676 77.8442383,9.68603516 L75.769043,9.68603516 C75.7283527,9.1896134 75.553387,8.73795776 75.2441406,8.33105469 C74.7395808,7.75325232 73.8647523,7.46435547 72.6196289,7.46435547 C71.7895466,7.46435547 71.1608908,7.62304529 70.7336426,7.94042969 C70.3063943,8.25781409 70.0927734,8.67691797 70.0927734,9.19775391 C70.0927734,9.76741821 70.3735323,10.2231428 70.9350586,10.5649414 C71.2605811,10.7683929 71.7407195,10.9474276 72.3754883,11.1020508 L73.828125,11.4560547 C75.4069089,11.8385436 76.4648411,12.2088198 77.0019531,12.5668945 C77.8564496,13.1284208 78.2836914,14.0113872 78.2836914,15.2158203 C78.2836914,16.3795631 77.8422082,17.3845986 76.9592285,18.230957 C76.0762488,19.0773154 74.7314543,19.5004883 72.9248047,19.5004883 C70.979808,19.5004883 69.6024617,19.0590051 68.7927246,18.1760254 C67.9829875,17.2930457 67.5496422,16.2005273 67.4926758,14.8984375 L69.6044922,14.8984375 Z M81.262207,21.5512695 C81.8237333,21.4536128 82.2184233,21.0589227 82.4462891,20.3671875 C82.56836,20.0009747 82.6293945,19.6469744 82.6293945,19.3051758 C82.6293945,19.2482094 82.62736,19.1973472 82.623291,19.1525879 C82.619222,19.1078286 82.6090496,19.0569664 82.5927734,19 L81.262207,19 L81.262207,16.3388672 L83.8745117,16.3388672 L83.8745117,18.8046875 C83.8745117,19.7731168 83.6792012,20.6235315 83.2885742,21.355957 C82.8979473,22.0883826 82.2224983,22.5400382 81.262207,22.7109375 L81.262207,21.5512695 Z M101.867676,16.9248047 C102.68962,16.9248047 103.365069,16.8393563 103.894043,16.668457 C104.838058,16.3510726 105.611162,15.7407272 106.213379,14.8374023 C106.693525,14.1131149 107.039387,13.1853898 107.250977,12.0541992 C107.373047,11.3787401 107.434082,10.7521188 107.434082,10.1743164 C107.434082,7.95262561 106.992599,6.22738245 106.109619,4.99853516 C105.226639,3.76968787 103.804535,3.15527344 101.843262,3.15527344 L97.5341797,3.15527344 L97.5341797,16.9248047 L101.867676,16.9248047 Z M95.0927734,1.06787109 L102.355957,1.06787109 C104.82179,1.06787109 106.734205,1.94269958 108.093262,3.69238281 C109.305833,5.27116675 109.912109,7.2934447 109.912109,9.75927734 C109.912109,11.6635837 109.55404,13.3847579 108.837891,14.9228516 C107.576491,17.6409641 105.40773,19 102.331543,19 L95.0927734,19 L95.0927734,1.06787109 Z M112.744141,5.98730469 L114.978027,5.98730469 L114.978027,19 L112.744141,19 L112.744141,5.98730469 Z M112.744141,1.06787109 L114.978027,1.06787109 L114.978027,3.55810547 L112.744141,3.55810547 L112.744141,1.06787109 Z M126.373291,16.2351074 C127.052819,15.3765419 127.392578,14.092782 127.392578,12.3837891 C127.392578,11.3421172 127.242026,10.4469438 126.940918,9.69824219 C126.371254,8.2578053 125.329597,7.53759766 123.815918,7.53759766 C122.2941,7.53759766 121.252444,8.298495 120.690918,9.8203125 C120.38981,10.6341187 120.239258,11.667637 120.239258,12.9208984 C120.239258,13.9300181 120.38981,14.7885707 120.690918,15.496582 C121.260582,16.8475002 122.302239,17.5229492 123.815918,17.5229492 C124.841314,17.5229492 125.693763,17.0936729 126.373291,16.2351074 Z M118.127441,5.98730469 L120.263672,5.98730469 L120.263672,7.72070312 C120.703127,7.12662463 121.183266,6.66683105 121.704102,6.34130859 C122.444665,5.8530249 123.315425,5.60888672 124.316406,5.60888672 C125.797533,5.60888672 127.054845,6.176508 128.088379,7.31176758 C129.121913,8.44702716 129.638672,10.0685116 129.638672,12.1762695 C129.638672,15.0245911 128.89405,17.0590759 127.404785,18.2797852 C126.46077,19.052901 125.362148,19.4394531 124.108887,19.4394531 C123.124181,19.4394531 122.29818,19.2237977 121.630859,18.7924805 C121.240232,18.5483386 120.804853,18.1292347 120.324707,17.5351562 L120.324707,24.2124023 L118.127441,24.2124023 L118.127441,5.98730469 Z M132.263184,1.06787109 L134.460449,1.06787109 L134.460449,19 L132.263184,19 L132.263184,1.06787109 Z M145.941162,15.9299316 C146.482343,14.8272243 146.75293,13.6004299 146.75293,12.2495117 C146.75293,11.0288025 146.557619,10.0359739 146.166992,9.27099609 C145.5485,8.06656299 144.482429,7.46435547 142.96875,7.46435547 C141.62597,7.46435547 140.649417,7.97704565 140.039062,9.00244141 C139.428708,10.0278372 139.123535,11.264804 139.123535,12.7133789 C139.123535,14.1049874 139.428708,15.2646438 140.039062,16.1923828 C140.649417,17.1201218 141.617832,17.5839844 142.944336,17.5839844 C144.401049,17.5839844 145.399981,17.032639 145.941162,15.9299316 Z M147.302246,7.23242187 C148.465989,8.35547437 149.047852,10.0074761 149.047852,12.1884766 C149.047852,14.2962345 148.535161,16.0377535 147.509766,17.4130859 C146.48437,18.7884183 144.893403,19.4760742 142.736816,19.4760742 C140.938305,19.4760742 139.510096,18.8677632 138.452148,17.651123 C137.3942,16.4344828 136.865234,14.8007915 136.865234,12.75 C136.865234,10.5527234 137.422683,8.80306641 138.537598,7.50097656 C139.652512,6.19888672 141.149893,5.54785156 143.029785,5.54785156 C144.714364,5.54785156 146.138503,6.10936938 147.302246,7.23242187 Z M151.660156,5.92626953 L153.833008,5.92626953 L153.833008,7.78173828 C154.353844,7.13883142 154.825844,6.6708999 155.249023,6.37792969 C155.973311,5.88150793 156.795243,5.63330078 157.714844,5.63330078 C158.756516,5.63330078 159.594723,5.88964587 160.229492,6.40234375 C160.587567,6.69531396 160.913084,7.12662476 161.206055,7.69628906 C161.694338,6.99641577 162.268063,6.47762213 162.927246,6.13989258 C163.586429,5.80216302 164.326982,5.63330078 165.148926,5.63330078 C166.906747,5.63330078 168.103024,6.26806006 168.737793,7.53759766 C169.079592,8.22119482 169.250488,9.14078198 169.250488,10.2963867 L169.250488,19 L166.967773,19 L166.967773,9.91796875 C166.967773,9.04719617 166.750084,8.44905762 166.314697,8.12353516 C165.879311,7.7980127 165.34831,7.63525391 164.72168,7.63525391 C163.859045,7.63525391 163.116458,7.92415076 162.493896,8.50195312 C161.871335,9.07975549 161.560059,10.0441013 161.560059,11.3950195 L161.560059,19 L159.326172,19 L159.326172,10.4672852 C159.326172,9.58023645 159.220379,8.93327026 159.008789,8.52636719 C158.675129,7.91601257 158.052576,7.61083984 157.141113,7.61083984 C156.311031,7.61083984 155.556237,7.93228845 154.876709,8.57519531 C154.197181,9.21810217 153.857422,10.3818275 153.857422,12.0664062 L153.857422,19 L151.660156,19 L151.660156,5.92626953 Z M174.865723,17.0224609 C175.329592,17.3886737 175.878903,17.5717773 176.513672,17.5717773 C177.286788,17.5717773 178.035478,17.3927427 178.759766,17.034668 C179.980475,16.4405895 180.59082,15.4681057 180.59082,14.1171875 L180.59082,12.347168 C180.322264,12.5180673 179.976402,12.6604812 179.553223,12.7744141 C179.130043,12.8883469 178.715009,12.9697263 178.308105,13.0185547 L176.977539,13.1894531 C176.180009,13.2952479 175.58187,13.4620757 175.183105,13.6899414 C174.507646,14.0724303 174.169922,14.6827758 174.169922,15.5209961 C174.169922,16.1557649 174.401853,16.6562482 174.865723,17.0224609 Z M179.492187,11.0776367 C179.996747,11.0125322 180.334472,10.8009458 180.505371,10.4428711 C180.603028,10.2475576 180.651855,9.96679871 180.651855,9.60058594 C180.651855,8.85188428 180.385338,8.30867682 179.852295,7.97094727 C179.319252,7.63321771 178.55632,7.46435547 177.563477,7.46435547 C176.41601,7.46435547 175.602216,7.77359717 175.12207,8.39208984 C174.853514,8.73388843 174.678549,9.24250964 174.597168,9.91796875 L172.546387,9.91796875 C172.587077,8.30663257 173.10994,7.18563141 174.11499,6.55493164 C175.120041,5.92423187 176.285801,5.60888672 177.612305,5.60888672 C179.150398,5.60888672 180.399572,5.90185254 181.359863,6.48779297 C182.312016,7.0737334 182.788086,7.98518262 182.788086,9.22216797 L182.788086,16.7539062 C182.788086,16.981772 182.834879,17.1648756 182.928467,17.3032227 C183.022055,17.4415697 183.2194,17.5107422 183.520508,17.5107422 C183.618165,17.5107422 183.728027,17.5046387 183.850098,17.4924316 C183.972169,17.4802245 184.102376,17.4619142 184.240723,17.4375 L184.240723,19.0610352 C183.898924,19.1586919 183.63851,19.2197264 183.459473,19.2441406 C183.280435,19.2685548 183.036297,19.2807617 182.727051,19.2807617 C181.970211,19.2807617 181.4209,19.0122097 181.079102,18.4750977 C180.900064,18.1902655 180.773926,17.7874375 180.700684,17.2666016 C180.25309,17.852542 179.610193,18.3611632 178.771973,18.7924805 C177.933752,19.2237977 177.010096,19.4394531 176.000977,19.4394531 C174.788405,19.4394531 173.797611,19.0712114 173.028564,18.3347168 C172.259518,17.5982222 171.875,16.6766006 171.875,15.5698242 C171.875,14.3572531 172.253414,13.417321 173.010254,12.75 C173.767094,12.082679 174.759922,11.671713 175.98877,11.5170898 L179.492187,11.0776367 Z M188.671875,16.1313477 C189.265953,17.0753628 190.218092,17.5473633 191.52832,17.5473633 C192.545578,17.5473633 193.381751,17.109949 194.036865,16.2351074 C194.691979,15.3602658 195.019531,14.1049886 195.019531,12.4692383 C195.019531,10.8172118 194.681807,9.59448639 194.006348,8.80102539 C193.330889,8.00756439 192.49675,7.61083984 191.503906,7.61083984 C190.39713,7.61083984 189.499922,8.0340127 188.812256,8.88037109 C188.12459,9.72672949 187.780762,10.9718342 187.780762,12.6157227 C187.780762,14.0154692 188.077797,15.1873325 188.671875,16.1313477 Z M193.603516,6.32910156 C193.994143,6.57324341 194.43766,7.00048523 194.934082,7.61083984 L194.934082,1.00683594 L197.045898,1.00683594 L197.045898,19 L195.068359,19 L195.068359,17.1811523 C194.555661,17.9868204 193.949385,18.5686831 193.249512,18.9267578 C192.549638,19.2848325 191.748051,19.4638672 190.844727,19.4638672 C189.388014,19.4638672 188.126633,18.8514872 187.060547,17.626709 C185.994461,16.4019307 185.461426,14.7723083 185.461426,12.737793 C185.461426,10.8334866 185.947668,9.18351935 186.920166,7.7878418 C187.892664,6.39216425 189.282218,5.69433594 191.088867,5.69433594 C192.089849,5.69433594 192.928057,5.90592236 193.603516,6.32910156 Z M208.477783,15.9299316 C209.018964,14.8272243 209.289551,13.6004299 209.289551,12.2495117 C209.289551,11.0288025 209.09424,10.0359739 208.703613,9.27099609 C208.085121,8.06656299 207.019051,7.46435547 205.505371,7.46435547 C204.162591,7.46435547 203.186038,7.97704565 202.575684,9.00244141 C201.965329,10.0278372 201.660156,11.264804 201.660156,12.7133789 C201.660156,14.1049874 201.965329,15.2646438 202.575684,16.1923828 C203.186038,17.1201218 204.154453,17.5839844 205.480957,17.5839844 C206.93767,17.5839844 207.936602,17.032639 208.477783,15.9299316 Z M209.838867,7.23242187 C211.00261,8.35547437 211.584473,10.0074761 211.584473,12.1884766 C211.584473,14.2962345 211.071782,16.0377535 210.046387,17.4130859 C209.020991,18.7884183 207.430024,19.4760742 205.273437,19.4760742 C203.474926,19.4760742 202.046718,18.8677632 200.98877,17.651123 C199.930822,16.4344828 199.401855,14.8007915 199.401855,12.75 C199.401855,10.5527234 199.959304,8.80306641 201.074219,7.50097656 C202.189133,6.19888672 203.686514,5.54785156 205.566406,5.54785156 C207.250985,5.54785156 208.675124,6.10936938 209.838867,7.23242187 Z M215.50293,14.8984375 C215.568034,15.630863 215.751138,16.1923809 216.052246,16.5830078 C216.605634,17.2910192 217.565911,17.6450195 218.933105,17.6450195 C219.746912,17.6450195 220.46305,17.4680193 221.081543,17.1140137 C221.700036,16.760008 222.009277,16.2127316 222.009277,15.472168 C222.009277,14.9106417 221.76107,14.4833999 221.264648,14.1904297 C220.947264,14.0113923 220.320643,13.8038749 219.384766,13.5678711 L217.63916,13.128418 C216.524246,12.8517239 215.702314,12.5424822 215.17334,12.2006836 C214.229325,11.6066051 213.757324,10.7846732 213.757324,9.73486328 C213.757324,8.49787793 214.202876,7.49691138 215.093994,6.73193359 C215.985112,5.96695581 217.183423,5.58447266 218.688965,5.58447266 C220.658376,5.58447266 222.078446,6.16226636 222.949219,7.31787109 C223.494469,8.05029663 223.758952,8.83967676 223.742676,9.68603516 L221.66748,9.68603516 C221.62679,9.1896134 221.451824,8.73795776 221.142578,8.33105469 C220.638018,7.75325232 219.76319,7.46435547 218.518066,7.46435547 C217.687984,7.46435547 217.059328,7.62304529 216.63208,7.94042969 C216.204832,8.25781409 215.991211,8.67691797 215.991211,9.19775391 C215.991211,9.76741821 216.27197,10.2231428 216.833496,10.5649414 C217.159019,10.7683929 217.639157,10.9474276 218.273926,11.1020508 L219.726562,11.4560547 C221.305346,11.8385436 222.363279,12.2088198 222.900391,12.5668945 C223.754887,13.1284208 224.182129,14.0113872 224.182129,15.2158203 C224.182129,16.3795631 223.740646,17.3845986 222.857666,18.230957 C221.974686,19.0773154 220.629892,19.5004883 218.823242,19.5004883 C216.878245,19.5004883 215.500899,19.0590051 214.691162,18.1760254 C213.881425,17.2930457 213.44808,16.2005273 213.391113,14.8984375 L215.50293,14.8984375 Z" id="Cursos,-Diplomados"></path>
                    <path d="M9.77783203,33.9262695 L12.2070312,33.9262695 C11.8977849,34.7644899 11.210129,36.6769056 10.144043,39.6635742 C9.34651294,41.9096792 8.6792019,43.7407156 8.14208984,45.1567383 C6.87255225,48.4933435 5.97737891,50.5278284 5.45654297,51.2602539 C4.93570703,51.9926794 4.04053369,52.3588867 2.77099609,52.3588867 C2.46174976,52.3588867 2.22371503,52.3466798 2.05688477,52.3222656 C1.8900545,52.2978514 1.68457153,52.2530928 1.44042969,52.1879883 L1.44042969,50.1860352 C1.82291858,50.29183 2.09960852,50.3569335 2.27050781,50.3813477 C2.4414071,50.4057618 2.59195898,50.4179688 2.72216797,50.4179688 C3.12907104,50.4179688 3.42814032,50.3508307 3.61938477,50.2165527 C3.81062921,50.0822747 3.97135352,49.9174814 4.1015625,49.722168 C4.14225281,49.6570635 4.28873572,49.323408 4.54101562,48.7211914 C4.79329553,48.1189749 4.97639917,47.6713882 5.09033203,47.378418 L0.256347656,33.9262695 L2.74658203,33.9262695 L6.25,44.5708008 L9.77783203,33.9262695 Z M21.2890625,29.0678711 L24.7680664,29.0678711 L29.9194336,44.2290039 L35.0341797,29.0678711 L38.4765625,29.0678711 L38.4765625,47 L36.1694336,47 L36.1694336,36.4165039 C36.1694336,36.0502911 36.1775715,35.4440146 36.1938477,34.5976562 C36.2101238,33.7512979 36.2182617,32.8439176 36.2182617,31.8754883 L31.1035156,47 L28.6987305,47 L23.5473633,31.8754883 L23.5473633,32.4248047 C23.5473633,32.86426 23.5575357,33.5336055 23.5778809,34.4328613 C23.598226,35.3321171 23.6083984,35.9933247 23.6083984,36.4165039 L23.6083984,47 L21.2890625,47 L21.2890625,29.0678711 Z M44.2626953,45.0224609 C44.7265648,45.3886737 45.2758757,45.5717773 45.9106445,45.5717773 C46.6837604,45.5717773 47.4324508,45.3927427 48.1567383,45.034668 C49.3774475,44.4405895 49.987793,43.4681057 49.987793,42.1171875 L49.987793,40.347168 C49.7192369,40.5180673 49.3733745,40.6604812 48.9501953,40.7744141 C48.5270161,40.8883469 48.1119812,40.9697263 47.7050781,41.0185547 L46.3745117,41.1894531 C45.5769817,41.2952479 44.9788431,41.4620757 44.5800781,41.6899414 C43.904619,42.0724303 43.5668945,42.6827758 43.5668945,43.5209961 C43.5668945,44.1557649 43.7988258,44.6562482 44.2626953,45.0224609 Z M48.8891602,39.0776367 C49.39372,39.0125322 49.7314445,38.8009458 49.9023438,38.4428711 C50.0000005,38.2475576 50.0488281,37.9667987 50.0488281,37.6005859 C50.0488281,36.8518843 49.7823106,36.3086768 49.2492676,35.9709473 C48.7162245,35.6332177 47.9532927,35.4643555 46.9604492,35.4643555 C45.8129825,35.4643555 44.9991886,35.7735972 44.519043,36.3920898 C44.2504869,36.7338884 44.0755212,37.2425096 43.9941406,37.9179688 L41.9433594,37.9179688 C41.9840497,36.3066326 42.5069123,35.1856314 43.5119629,34.5549316 C44.5170135,33.9242319 45.6827733,33.6088867 47.0092773,33.6088867 C48.547371,33.6088867 49.7965447,33.9018525 50.7568359,34.487793 C51.7089891,35.0737334 52.1850586,35.9851826 52.1850586,37.222168 L52.1850586,44.7539062 C52.1850586,44.981772 52.2318517,45.1648756 52.3254395,45.3032227 C52.4190272,45.4415697 52.6163722,45.5107422 52.9174805,45.5107422 C53.0151372,45.5107422 53.1249994,45.5046387 53.2470703,45.4924316 C53.3691412,45.4802245 53.4993483,45.4619142 53.6376953,45.4375 L53.6376953,47.0610352 C53.2958967,47.1586919 53.0354827,47.2197264 52.8564453,47.2441406 C52.677408,47.2685548 52.4332698,47.2807617 52.1240234,47.2807617 C51.3671837,47.2807617 50.8178728,47.0122097 50.4760742,46.4750977 C50.2970369,46.1902655 50.1708988,45.7874375 50.0976562,45.2666016 C49.6500629,45.852542 49.0071656,46.3611632 48.1689453,46.7924805 C47.330725,47.2237977 46.4070688,47.4394531 45.3979492,47.4394531 C44.1853781,47.4394531 43.1945839,47.0712114 42.4255371,46.3347168 C41.6564903,45.5982222 41.2719727,44.6766006 41.2719727,43.5698242 C41.2719727,42.3572531 41.6503868,41.417321 42.4072266,40.75 C43.1640663,40.082679 44.1568949,39.671713 45.3857422,39.5170898 L48.8891602,39.0776367 Z M63.0859375,34.4511719 C63.5009786,34.736004 63.9241515,35.1510389 64.3554688,35.6962891 L64.3554688,34.0483398 L66.3818359,34.0483398 L66.3818359,45.9379883 C66.3818359,47.5981528 66.1376978,48.9083611 65.6494141,49.8686523 C64.7379512,51.6427498 63.016777,52.5297852 60.4858398,52.5297852 C59.0779552,52.5297852 57.893885,52.21444 56.9335937,51.5837402 C55.9733025,50.9530405 55.4361985,49.9663153 55.3222656,48.6235352 L57.5561523,48.6235352 C57.6619471,49.2094756 57.8735336,49.6611312 58.190918,49.9785156 C58.6873397,50.4667993 59.4685819,50.7109375 60.534668,50.7109375 C62.2192467,50.7109375 63.3219375,50.1168679 63.8427734,48.9287109 C64.1520198,48.2288376 64.2944337,46.9796639 64.2700195,45.1811523 C63.8305642,45.8484734 63.3015981,46.3448877 62.6831055,46.6704102 C62.0646128,46.9959326 61.2467499,47.1586914 60.2294922,47.1586914 C58.8134695,47.1586914 57.5744682,46.6561736 56.5124512,45.651123 C55.4504341,44.6460724 54.9194336,42.9838983 54.9194336,40.6645508 C54.9194336,38.4754122 55.4545031,36.7664449 56.5246582,35.5375977 C57.5948133,34.3087504 58.8867112,33.6943359 60.4003906,33.6943359 C61.4257864,33.6943359 62.3209597,33.9466121 63.0859375,34.4511719 Z M63.3544922,36.8071289 C62.6871711,36.025875 61.8367565,35.6352539 60.8032227,35.6352539 C59.256991,35.6352539 58.1990588,36.3595305 57.6293945,37.8081055 C57.3282863,38.5812213 57.1777344,39.5943948 57.1777344,40.8476562 C57.1777344,42.3206454 57.4768036,43.4416465 58.0749512,44.2106934 C58.6730987,44.9797402 59.4767202,45.3642578 60.4858398,45.3642578 C62.0646238,45.3642578 63.1754525,44.6521881 63.8183594,43.2280273 C64.1764341,42.4223593 64.3554687,41.4824272 64.3554687,40.4082031 C64.3554687,38.7887289 64.0218132,37.5883828 63.3544922,36.8071289 Z M70.3857422,33.9873047 L72.6196289,33.9873047 L72.6196289,47 L70.3857422,47 L70.3857422,33.9873047 Z M74.2797852,28.6650391 L71.0205078,32.1928711 L69.3359375,32.1928711 L71.5698242,28.6650391 L74.2797852,28.6650391 Z M77.9418945,42.8984375 C78.006999,43.630863 78.1901027,44.1923809 78.4912109,44.5830078 C79.0445991,45.2910192 80.004876,45.6450195 81.3720703,45.6450195 C82.1858765,45.6450195 82.9020151,45.4680193 83.5205078,45.1140137 C84.1390005,44.760008 84.4482422,44.2127316 84.4482422,43.472168 C84.4482422,42.9106417 84.200035,42.4833999 83.7036133,42.1904297 C83.3862289,42.0113923 82.7596075,41.8038749 81.8237305,41.5678711 L80.078125,41.128418 C78.9632106,40.8517239 78.1412787,40.5424822 77.6123047,40.2006836 C76.6682896,39.6066051 76.1962891,38.7846732 76.1962891,37.7348633 C76.1962891,36.4978779 76.6418412,35.4969114 77.532959,34.7319336 C78.4240767,33.9669558 79.6223883,33.5844727 81.1279297,33.5844727 C83.0973406,33.5844727 84.517411,34.1622664 85.3881836,35.3178711 C85.9334337,36.0502966 86.1979167,36.8396768 86.1816406,37.6860352 L84.1064453,37.6860352 C84.065755,37.1896134 83.8907893,36.7379578 83.581543,36.3310547 C83.0769832,35.7532523 82.2021547,35.4643555 80.9570312,35.4643555 C80.126949,35.4643555 79.4982932,35.6230453 79.0710449,35.9404297 C78.6437967,36.2578141 78.4301758,36.676918 78.4301758,37.1977539 C78.4301758,37.7674182 78.7109347,38.2231428 79.2724609,38.5649414 C79.5979834,38.7683929 80.0781218,38.9474276 80.7128906,39.1020508 L82.1655273,39.4560547 C83.7443113,39.8385436 84.8022434,40.2088198 85.3393555,40.5668945 C86.1938519,41.1284208 86.6210938,42.0113872 86.6210938,43.2158203 C86.6210938,44.3795631 86.1796105,45.3845986 85.2966309,46.230957 C84.4136512,47.0773154 83.0688567,47.5004883 81.262207,47.5004883 C79.3172103,47.5004883 77.9398641,47.0590051 77.130127,46.1760254 C76.3203898,45.2930457 75.8870446,44.2005273 75.8300781,42.8984375 L77.9418945,42.8984375 Z M89.5751953,30.2763672 L91.796875,30.2763672 L91.796875,33.9262695 L93.8842773,33.9262695 L93.8842773,35.7207031 L91.796875,35.7207031 L91.796875,44.253418 C91.796875,44.7091494 91.9514958,45.0143221 92.2607422,45.1689453 C92.4316415,45.258464 92.7164694,45.3032227 93.1152344,45.3032227 C93.2210292,45.3032227 93.3349603,45.3011882 93.4570312,45.2971191 C93.5791022,45.2930501 93.7215161,45.2828777 93.8842773,45.2666016 L93.8842773,47 C93.6319974,47.0732426 93.3695489,47.1261392 93.0969238,47.1586914 C92.8242988,47.1912437 92.5292985,47.2075195 92.2119141,47.2075195 C91.1865183,47.2075195 90.4907245,46.945071 90.1245117,46.420166 C89.758299,45.895261 89.5751953,45.2137086 89.5751953,44.3754883 L89.5751953,35.7207031 L87.8051758,35.7207031 L87.8051758,33.9262695 L89.5751953,33.9262695 L89.5751953,30.2763672 Z M104.223633,34.286377 C105.094405,34.7217632 105.757647,35.2853156 106.213379,35.9770508 C106.652834,36.6362338 106.9458,37.405269 107.092285,38.2841797 C107.222494,38.8863962 107.287598,39.8466731 107.287598,41.1650391 L97.7050781,41.1650391 C97.7457684,42.4915431 98.0590791,43.5555787 98.6450195,44.3571777 C99.23096,45.1587768 100.13834,45.5595703 101.367188,45.5595703 C102.514654,45.5595703 103.430172,45.1811561 104.11377,44.4243164 C104.504396,43.9848611 104.781086,43.4762399 104.943848,42.8984375 L107.104492,42.8984375 C107.047526,43.3785831 106.858319,43.9136526 106.536865,44.5036621 C106.215412,45.0936716 105.855308,45.5758445 105.456543,45.9501953 C104.789222,46.6012402 103.963221,47.040689 102.978516,47.2685547 C102.449542,47.3987637 101.851403,47.4638672 101.184082,47.4638672 C99.5564697,47.4638672 98.177089,46.8718321 97.0458984,45.6877441 C95.9147079,44.5036562 95.3491211,42.845551 95.3491211,40.7133789 C95.3491211,38.613759 95.9187769,36.9088607 97.0581055,35.5986328 C98.1974341,34.2884049 99.686677,33.6333008 101.525879,33.6333008 C102.453618,33.6333008 103.35286,33.8509907 104.223633,34.286377 Z M105.029297,39.4194336 C104.939778,38.4672804 104.732261,37.7063831 104.406738,37.1367188 C103.804522,36.0787708 102.799486,35.5498047 101.391602,35.5498047 C100.382482,35.5498047 99.5361362,35.9139775 98.8525391,36.642334 C98.1689419,37.3706905 97.8068036,38.2963811 97.7661133,39.4194336 L105.029297,39.4194336 Z M110.046387,33.9262695 L112.133789,33.9262695 L112.133789,36.1845703 C112.304688,35.745115 112.723792,35.2100455 113.391113,34.5793457 C114.058434,33.9486459 114.82747,33.6333008 115.698242,33.6333008 C115.738932,33.6333008 115.808105,33.6373698 115.905762,33.6455078 C116.003418,33.6536459 116.170246,33.6699218 116.40625,33.6943359 L116.40625,36.0136719 C116.276041,35.9892577 116.156006,35.9729818 116.046143,35.9648438 C115.936279,35.9567057 115.816244,35.9526367 115.686035,35.9526367 C114.579259,35.9526367 113.728844,36.3086716 113.134766,37.020752 C112.540687,37.7328323 112.243652,38.5527297 112.243652,39.4804688 L112.243652,47 L110.046387,47 L110.046387,33.9262695 Z" id="y-Magíster"></path>
                </g>
                <path d="M353,129.3 C353,132.6 350.3,135.3 347,135.3 L6.3,135.3 C3,135.3 0.3,132.6 0.3,129.3 L0.3,6 C0.3,2.7 3,0 6.3,0 L347,0 C350.3,0 353,2.7 353,6 L353,129.3 Z" id="Shape" stroke="#005283" stroke-width="2"></path>
                <path d="M339.3,56.6 L339.3,59.1 L339.3,94 C339.3,97.9 336.2,101 332.3,101 L255.2,101 C251.3,101 248.1,97.8 248.1,94 L248.1,59.3 L263.8,72.3 L264.7,72.9 L264.1,74.8 L264.1,78.2 C264.1,79.6 265.2,80.8 266.6,80.8 L273.4,80.8 C274.8,80.8 275.9,79.6 275.9,78.2 L275.9,75 L275.9,74.2 L311.5,74.2 L311.5,75 L311.5,78.2 C311.5,79.6 312.6,80.8 314,80.8 L320.8,80.8 C322.2,80.8 323.3,79.6 323.3,78.2 L323.3,74.8 L323.3,72.6 L339.1,59.4 L339.2,59.3 L339.4,59.1 L339.4,59.1 L339.4,59.1 L339.4,59.1 L339.4,59.1 L339.4,59 L339.4,59 L339.4,59 L339.4,59 L339.4,59 L339.4,59 L339.4,59 L339.4,59 L339.4,59 L339.4,59 L339.4,58.9 L339.4,58.9 L339.4,58.9 L339.4,58.9 L339.4,58.8 L339.4,58.8 L339.4,58.8 L339.4,58.8 L339.4,58.8 L339.4,58.7 L339.4,58.7 L339.4,58.7 L339.4,58.7 L339.4,58.6 L339.4,58.6 L339.4,58.6 L339.4,58.6 L339.4,58.6 L339.4,58.5 L339.4,58.5 L339.4,58.5 L339.4,58.5 L339.4,58.5 L339.4,58.4 L339.4,58.4 L339.4,58.4 L339.4,58.4 L339.4,58.3 L339.4,58.3 L339.4,58.3 L339.4,58.3 L339.4,58.2 L339.4,58.2 L339.4,58.2 L339.4,58.2 L339.4,58.2 L339.4,58.2 L339.4,58.1 L339.4,58.1 L339.4,58.1 L339.4,58.1 L339.4,58 L339.4,58 L339.4,58 L339.4,58 L339.4,57.9 L339.4,57.9 L339.4,57.9 L339.4,57.9 L339.4,57.9 L339.4,57.8 L339.4,57.8 L339.4,57.8 L339.4,57.8 L339.4,57.7 L339.4,57.7 L339.4,57.7 L339.4,57.7 L339.4,57.6 L339.4,57.6 L339.4,57.6 L339.4,57.6 L339.4,57.5 L339.4,57.5 L339.4,57.5 L339.4,57.5 L339.4,57.5 L339.4,57.4 L339.4,57.4 L339.4,57.4 L339.4,57.4 L339.4,57.4 L339.4,57.3 L339.4,57.3 L339.4,57.3 L339.4,57.3 L339.4,57.2 L339.4,57.2 L339.4,57.1 L339.4,57.1 L339.4,57.1 L339.4,57.1 L339.4,57 L339.4,57 L339.4,57 L339.4,57 L339.4,57 L339.4,57 L339.4,57 L339.4,57 L339.4,56.9 L339.4,56.9 L339.4,56.9 L339.4,56.8 L339.4,56.8 L339.4,56.6 L339.3,56.6 L339.3,56.6 L339.3,56.6 L339.3,56.6 L339.3,56.6 Z M302.6,37.8 C302.2,33.3 298.4,29.7 293.8,29.7 C289.2,29.7 285.4,33.2 284.9,37.8 L302.6,37.8 Z M276,37.8 C276.5,28.4 284.2,20.8 293.8,20.8 C303.3,20.8 311.1,28.3 311.5,37.8 L339.4,37.8 L339.4,52.3 L323,66.2 L322.9,66.3 C322.4,65.6 321.6,65 320.7,65 L314,65 C312.6,65 311.4,66.1 311.4,67.5 L311.4,69.2 L275.9,69.2 L275.9,67.5 C275.9,66.1 274.8,65 273.4,65 L266.6,65 C265.6,65 264.8,65.6 264.4,66.3 L263.8,65.8 L263.8,65.8 L248.1,52.6 L248.1,37.8 L276,37.8 Z" id="Shape" fill="#004A97"></path>
            </g>
        </g>
    </g>
</svg>