<?xml version="1.0" encoding="UTF-8"?>
<svg width="356px" height="138px" viewBox="0 0 356 138" version="1.1" xmlns="http://www.w3.org/2000/svg" xmlns:xlink="http://www.w3.org/1999/xlink">
    <!-- Generator: Sketch 47.1 (45422) - http://www.bohemiancoding.com/sketch -->
    <title>item1</title>
    <desc>Created with Sketch.</desc>
    <defs></defs>
    <g id="Page-1" stroke="none" stroke-width="1" fill="none" fill-rule="evenodd">
        <g id="Tablet" transform="translate(-338.000000, -270.000000)">
            <g id="item1" transform="translate(339.000000, 271.000000)">
                <path d="M38.2284156,56.4695711 L38.2284156,67.5535555 C38.2284156,68.8556453 38.4725538,69.9379913 38.9608375,70.8006258 C39.685125,72.1027156 40.9058159,72.7537508 42.6229469,72.7537508 C44.6818764,72.7537508 46.081602,72.049819 46.8221656,70.6419344 C47.2209306,69.8769566 47.4203102,68.8475073 47.4203102,67.5535555 L47.4203102,56.4695711 L49.8861305,56.4695711 L49.8861305,66.5403719 C49.8861305,68.7457865 49.5890957,70.4425469 48.9950172,71.6307039 C47.9045169,73.7954283 45.8456183,74.8777742 42.8182594,74.8777742 C39.7909005,74.8777742 37.7360708,73.7954283 36.6537086,71.6307039 C36.0596301,70.4425469 35.7625953,68.7457865 35.7625953,66.5403719 L35.7625953,56.4695711 L38.2284156,56.4695711 Z M53.3529273,61.3279695 L55.4403297,61.3279695 L55.4403297,63.1834383 C56.0588224,62.4184605 56.7139265,61.8691496 57.4056617,61.5354891 C58.0973969,61.2018285 58.8664322,61.0350008 59.7127906,61.0350008 C61.5682687,61.0350008 62.8215113,61.681967 63.4725562,62.9759188 C63.830631,63.6839301 64.0096656,64.6971036 64.0096656,66.0154695 L64.0096656,74.4017 L61.7757789,74.4017 L61.7757789,66.1619539 C61.7757789,65.3644239 61.6577788,64.7215267 61.421775,64.233243 C61.031148,63.4194368 60.3231473,63.0125398 59.2977516,63.0125398 C58.7769156,63.0125398 58.3496738,63.0654365 58.0160133,63.1712313 C57.4137967,63.3502686 56.8848307,63.7083379 56.4290992,64.24545 C56.0628865,64.6767673 55.8248517,65.1223194 55.7149879,65.5821199 C55.6051241,66.0419204 55.550193,66.699059 55.550193,67.5535555 L55.550193,74.4017 L53.3529273,74.4017 L53.3529273,61.3279695 Z M67.2567359,61.3890047 L69.4906227,61.3890047 L69.4906227,74.4017 L67.2567359,74.4017 L67.2567359,61.3890047 Z M67.2567359,56.4695711 L69.4906227,56.4695711 L69.4906227,58.9598055 L67.2567359,58.9598055 L67.2567359,56.4695711 Z M73.8851539,61.3279695 L77.3763648,71.9725008 L81.0262672,61.3279695 L83.4310523,61.3279695 L78.4994117,74.4017 L76.1556617,74.4017 L71.3338844,61.3279695 L73.8851539,61.3279695 Z M93.453025,61.688077 C94.3237976,62.1234632 94.9870396,62.6870156 95.4427711,63.3787508 C95.8822264,64.0379338 96.1751922,64.806969 96.3216773,65.6858797 C96.4518863,66.2880962 96.5169898,67.2483731 96.5169898,68.5667391 L86.9344703,68.5667391 C86.9751606,69.8932431 87.2884713,70.9572787 87.8744117,71.7588777 C88.4603521,72.5604768 89.3677324,72.9612703 90.5965797,72.9612703 C91.7440464,72.9612703 92.6595646,72.5828561 93.3431617,71.8260164 C93.7337887,71.3865611 94.0104786,70.8779399 94.1732398,70.3001375 L96.3338844,70.3001375 C96.2769179,70.7802831 96.0877109,71.3153526 95.7662574,71.9053621 C95.444804,72.4953716 95.0847002,72.9775445 94.6859352,73.3518953 C94.0186141,74.0029402 93.1926133,74.442389 92.2079078,74.6702547 C91.6789338,74.8004637 91.0807953,74.8655672 90.4134742,74.8655672 C88.7858619,74.8655672 87.4064812,74.2735321 86.2752906,73.0894441 C85.1441001,71.9053562 84.5785133,70.247251 84.5785133,68.1150789 C84.5785133,66.015459 85.148169,64.3105607 86.2874977,63.0003328 C87.4268263,61.6901049 88.9160692,61.0350008 90.7552711,61.0350008 C91.6830101,61.0350008 92.5822524,61.2526907 93.453025,61.688077 Z M94.2586891,66.8211336 C94.1691704,65.8689804 93.9616529,65.1080831 93.6361305,64.5384188 C93.0339139,63.4804708 92.0288784,62.9515047 90.6209937,62.9515047 C89.6118741,62.9515047 88.7655284,63.3156775 88.0819312,64.044034 C87.3983341,64.7723905 87.0361958,65.6980811 86.9955055,66.8211336 L94.2586891,66.8211336 Z M99.2757789,61.3279695 L101.363181,61.3279695 L101.363181,63.5862703 C101.534081,63.146815 101.953184,62.6117455 102.620505,61.9810457 C103.287827,61.3503459 104.056862,61.0350008 104.927634,61.0350008 C104.968325,61.0350008 105.037497,61.0390698 105.135154,61.0472078 C105.232811,61.0553459 105.399638,61.0716218 105.635642,61.0960359 L105.635642,63.4153719 C105.505433,63.3909577 105.385399,63.3746818 105.275535,63.3665438 C105.165671,63.3584057 105.045636,63.3543367 104.915427,63.3543367 C103.808651,63.3543367 102.958236,63.7103716 102.364158,64.422452 C101.770079,65.1345323 101.473045,65.9544297 101.473045,66.8821688 L101.473045,74.4017 L99.2757789,74.4017 L99.2757789,61.3279695 Z M108.846091,70.3001375 C108.911196,71.032563 109.0943,71.5940809 109.395408,71.9847078 C109.948796,72.6927192 110.909073,73.0467195 112.276267,73.0467195 C113.090073,73.0467195 113.806212,72.8697193 114.424705,72.5157137 C115.043197,72.161708 115.352439,71.6144316 115.352439,70.873868 C115.352439,70.3123417 115.104232,69.8850999 114.60781,69.5921297 C114.290426,69.4130923 113.663804,69.2055749 112.727927,68.9695711 L110.982322,68.530118 C109.867407,68.2534239 109.045476,67.9441822 108.516502,67.6023836 C107.572486,67.0083051 107.100486,66.1863732 107.100486,65.1365633 C107.100486,63.8995779 107.546038,62.8986114 108.437156,62.1336336 C109.328274,61.3686558 110.526585,60.9861727 112.032127,60.9861727 C114.001537,60.9861727 115.421608,61.5639664 116.29238,62.7195711 C116.837631,63.4519966 117.102114,64.2413768 117.085837,65.0877352 L115.010642,65.0877352 C114.969952,64.5913134 114.794986,64.1396578 114.48574,63.7327547 C113.98118,63.1549523 113.106352,62.8660555 111.861228,62.8660555 C111.031146,62.8660555 110.40249,63.0247453 109.975242,63.3421297 C109.547994,63.6595141 109.334373,64.078618 109.334373,64.5994539 C109.334373,65.1691182 109.615132,65.6248428 110.176658,65.9666414 C110.50218,66.1700929 110.982319,66.3491276 111.617087,66.5037508 L113.069724,66.8577547 C114.648508,67.2402436 115.70644,67.6105198 116.243552,67.9685945 C117.098049,68.5301208 117.525291,69.4130872 117.525291,70.6175203 C117.525291,71.7812631 117.083807,72.7862986 116.200828,73.632657 C115.317848,74.4790154 113.973054,74.9021883 112.166404,74.9021883 C110.221407,74.9021883 108.844061,74.4607051 108.034324,73.5777254 C107.224587,72.6947457 106.791241,71.6022273 106.734275,70.3001375 L108.846091,70.3001375 Z M120.039939,61.3890047 L122.273826,61.3890047 L122.273826,74.4017 L120.039939,74.4017 L120.039939,61.3890047 Z M120.039939,56.4695711 L122.273826,56.4695711 L122.273826,58.9598055 L120.039939,58.9598055 L120.039939,56.4695711 Z M127.876853,71.5330477 C128.470932,72.4770628 129.423071,72.9490633 130.733298,72.9490633 C131.750556,72.9490633 132.586729,72.511649 133.241843,71.6368074 C133.896957,70.7619658 134.224509,69.5066886 134.224509,67.8709383 C134.224509,66.2189118 133.886785,64.9961864 133.211326,64.2027254 C132.535867,63.4092644 131.701728,63.0125398 130.708884,63.0125398 C129.602108,63.0125398 128.7049,63.4357127 128.017234,64.2820711 C127.329568,65.1284295 126.98574,66.3735342 126.98574,68.0174227 C126.98574,69.4171692 127.282775,70.5890325 127.876853,71.5330477 Z M132.808494,61.7308016 C133.199121,61.9749434 133.642638,62.4021852 134.13906,63.0125398 L134.13906,56.4085359 L136.250877,56.4085359 L136.250877,74.4017 L134.273337,74.4017 L134.273337,72.5828523 C133.76064,73.3885204 133.154363,73.9703831 132.45449,74.3284578 C131.754617,74.6865325 130.95303,74.8655672 130.049705,74.8655672 C128.592992,74.8655672 127.331611,74.2531872 126.265525,73.028409 C125.199439,71.8036307 124.666404,70.1740083 124.666404,68.139493 C124.666404,66.2351866 125.152646,64.5852193 126.125144,63.1895418 C127.097642,61.7938642 128.487196,61.0960359 130.293845,61.0960359 C131.294827,61.0960359 132.133035,61.3076224 132.808494,61.7308016 Z M141.878318,72.4241609 C142.342187,72.7903737 142.891498,72.9734773 143.526267,72.9734773 C144.299383,72.9734773 145.048073,72.7944427 145.772361,72.436368 C146.99307,71.8422895 147.603416,70.8698057 147.603416,69.5188875 L147.603416,67.748868 C147.33486,67.9197673 146.988997,68.0621812 146.565818,68.1761141 C146.142639,68.2900469 145.727604,68.3714263 145.320701,68.4202547 L143.990134,68.5911531 C143.192604,68.6969479 142.594466,68.8637757 142.195701,69.0916414 C141.520242,69.4741303 141.182517,70.0844758 141.182517,70.9226961 C141.182517,71.5574649 141.414448,72.0579482 141.878318,72.4241609 Z M146.504783,66.4793367 C147.009343,66.4142322 147.347067,66.2026458 147.517966,65.8445711 C147.615623,65.6492576 147.664451,65.3684987 147.664451,65.0022859 C147.664451,64.2535843 147.397933,63.7103768 146.86489,63.3726473 C146.331847,63.0349177 145.568915,62.8660555 144.576072,62.8660555 C143.428605,62.8660555 142.614811,63.1752972 142.134666,63.7937898 C141.86611,64.1355884 141.691144,64.6442096 141.609763,65.3196688 L139.558982,65.3196688 C139.599672,63.7083326 140.122535,62.5873314 141.127586,61.9566316 C142.132636,61.3259319 143.298396,61.0105867 144.6249,61.0105867 C146.162994,61.0105867 147.412167,61.3035525 148.372459,61.889493 C149.324612,62.4754334 149.800681,63.3868826 149.800681,64.623868 L149.800681,72.1556063 C149.800681,72.383472 149.847474,72.5665756 149.941062,72.7049227 C150.03465,72.8432697 150.231995,72.9124422 150.533103,72.9124422 C150.63076,72.9124422 150.740622,72.9063387 150.862693,72.8941316 C150.984764,72.8819245 151.114971,72.8636142 151.253318,72.8392 L151.253318,74.4627352 C150.911519,74.5603919 150.651105,74.6214264 150.472068,74.6458406 C150.293031,74.6702548 150.048892,74.6824617 149.739646,74.6824617 C148.982806,74.6824617 148.433495,74.4139097 148.091697,73.8767977 C147.91266,73.5919655 147.786521,73.1891375 147.713279,72.6683016 C147.265686,73.254242 146.622788,73.7628632 145.784568,74.1941805 C144.946348,74.6254977 144.022692,74.8411531 143.013572,74.8411531 C141.801001,74.8411531 140.810207,74.4729114 140.04116,73.7364168 C139.272113,72.9999222 138.887595,72.0783006 138.887595,70.9715242 C138.887595,69.7589531 139.266009,68.819021 140.022849,68.1517 C140.779689,67.484379 141.772518,67.073413 143.001365,66.9187898 L146.504783,66.4793367 Z M155.68447,71.5330477 C156.278549,72.4770628 157.230688,72.9490633 158.540916,72.9490633 C159.558173,72.9490633 160.394347,72.511649 161.049461,71.6368074 C161.704574,70.7619658 162.032127,69.5066886 162.032127,67.8709383 C162.032127,66.2189118 161.694402,64.9961864 161.018943,64.2027254 C160.343484,63.4092644 159.509345,63.0125398 158.516502,63.0125398 C157.409725,63.0125398 156.512517,63.4357127 155.824851,64.2820711 C155.137185,65.1284295 154.793357,66.3735342 154.793357,68.0174227 C154.793357,69.4171692 155.090392,70.5890325 155.68447,71.5330477 Z M160.616111,61.7308016 C161.006738,61.9749434 161.450256,62.4021852 161.946677,63.0125398 L161.946677,56.4085359 L164.058494,56.4085359 L164.058494,74.4017 L162.080955,74.4017 L162.080955,72.5828523 C161.568257,73.3885204 160.96198,73.9703831 160.262107,74.3284578 C159.562234,74.6865325 158.760647,74.8655672 157.857322,74.8655672 C156.400609,74.8655672 155.139228,74.2531872 154.073142,73.028409 C153.007056,71.8036307 152.474021,70.1740083 152.474021,68.139493 C152.474021,66.2351866 152.960263,64.5852193 153.932761,63.1895418 C154.90526,61.7938642 156.294813,61.0960359 158.101462,61.0960359 C159.102444,61.0960359 159.940652,61.3076224 160.616111,61.7308016 Z" id="Universidad" fill="#004A97"></path>
                <path d="M353.3,129.4 C353.3,132.7 350.6,135.4 347.3,135.4 L6.7,135.4 C3.4,135.4 0.7,132.7 0.7,129.4 L0.7,6.1 C0.7,2.8 3.4,0.1 6.7,0.1 L347.4,0.1 C350.7,0.1 353.4,2.8 353.4,6.1 L353.4,129.4 L353.3,129.4 Z" id="Shape" stroke="#005283" stroke-width="2"></path>
                <path d="M268.1,19.8 L268.7,19.8 C268.7,20.4 271.3,20.8 272.2,19.8 C273.4,18.5 275.6,19.8 275.6,19.8 L275.6,23.7 C275.6,23.7 273.8,22.3 272.2,23.7 C270.9,24.9 269.4,24.3 268.8,23.9 C268.8,24.5 268.8,26 268.8,27.1 L268.2,27.1 C268.1,24.9 268.1,22.4 268.1,19.8 L268.1,19.8 Z M300.6,53.2 L317.9,53.3 C318,53.3 318.1,53.4 318.1,53.5 L318.1,88 C303.1,88 288,88.1 273,88.1 L273,76.5 L263.9,76.5 L263.9,87.9 L238.4,87.9 L238.4,87.9 L236.3,87.9 L236.3,87.9 L218.8,87.9 L218.8,53.6 C218.8,53.4 218.9,53.3 219.1,53.3 L235.2,53.3 L236.2,53.3 L236.2,53.3 L236.3,53.3 C236.3,51.4 236.3,49.6 236.3,47.7 C236.3,46 237.7,44.6 239.4,44.6 L254.1,44.6 L254.1,35.6 C254.1,34.8 254.6,34 255.3,33.6 C262.7,29.5 265.5,27.3 267.9,27 C268.2,26.9 268.5,26.9 268.8,26.9 C271.2,27.2 273.9,29.4 281.5,33.6 C282.2,34.1 282.7,34.8 282.7,35.6 L282.7,44.6 L297.4,44.6 C299.2,44.6 300.6,46 300.6,47.7 L300.6,53.2 Z M220.8,60.8 L225.5,60.8 L225.5,64.5 L220.8,64.5 L220.8,60.8 Z M229.1,60.8 L233.8,60.8 L233.8,64.5 L229.1,64.5 L229.1,60.8 Z M221,68.8 L225.7,68.8 L225.7,72.5 L221,72.5 L221,68.8 Z M229.4,68.8 L234,68.8 L234,72.5 L229.4,72.5 L229.4,68.8 Z M221.3,76.6 L225.9,76.6 L225.9,80.4 L221.3,80.4 L221.3,76.6 Z M229.5,76.6 L234.1,76.6 L234.1,80.4 L229.5,80.4 L229.5,76.6 Z M302.6,60.8 L307.3,60.8 L307.3,64.5 L302.6,64.5 L302.6,60.8 Z M310.9,60.8 L315.6,60.8 L315.6,64.5 L310.9,64.5 L310.9,60.8 Z M302.9,68.8 L307.5,68.8 L307.5,72.5 L302.9,72.5 L302.9,68.8 Z M311.2,68.8 L315.8,68.8 L315.8,72.5 L311.2,72.5 L311.2,68.8 Z M303.1,76.6 L307.8,76.6 L307.8,80.4 L303.1,80.4 L303.1,76.6 Z M311.3,76.6 L316,76.6 L316,80.4 L311.3,80.4 L311.3,76.6 Z M279.7,89.5 C279.7,89.7 279.6,89.8 279.4,89.8 L257.3,89.8 C257.1,89.8 257,89.7 257,89.5 L257,88.9 C257,88.7 257.1,88.6 257.3,88.6 L279.4,88.6 C279.6,88.6 279.7,88.7 279.7,88.9 L279.7,89.5 Z M281.4,91.5 C281.4,91.6 281.3,91.8 281.1,91.8 L255.6,91.8 C255.5,91.8 255.3,91.6 255.3,91.5 L255.3,90.8 C255.3,90.6 255.5,90.5 255.6,90.5 L281.1,90.5 C281.3,90.5 281.4,90.6 281.4,90.8 L281.4,91.5 Z M268.5,33.9 L268.5,33.9 C265.4,33.9 263,36.4 263,39.5 C263,42.6 265.4,45 268.5,45 C271.6,45 274.1,42.6 274.1,39.5 C274,36.4 271.5,33.9 268.5,33.9 L268.5,33.9 Z M268.5,43.8 L268.5,43.8 C266.1,43.8 264.1,41.9 264.1,39.4 C264.1,36.9 266,35 268.5,35 C271,35 272.9,36.9 272.9,39.4 C272.9,41.9 271,43.8 268.5,43.8 L268.5,43.8 Z M265.8,36.4 L265.8,36.4 L266.6,37.2 L266.2,37.6 L265.4,36.8 L265.8,36.4 Z M268.2,35.4 L268.2,35.4 L268.8,35.4 L268.8,36.6 L268.2,36.6 L268.2,35.4 Z M268.7,43.6 L268.7,43.6 L268.1,43.6 L268.1,42.4 L268.7,42.4 L268.7,43.6 Z M265.8,42.5 L265.8,42.5 L265.4,42.1 L266.2,41.3 L266.6,41.7 L265.8,42.5 Z M270.4,38.1 L270.4,38.1 C270.4,38 270.3,38 270.2,38 L268.7,39.1 C268.6,39.1 268.6,39.1 268.5,39.1 L268.4,39.1 L267.4,38.2 C267.3,38.1 267.2,38.1 267.1,38.2 L267.1,38.3 C267,38.4 267,38.5 267.1,38.5 L268.1,39.4 L268.1,39.4 C268.1,39.6 268.3,39.8 268.5,39.8 L268.5,41.7 L268.6,41.7 L268.6,39.8 C268.7,39.8 268.9,39.6 268.9,39.4 L268.9,39.4 L270.4,38.3 C270.5,38.3 270.5,38.2 270.4,38.1 L270.4,38.1 Z M265.6,39.2 L265.6,39.7 L264.4,39.7 L264.4,39.2 L265.6,39.2 Z M272.5,39.2 L272.5,39.2 L272.5,39.7 L271.4,39.7 L271.4,39.2 L272.5,39.2 Z M270.7,41.3 L270.7,41.3 L271.5,42.1 L271.1,42.5 L270.3,41.7 L270.7,41.3 Z M271.1,36.4 L271.1,36.4 L271.5,36.8 L270.7,37.6 L270.3,37.2 L271.1,36.4 Z M287.6,56.2 L294.9,56.2 L294.9,62 L287.6,62 L287.6,56.2 Z M277.7,64.6 L285.1,64.6 L285.1,70.4 L277.7,70.4 L277.7,64.6 Z M287.6,64.6 L294.9,64.6 L294.9,70.4 L287.6,70.4 L287.6,64.6 Z M277.7,56.2 L285.1,56.2 L285.1,62 L277.7,62 L277.7,56.2 Z M277.7,73.1 L285.1,73.1 L285.1,78.9 L277.7,78.9 L277.7,73.1 Z M287.6,73.1 L294.9,73.1 L294.9,78.9 L287.6,78.9 L287.6,73.1 Z M251.8,56.2 L259.2,56.2 L259.2,62 L251.8,62 L251.8,56.2 L251.8,56.2 Z M242,64.6 L249.3,64.6 L249.3,70.4 L242,70.4 L242,64.6 Z M251.8,64.6 L259.2,64.6 L259.2,70.4 L251.8,70.4 L251.8,64.6 L251.8,64.6 Z M242,56.2 L249.3,56.2 L249.3,62 L242,62 L242,56.2 Z M242,73.1 L249.3,73.1 L249.3,78.9 L242,78.9 L242,73.1 Z M251.8,73.1 L259.2,73.1 L259.2,78.9 L251.8,78.9 L251.8,73.1 L251.8,73.1 Z" id="Shape" fill="#004A97"></path>
            </g>
        </g>
    </g>
</svg>