<?xml version="1.0" encoding="UTF-8"?>
<svg width="356px" height="138px" viewBox="0 0 356 138" version="1.1" xmlns="http://www.w3.org/2000/svg" xmlns:xlink="http://www.w3.org/1999/xlink">
    <!-- Generator: Sketch 47.1 (45422) - http://www.bohemiancoding.com/sketch -->
    <title>item2</title>
    <desc>Created with Sketch.</desc>
    <defs></defs>
    <g id="Page-1" stroke="none" stroke-width="1" fill="none" fill-rule="evenodd">
        <g id="Tablet" transform="translate(-250.000000, -584.000000)">
            <g id="item2" transform="translate(251.000000, 585.000000)">
                <path d="M43.1440133,56.4695711 L45.5976266,56.4695711 L45.5976266,74.4017 L43.1440133,74.4017 L43.1440133,56.4695711 Z M49.7724313,56.4695711 L57.8412789,56.4695711 C59.436339,56.4695711 60.7221334,56.9191922 61.6987008,57.818448 C62.6752682,58.7177038 63.1635445,59.9811189 63.1635445,61.6087313 C63.1635445,63.0084778 62.7281648,64.2271343 61.8573922,65.2647371 C60.9866196,66.30234 59.6479286,66.8211336 57.8412789,66.8211336 L52.2016305,66.8211336 L52.2016305,74.4017 L49.7724313,74.4017 L49.7724313,56.4695711 Z M59.2450875,58.9353914 C58.7079754,58.6831115 57.9714919,58.5569734 57.0356148,58.5569734 L52.2016305,58.5569734 L52.2016305,64.7703523 L57.0356148,64.7703523 C58.1261151,64.7703523 59.011116,64.5384211 59.6906441,64.0745516 C60.3701723,63.6106821 60.7099313,62.7928191 60.7099313,61.6209383 C60.7099313,60.3025723 60.2216549,59.407399 59.2450875,58.9353914 Z M71.9404,69.0550203 L71.9404,67.0042391 L77.2626656,67.0042391 L77.2626656,61.6453523 L79.350068,61.6453523 L79.350068,67.0042391 L84.6723336,67.0042391 L84.6723336,69.0550203 L79.350068,69.0550203 L79.350068,74.4017 L77.2626656,74.4017 L77.2626656,69.0550203 L71.9404,69.0550203 Z M107.108857,57.7757234 C108.362119,58.9720185 109.057912,60.3310544 109.196259,61.8528719 L106.828095,61.8528719 C106.559539,60.6972671 106.02447,59.781749 105.222871,59.1062898 C104.421272,58.4308307 103.296202,58.0931063 101.847627,58.0931063 C100.081667,58.0931063 98.6554933,58.7136241 97.5690621,59.9546785 C96.4826309,61.1957329 95.9394234,63.0979762 95.9394234,65.6614656 C95.9394234,67.7610855 96.4297343,69.4639493 97.4103707,70.7701082 C98.3910071,72.0762671 99.8538017,72.7293367 101.798798,72.7293367 C103.589172,72.7293367 104.952277,72.0416808 105.888154,70.6663484 C106.384576,69.942061 106.754852,68.989922 106.998994,67.8099031 L109.367158,67.8099031 C109.155568,69.6979334 108.455705,71.2807626 107.267548,72.5584383 C105.843388,74.0965319 103.922834,74.8655672 101.50583,74.8655672 C99.4224859,74.8655672 97.672829,74.2348769 96.2568063,72.9734773 C94.3931902,71.3051747 93.4613961,68.7295169 93.4613961,65.2464266 C93.4613961,62.6015566 94.1612589,60.4327957 95.5610055,58.7400789 C97.0746849,56.900877 99.1620664,55.9812898 101.823213,55.9812898 C104.093732,55.9812898 105.855596,56.5794284 107.108857,57.7757234 Z M112.553193,56.4695711 L124.992158,56.4695711 L124.992158,58.6668367 L114.982392,58.6668367 L114.982392,64.1111727 L123.783662,64.1111727 L123.783662,66.2474031 L114.982392,66.2474031 L114.982392,74.4017 L112.553193,74.4017 L112.553193,56.4695711 Z M140.641572,56.4695711 L140.641572,58.6058016 L134.599091,58.6058016 L134.599091,74.4017 L132.133271,74.4017 L132.133271,58.6058016 L126.090791,58.6058016 L126.090791,56.4695711 L140.641572,56.4695711 Z" id="IP-+-CFT" fill="#004A97"></path>
                <path d="M353.3,129.4 C353.3,132.7 350.6,135.4 347.3,135.4 L6.7,135.4 C3.4,135.4 0.7,132.7 0.7,129.4 L0.7,6.1 C0.7,2.8 3.4,0.1 6.7,0.1 L347.4,0.1 C350.7,0.1 353.4,2.8 353.4,6.1 L353.4,129.4 L353.3,129.4 Z" id="Shape" stroke="#005283" stroke-width="2"></path>
                <path d="M235.6,38.3 L233.7,38.6 L227.9,34.5 L229.2,34.5 L229.8,34.4 L268.2,30.3 L266.8,28.3 L224.2,32.7 L224.2,33.4 L224.2,35 L224.2,89.5 L231.9,94.9 L231.9,94.9 L237.2,94.5 L237.2,41 L239.5,40.9 L272.4,37.6 L272.4,34.6 L235.6,38.3 Z M283.1,41.9 L283.1,41.5 L246,45.6 L246.6,45.9 L283.1,41.9 Z M299.7,52.7 L262.6,56.8 L262.6,56.8 L262,56.8 L262.6,57.2 L298.7,53.2 L298.7,53.2 L299.7,53.1 L299.7,52.7 L299.7,52.7 Z M300.9,56 L300.9,56 L301.9,55.9 L301.9,55.6 L266.2,59.5 L266.2,59.5 L265.6,59.5 L266.2,59.9 L300.9,56 Z M263.9,57.7 L263.3,57.8 L263.9,58.1 L264.5,58.1 L264.5,58.1 L292,55 L299.6,54.1 L300.6,54.1 L300.6,53.7 L263.9,57.7 L263.9,57.7 Z M276.3,57.3 L264.6,58.6 L265.2,59 L265.6,59 L265.6,59 L297.7,55.4 L300.1,55.1 L301.2,55 L301.1,54.6 L276.3,57.3 Z M284,42.9 L283.9,42.5 L247.5,46.5 L247.9,46.9 L284,42.9 Z M284.5,43.9 L284.5,43.5 L248.6,47.3 L249.2,47.7 L284.5,43.9 Z M285.4,44.7 L285.3,44.3 L249.9,48.2 L250.3,48.5 L285.4,44.7 Z M268.1,32.2 L268,31.9 L231.9,35.9 L232.5,36.2 L268.1,32.2 Z M267.3,31.3 L267.2,30.9 L230.7,34.9 L231.3,35.3 L267.3,31.3 Z M268.7,32.7 L233.2,36.5 L233.6,36.9 L268.7,33 L268.7,32.7 Z M269.4,34 L269.4,33.6 L234.3,37.5 L234.9,37.9 L269.4,34 Z M266.1,60.4 L265.4,59.8 L264.8,59.5 L264.2,59.1 L263.6,58.7 L262.9,58.3 L262.5,57.9 L261.6,57.3 L261,57 L260.1,56.4 L261.4,56.3 L300.8,52 L299.1,50 L256.3,54.6 L256.3,55.2 L256.3,56.9 L256.3,111.2 L264.1,116.6 L264.1,116.7 L304.5,112.6 L304.5,56.6 L266.1,60.4 Z M271.8,85.2 L271.5,68.8 L296.5,66.7 L271.8,85.2 Z M252,20.6 L252,20.3 L215.9,24.3 L216.3,24.6 L252,20.6 Z M251.2,19.8 L251.2,19.4 L214.7,23.4 L215.1,23.8 L251.2,19.8 Z M252.7,21.2 L217,25.2 L217.6,25.5 L252.7,21.7 L252.7,21.2 Z M253.4,22.5 L253.4,22 L218.3,25.8 L218.7,26.2 L253.4,22.5 Z M219.9,26.7 L217.9,26.8 L212.1,22.8 L213.4,22.7 L214,22.7 L252.5,18.4 L251.1,16.4 L208.2,21 L208.2,21.6 L208.2,23.3 L208.2,77.6 L216,83.2 L216,83.2 L221.3,82.6 L221.3,29.5 L223.4,29.2 L256.3,26.1 L256.3,23.1 L219.9,26.7 Z M251.2,49 L249.6,49.1 L243.8,45.1 L245,45 L245.1,45 L284,40.7 L282.6,38.7 L242.3,43 L239.9,43.3 L239.9,43.9 L239.9,45.6 L239.9,99.9 L247.6,105.5 L247.6,105.5 L252.9,104.9 L252.9,51.7 L254.9,51.6 L288.1,48.3 L288.1,45.3 L251.2,49 Z" id="Shape" fill="#004A97"></path>
            </g>
        </g>
    </g>
</svg>