<?xml version="1.0" encoding="utf-8"?>
<!-- Generator: Adobe Illustrator 18.1.1, SVG Export Plug-In . SVG Version: 6.00 Build 0)  -->
<svg version="1.1" id="Layer_1" xmlns="http://www.w3.org/2000/svg" xmlns:xlink="http://www.w3.org/1999/xlink" x="0px" y="0px"
	 viewBox="0 0 356 139.5" enable-background="new 0 0 356 139.5" xml:space="preserve">
<g>
	<rect x="34.7" y="57.5" fill="none" width="215.8" height="34.5"/>
	<text transform="matrix(1 0 0 1 34.6874 76.4017)" fill="#004A97" font-family="'Avenir-Medium'" font-size="25">Universidad</text>
	<path fill="none" stroke="#005283" stroke-width="2" stroke-miterlimit="10" d="M354.3,131.4c0,3.3-2.7,6-6,6H7.7c-3.3,0-6-2.7-6-6
		V8.1c0-3.3,2.7-6,6-6h340.7c3.3,0,6,2.7,6,6V131.4z"/>
	<path fill-rule="evenodd" clip-rule="evenodd" fill="#004A97" d="M269.1,21.8h0.6c0,0.6,2.6,1,3.5,0c1.2-1.3,3.4,0,3.4,0v3.9
		c0,0-1.8-1.4-3.4,0c-1.3,1.2-2.8,0.6-3.4,0.2c0,0.6,0,2.1,0,3.2h-0.6C269.1,26.9,269.1,24.4,269.1,21.8L269.1,21.8z M301.6,55.2
		l17.3,0.1c0.1,0,0.2,0.1,0.2,0.2v34.5c-15,0-30.1,0.1-45.1,0.1V78.5h-9.1v11.4h-25.5l0,0h-2.1l0,0h-17.5V55.6
		c0-0.2,0.1-0.3,0.3-0.3h16.1h1l0,0h0.1c0-1.9,0-3.7,0-5.6c0-1.7,1.4-3.1,3.1-3.1h14.7v-9c0-0.8,0.5-1.6,1.2-2
		c7.4-4.1,10.2-6.3,12.6-6.6c0.3-0.1,0.6-0.1,0.9-0.1c2.4,0.3,5.1,2.5,12.7,6.7c0.7,0.5,1.2,1.2,1.2,2v9h14.7c1.8,0,3.2,1.4,3.2,3.1
		L301.6,55.2z M221.8,62.8h4.7v3.7h-4.7V62.8z M230.1,62.8h4.7v3.7h-4.7V62.8z M222,70.8h4.7v3.7H222V70.8z M230.4,70.8h4.6v3.7
		h-4.6V70.8z M222.3,78.6h4.6v3.8h-4.6V78.6z M230.5,78.6h4.6v3.8h-4.6V78.6z M303.6,62.8h4.7v3.7h-4.7V62.8z M311.9,62.8h4.7v3.7
		h-4.7V62.8z M303.9,70.8h4.6v3.7h-4.6V70.8z M312.2,70.8h4.6v3.7h-4.6V70.8z M304.1,78.6h4.7v3.8h-4.7V78.6z M312.3,78.6h4.7v3.8
		h-4.7V78.6z M280.7,91.5c0,0.2-0.1,0.3-0.3,0.3h-22.1c-0.2,0-0.3-0.1-0.3-0.3v-0.6c0-0.2,0.1-0.3,0.3-0.3h22.1
		c0.2,0,0.3,0.1,0.3,0.3V91.5z M282.4,93.5c0,0.1-0.1,0.3-0.3,0.3h-25.5c-0.1,0-0.3-0.2-0.3-0.3v-0.7c0-0.2,0.2-0.3,0.3-0.3h25.5
		c0.2,0,0.3,0.1,0.3,0.3V93.5z M269.5,35.9L269.5,35.9c-3.1,0-5.5,2.5-5.5,5.6c0,3.1,2.4,5.5,5.5,5.5c3.1,0,5.6-2.4,5.6-5.5
		C275,38.4,272.5,35.9,269.5,35.9L269.5,35.9z M269.5,45.8L269.5,45.8c-2.4,0-4.4-1.9-4.4-4.4c0-2.5,1.9-4.4,4.4-4.4
		c2.5,0,4.4,1.9,4.4,4.4C273.9,43.9,272,45.8,269.5,45.8L269.5,45.8z M266.8,38.4L266.8,38.4l0.8,0.8l-0.4,0.4l-0.8-0.8L266.8,38.4z
		 M269.2,37.4L269.2,37.4h0.6v1.2h-0.6V37.4z M269.7,45.6L269.7,45.6h-0.6v-1.2h0.6V45.6z M266.8,44.5L266.8,44.5l-0.4-0.4l0.8-0.8
		l0.4,0.4L266.8,44.5z M271.4,40.1L271.4,40.1c0-0.1-0.1-0.1-0.2-0.1l-1.5,1.1c-0.1,0-0.1,0-0.2,0h-0.1l-1-0.9
		c-0.1-0.1-0.2-0.1-0.3,0v0.1c-0.1,0.1-0.1,0.2,0,0.2l1,0.9l0,0c0,0.2,0.2,0.4,0.4,0.4v1.9h0.1v-1.9c0.1,0,0.3-0.2,0.3-0.4l0,0
		l1.5-1.1C271.5,40.3,271.5,40.2,271.4,40.1L271.4,40.1z M266.6,41.2v0.5h-1.2v-0.5H266.6z M273.5,41.2L273.5,41.2v0.5h-1.1v-0.5
		H273.5z M271.7,43.3L271.7,43.3l0.8,0.8l-0.4,0.4l-0.8-0.8L271.7,43.3z M272.1,38.4L272.1,38.4l0.4,0.4l-0.8,0.8l-0.4-0.4
		L272.1,38.4z M288.6,58.2h7.3V64h-7.3V58.2z M278.7,66.6h7.4v5.8h-7.4V66.6z M288.6,66.6h7.3v5.8h-7.3V66.6z M278.7,58.2h7.4V64
		h-7.4V58.2z M278.7,75.1h7.4v5.8h-7.4V75.1z M288.6,75.1h7.3v5.8h-7.3V75.1z M252.8,58.2h7.4V64h-7.4V58.2z M243,66.6h7.3v5.8H243
		V66.6z M252.8,66.6h7.4v5.8h-7.4V66.6z M243,58.2h7.3V64H243V58.2z M243,75.1h7.3v5.8H243V75.1z M252.8,75.1h7.4v5.8h-7.4V75.1z"/>
</g>
</svg>
