<?xml version="1.0" encoding="UTF-8"?>
<svg width="356px" height="138px" viewBox="0 0 356 138" version="1.1" xmlns="http://www.w3.org/2000/svg" xmlns:xlink="http://www.w3.org/1999/xlink">
    <!-- Generator: Sketch 47.1 (45422) - http://www.bohemiancoding.com/sketch -->
    <title>item1</title>
    <desc>Created with Sketch.</desc>
    <defs></defs>
    <g id="Page-1" stroke="none" stroke-width="1" fill="none" fill-rule="evenodd">
        <g id="Tablet" transform="translate(-73.000000, -448.000000)">
            <g id="item1" transform="translate(74.000000, 449.000000)">
                <path d="M38.4599156,56.7485711 L38.4599156,67.8325555 C38.4599156,69.1346453 38.7040538,70.2169913 39.1923375,71.0796258 C39.916625,72.3817156 41.1373159,73.0327508 42.8544469,73.0327508 C44.9133764,73.0327508 46.313102,72.328819 47.0536656,70.9209344 C47.4524306,70.1559566 47.6518102,69.1265073 47.6518102,67.8325555 L47.6518102,56.7485711 L50.1176305,56.7485711 L50.1176305,66.8193719 C50.1176305,69.0247865 49.8205957,70.7215469 49.2265172,71.9097039 C48.1360169,74.0744283 46.0771183,75.1567742 43.0497594,75.1567742 C40.0224005,75.1567742 37.9675708,74.0744283 36.8852086,71.9097039 C36.2911301,70.7215469 35.9940953,69.0247865 35.9940953,66.8193719 L35.9940953,56.7485711 L38.4599156,56.7485711 Z M53.5844273,61.6069695 L55.6718297,61.6069695 L55.6718297,63.4624383 C56.2903224,62.6974605 56.9454265,62.1481496 57.6371617,61.8144891 C58.3288969,61.4808285 59.0979322,61.3140008 59.9442906,61.3140008 C61.7997687,61.3140008 63.0530113,61.960967 63.7040563,63.2549188 C64.062131,63.9629301 64.2411656,64.9761036 64.2411656,66.2944695 L64.2411656,74.6807 L62.0072789,74.6807 L62.0072789,66.4409539 C62.0072789,65.6434239 61.8892788,65.0005267 61.653275,64.512243 C61.262648,63.6984368 60.5546473,63.2915398 59.5292516,63.2915398 C59.0084156,63.2915398 58.5811738,63.3444365 58.2475133,63.4502313 C57.6452967,63.6292686 57.1163307,63.9873379 56.6605992,64.52445 C56.2943865,64.9557673 56.0563517,65.4013194 55.9464879,65.8611199 C55.8366241,66.3209204 55.781693,66.978059 55.781693,67.8325555 L55.781693,74.6807 L53.5844273,74.6807 L53.5844273,61.6069695 Z M67.4882359,61.6680047 L69.7221227,61.6680047 L69.7221227,74.6807 L67.4882359,74.6807 L67.4882359,61.6680047 Z M67.4882359,56.7485711 L69.7221227,56.7485711 L69.7221227,59.2388055 L67.4882359,59.2388055 L67.4882359,56.7485711 Z M74.1166539,61.6069695 L77.6078648,72.2515008 L81.2577672,61.6069695 L83.6625523,61.6069695 L78.7309117,74.6807 L76.3871617,74.6807 L71.5653844,61.6069695 L74.1166539,61.6069695 Z M93.684525,61.967077 C94.5552976,62.4024632 95.2185396,62.9660156 95.6742711,63.6577508 C96.1137264,64.3169338 96.4066922,65.085969 96.5531773,65.9648797 C96.6833863,66.5670962 96.7484898,67.5273731 96.7484898,68.8457391 L87.1659703,68.8457391 C87.2066606,70.1722431 87.5199713,71.2362787 88.1059117,72.0378777 C88.6918521,72.8394768 89.5992324,73.2402703 90.8280797,73.2402703 C91.9755464,73.2402703 92.8910646,72.8618561 93.5746617,72.1050164 C93.9652887,71.6655611 94.2419786,71.1569399 94.4047398,70.5791375 L96.5653844,70.5791375 C96.5084179,71.0592831 96.3192109,71.5943526 95.9977574,72.1843621 C95.676304,72.7743716 95.3162002,73.2565445 94.9174352,73.6308953 C94.2501141,74.2819402 93.4241133,74.721389 92.4394078,74.9492547 C91.9104338,75.0794637 91.3122953,75.1445672 90.6449742,75.1445672 C89.0173619,75.1445672 87.6379812,74.5525321 86.5067906,73.3684441 C85.3756001,72.1843562 84.8100133,70.526251 84.8100133,68.3940789 C84.8100133,66.294459 85.379669,64.5895607 86.5189977,63.2793328 C87.6583263,61.9691049 89.1475692,61.3140008 90.9867711,61.3140008 C91.9145101,61.3140008 92.8137524,61.5316907 93.684525,61.967077 Z M94.4901891,67.1001336 C94.4006704,66.1479804 94.1931529,65.3870831 93.8676305,64.8174188 C93.2654139,63.7594708 92.2603784,63.2305047 90.8524938,63.2305047 C89.8433741,63.2305047 88.9970284,63.5946775 88.3134313,64.323034 C87.6298341,65.0513905 87.2676958,65.9770811 87.2270055,67.1001336 L94.4901891,67.1001336 Z M99.5072789,61.6069695 L101.594681,61.6069695 L101.594681,63.8652703 C101.765581,63.425815 102.184684,62.8907455 102.852005,62.2600457 C103.519327,61.6293459 104.288362,61.3140008 105.159134,61.3140008 C105.199825,61.3140008 105.268997,61.3180698 105.366654,61.3262078 C105.464311,61.3343459 105.631138,61.3506218 105.867142,61.3750359 L105.867142,63.6943719 C105.736933,63.6699577 105.616899,63.6536818 105.507035,63.6455438 C105.397171,63.6374057 105.277136,63.6333367 105.146927,63.6333367 C104.040151,63.6333367 103.189736,63.9893716 102.595658,64.701452 C102.001579,65.4135323 101.704545,66.2334297 101.704545,67.1611688 L101.704545,74.6807 L99.5072789,74.6807 L99.5072789,61.6069695 Z M109.077591,70.5791375 C109.142696,71.311563 109.3258,71.8730809 109.626908,72.2637078 C110.180296,72.9717192 111.140573,73.3257195 112.507767,73.3257195 C113.321573,73.3257195 114.037712,73.1487193 114.656205,72.7947137 C115.274697,72.440708 115.583939,71.8934316 115.583939,71.152868 C115.583939,70.5913417 115.335732,70.1640999 114.83931,69.8711297 C114.521926,69.6920923 113.895304,69.4845749 112.959427,69.2485711 L111.213822,68.809118 C110.098907,68.5324239 109.276976,68.2231822 108.748002,67.8813836 C107.803986,67.2873051 107.331986,66.4653732 107.331986,65.4155633 C107.331986,64.1785779 107.777538,63.1776114 108.668656,62.4126336 C109.559774,61.6476558 110.758085,61.2651727 112.263627,61.2651727 C114.233037,61.2651727 115.653108,61.8429664 116.52388,62.9985711 C117.069131,63.7309966 117.333614,64.5203768 117.317338,65.3667352 L115.242142,65.3667352 C115.201452,64.8703134 115.026486,64.4186578 114.71724,64.0117547 C114.21268,63.4339523 113.337852,63.1450555 112.092728,63.1450555 C111.262646,63.1450555 110.63399,63.3037453 110.206742,63.6211297 C109.779494,63.9385141 109.565873,64.357618 109.565873,64.8784539 C109.565873,65.4481182 109.846632,65.9038428 110.408158,66.2456414 C110.73368,66.4490929 111.213819,66.6281276 111.848588,66.7827508 L113.301224,67.1367547 C114.880008,67.5192436 115.93794,67.8895198 116.475052,68.2475945 C117.329549,68.8091208 117.756791,69.6920872 117.756791,70.8965203 C117.756791,72.0602631 117.315307,73.0652986 116.432328,73.911657 C115.549348,74.7580154 114.204554,75.1811883 112.397904,75.1811883 C110.452907,75.1811883 109.075561,74.7397051 108.265824,73.8567254 C107.456087,72.9737457 107.022741,71.8812273 106.965775,70.5791375 L109.077591,70.5791375 Z M120.271439,61.6680047 L122.505326,61.6680047 L122.505326,74.6807 L120.271439,74.6807 L120.271439,61.6680047 Z M120.271439,56.7485711 L122.505326,56.7485711 L122.505326,59.2388055 L120.271439,59.2388055 L120.271439,56.7485711 Z M128.108353,71.8120477 C128.702432,72.7560628 129.654571,73.2280633 130.964798,73.2280633 C131.982056,73.2280633 132.818229,72.790649 133.473343,71.9158074 C134.128457,71.0409658 134.456009,69.7856886 134.456009,68.1499383 C134.456009,66.4979118 134.118285,65.2751864 133.442826,64.4817254 C132.767367,63.6882644 131.933228,63.2915398 130.940384,63.2915398 C129.833608,63.2915398 128.9364,63.7147127 128.248734,64.5610711 C127.561068,65.4074295 127.21724,66.6525342 127.21724,68.2964227 C127.21724,69.6961692 127.514275,70.8680325 128.108353,71.8120477 Z M133.039994,62.0098016 C133.430621,62.2539434 133.874138,62.6811852 134.37056,63.2915398 L134.37056,56.6875359 L136.482377,56.6875359 L136.482377,74.6807 L134.504838,74.6807 L134.504838,72.8618523 C133.99214,73.6675204 133.385863,74.2493831 132.68599,74.6074578 C131.986117,74.9655325 131.18453,75.1445672 130.281205,75.1445672 C128.824492,75.1445672 127.563111,74.5321872 126.497025,73.307409 C125.430939,72.0826307 124.897904,70.4530083 124.897904,68.418493 C124.897904,66.5141866 125.384146,64.8642193 126.356644,63.4685418 C127.329142,62.0728642 128.718696,61.3750359 130.525345,61.3750359 C131.526327,61.3750359 132.364535,61.5866224 133.039994,62.0098016 Z M142.109818,72.7031609 C142.573687,73.0693737 143.122998,73.2524773 143.757767,73.2524773 C144.530883,73.2524773 145.279573,73.0734427 146.003861,72.715368 C147.22457,72.1212895 147.834916,71.1488057 147.834916,69.7978875 L147.834916,68.027868 C147.56636,68.1987673 147.220497,68.3411812 146.797318,68.4551141 C146.374139,68.5690469 145.959104,68.6504263 145.552201,68.6992547 L144.221634,68.8701531 C143.424104,68.9759479 142.825966,69.1427757 142.427201,69.3706414 C141.751742,69.7531303 141.414017,70.3634758 141.414017,71.2016961 C141.414017,71.8364649 141.645948,72.3369482 142.109818,72.7031609 Z M146.736283,66.7583367 C147.240843,66.6932322 147.578567,66.4816458 147.749466,66.1235711 C147.847123,65.9282576 147.895951,65.6474987 147.895951,65.2812859 C147.895951,64.5325843 147.629433,63.9893768 147.09639,63.6516473 C146.563347,63.3139177 145.800415,63.1450555 144.807572,63.1450555 C143.660105,63.1450555 142.846311,63.4542972 142.366166,64.0727898 C142.09761,64.4145884 141.922644,64.9232096 141.841263,65.5986688 L139.790482,65.5986688 C139.831172,63.9873326 140.354035,62.8663314 141.359086,62.2356316 C142.364136,61.6049319 143.529896,61.2895867 144.8564,61.2895867 C146.394494,61.2895867 147.643667,61.5825525 148.603959,62.168493 C149.556112,62.7544334 150.032181,63.6658826 150.032181,64.902868 L150.032181,72.4346063 C150.032181,72.662472 150.078974,72.8455756 150.172562,72.9839227 C150.26615,73.1222697 150.463495,73.1914422 150.764603,73.1914422 C150.86226,73.1914422 150.972122,73.1853387 151.094193,73.1731316 C151.216264,73.1609245 151.346471,73.1426142 151.484818,73.1182 L151.484818,74.7417352 C151.143019,74.8393919 150.882605,74.9004264 150.703568,74.9248406 C150.524531,74.9492548 150.280392,74.9614617 149.971146,74.9614617 C149.214306,74.9614617 148.664995,74.6929097 148.323197,74.1557977 C148.14416,73.8709655 148.018021,73.4681375 147.944779,72.9473016 C147.497186,73.533242 146.854288,74.0418632 146.016068,74.4731805 C145.177848,74.9044977 144.254192,75.1201531 143.245072,75.1201531 C142.032501,75.1201531 141.041707,74.7519114 140.27266,74.0154168 C139.503613,73.2789222 139.119095,72.3573006 139.119095,71.2505242 C139.119095,70.0379531 139.497509,69.098021 140.254349,68.4307 C141.011189,67.763379 142.004018,67.352413 143.232865,67.1977898 L146.736283,66.7583367 Z M155.91597,71.8120477 C156.510049,72.7560628 157.462188,73.2280633 158.772416,73.2280633 C159.789673,73.2280633 160.625847,72.790649 161.280961,71.9158074 C161.936074,71.0409658 162.263627,69.7856886 162.263627,68.1499383 C162.263627,66.4979118 161.925902,65.2751864 161.250443,64.4817254 C160.574984,63.6882644 159.740845,63.2915398 158.748002,63.2915398 C157.641225,63.2915398 156.744017,63.7147127 156.056351,64.5610711 C155.368685,65.4074295 155.024857,66.6525342 155.024857,68.2964227 C155.024857,69.6961692 155.321892,70.8680325 155.91597,71.8120477 Z M160.847611,62.0098016 C161.238238,62.2539434 161.681756,62.6811852 162.178177,63.2915398 L162.178177,56.6875359 L164.289994,56.6875359 L164.289994,74.6807 L162.312455,74.6807 L162.312455,72.8618523 C161.799757,73.6675204 161.19348,74.2493831 160.493607,74.6074578 C159.793734,74.9655325 158.992147,75.1445672 158.088822,75.1445672 C156.632109,75.1445672 155.370728,74.5321872 154.304642,73.307409 C153.238556,72.0826307 152.705521,70.4530083 152.705521,68.418493 C152.705521,66.5141866 153.191763,64.8642193 154.164261,63.4685418 C155.13676,62.0728642 156.526313,61.3750359 158.332963,61.3750359 C159.333944,61.3750359 160.172152,61.5866224 160.847611,62.0098016 Z M175.679154,61.967077 C176.549926,62.4024632 177.213169,62.9660156 177.6689,63.6577508 C178.108355,64.3169338 178.401321,65.085969 178.547806,65.9648797 C178.678015,66.5670962 178.743119,67.5273731 178.743119,68.8457391 L169.160599,68.8457391 C169.20129,70.1722431 169.5146,71.2362787 170.100541,72.0378777 C170.686481,72.8394768 171.593861,73.2402703 172.822709,73.2402703 C173.970175,73.2402703 174.885693,72.8618561 175.569291,72.1050164 C175.959918,71.6655611 176.236608,71.1569399 176.399369,70.5791375 L178.560013,70.5791375 C178.503047,71.0592831 178.31384,71.5943526 177.992386,72.1843621 C177.670933,72.7743716 177.310829,73.2565445 176.912064,73.6308953 C176.244743,74.2819402 175.418742,74.721389 174.434037,74.9492547 C173.905063,75.0794637 173.306924,75.1445672 172.639603,75.1445672 C171.011991,75.1445672 169.63261,74.5525321 168.50142,73.3684441 C167.370229,72.1843562 166.804642,70.526251 166.804642,68.3940789 C166.804642,66.294459 167.374298,64.5895607 168.513627,63.2793328 C169.652955,61.9691049 171.142198,61.3140008 172.9814,61.3140008 C173.909139,61.3140008 174.808381,61.5316907 175.679154,61.967077 Z M176.484818,67.1001336 C176.395299,66.1479804 176.187782,65.3870831 175.862259,64.8174188 C175.260043,63.7594708 174.255007,63.2305047 172.847123,63.2305047 C171.838003,63.2305047 170.991657,63.5946775 170.30806,64.323034 C169.624463,65.0513905 169.262325,65.9770811 169.221634,67.1001336 L176.484818,67.1001336 Z M182.747025,70.5791375 C182.812129,71.311563 182.995233,71.8730809 183.296341,72.2637078 C183.84973,72.9717192 184.810006,73.3257195 186.177201,73.3257195 C186.991007,73.3257195 187.707146,73.1487193 188.325638,72.7947137 C188.944131,72.440708 189.253373,71.8934316 189.253373,71.152868 C189.253373,70.5913417 189.005166,70.1640999 188.508744,69.8711297 C188.191359,69.6920923 187.564738,69.4845749 186.628861,69.2485711 L184.883255,68.809118 C183.768341,68.5324239 182.946409,68.2231822 182.417435,67.8813836 C181.47342,67.2873051 181.00142,66.4653732 181.00142,65.4155633 C181.00142,64.1785779 181.446972,63.1776114 182.338089,62.4126336 C183.229207,61.6476558 184.427519,61.2651727 185.93306,61.2651727 C187.902471,61.2651727 189.322541,61.8429664 190.193314,62.9985711 C190.738564,63.7309966 191.003047,64.5203768 190.986771,65.3667352 L188.911576,65.3667352 C188.870885,64.8703134 188.69592,64.4186578 188.386673,64.0117547 C187.882114,63.4339523 187.007285,63.1450555 185.762162,63.1450555 C184.932079,63.1450555 184.303424,63.3037453 183.876175,63.6211297 C183.448927,63.9385141 183.235306,64.357618 183.235306,64.8784539 C183.235306,65.4481182 183.516065,65.9038428 184.077591,66.2456414 C184.403114,66.4490929 184.883252,66.6281276 185.518021,66.7827508 L186.970658,67.1367547 C188.549442,67.5192436 189.607374,67.8895198 190.144486,68.2475945 C190.998982,68.8091208 191.426224,69.6920872 191.426224,70.8965203 C191.426224,72.0602631 190.984741,73.0652986 190.101761,73.911657 C189.218782,74.7580154 187.873987,75.1811883 186.067338,75.1811883 C184.122341,75.1811883 182.744995,74.7397051 181.935257,73.8567254 C181.12552,72.9737457 180.692175,71.8812273 180.635209,70.5791375 L182.747025,70.5791375 Z" id="Universidades" fill="#004A97"></path>
                <path d="M353.6,129.7 C353.6,133 350.9,135.7 347.6,135.7 L6.9,135.7 C3.6,135.7 0.9,133 0.9,129.7 L0.9,6.4 C0.9,3.1 3.6,0.4 6.9,0.4 L347.6,0.4 C350.9,0.4 353.6,3.1 353.6,6.4 L353.6,129.7 Z" id="Shape" stroke="#005283" stroke-width="2"></path>
                <path d="M268.3,20.1 L268.9,20.1 C268.9,20.7 271.5,21.1 272.4,20.1 C273.6,18.8 275.8,20.1 275.8,20.1 L275.8,24 C275.8,24 274,22.6 272.4,24 C271.1,25.2 269.6,24.6 269,24.2 C269,24.8 269,26.3 269,27.4 L268.4,27.4 C268.3,25.2 268.3,22.7 268.3,20.1 L268.3,20.1 Z M300.8,53.5 L318.1,53.6 C318.2,53.6 318.3,53.7 318.3,53.8 L318.3,88.3 C303.3,88.3 288.2,88.4 273.2,88.4 L273.2,76.8 L264.1,76.8 L264.1,88.2 L238.6,88.2 L238.6,88.2 L236.5,88.2 L236.5,88.2 L219,88.2 L219,53.8 C219,53.6 219.1,53.5 219.3,53.5 L235.4,53.5 L236.4,53.5 L236.4,53.5 L236.5,53.5 C236.5,51.6 236.5,49.8 236.5,47.9 C236.5,46.2 237.9,44.8 239.6,44.8 L254.3,44.8 L254.3,35.8 C254.3,35 254.8,34.2 255.5,33.8 C262.9,29.7 265.7,27.5 268.1,27.2 C268.4,27.1 268.7,27.1 269,27.1 C271.4,27.4 274.1,29.6 281.7,33.8 C282.4,34.3 282.9,35 282.9,35.8 L282.9,44.8 L297.6,44.8 C299.4,44.8 300.8,46.2 300.8,47.9 L300.8,53.5 Z M221.1,61.1 L225.8,61.1 L225.8,64.8 L221.1,64.8 L221.1,61.1 Z M229.3,61.1 L234,61.1 L234,64.8 L229.3,64.8 L229.3,61.1 Z M221.3,69 L226,69 L226,72.7 L221.3,72.7 L221.3,69 Z M229.6,69 L234.2,69 L234.2,72.7 L229.6,72.7 L229.6,69 Z M221.5,76.9 L226.1,76.9 L226.1,80.7 L221.5,80.7 L221.5,76.9 Z M229.8,76.9 L234.4,76.9 L234.4,80.7 L229.8,80.7 L229.8,76.9 Z M302.9,61.1 L307.6,61.1 L307.6,64.8 L302.9,64.8 L302.9,61.1 Z M311.1,61.1 L315.8,61.1 L315.8,64.8 L311.1,64.8 L311.1,61.1 Z M303.1,69 L307.7,69 L307.7,72.7 L303.1,72.7 L303.1,69 Z M311.4,69 L316,69 L316,72.7 L311.4,72.7 L311.4,69 Z M303.3,76.9 L308,76.9 L308,80.7 L303.3,80.7 L303.3,76.9 Z M311.6,76.9 L316.3,76.9 L316.3,80.7 L311.6,80.7 L311.6,76.9 Z M279.9,89.8 C279.9,90 279.8,90.1 279.6,90.1 L257.5,90.1 C257.3,90.1 257.2,90 257.2,89.8 L257.2,89.2 C257.2,89 257.3,88.9 257.5,88.9 L279.6,88.9 C279.8,88.9 279.9,89 279.9,89.2 L279.9,89.8 Z M281.6,91.7 C281.6,91.8 281.5,92 281.3,92 L255.8,92 C255.7,92 255.5,91.8 255.5,91.7 L255.5,91 C255.5,90.8 255.7,90.7 255.8,90.7 L281.3,90.7 C281.5,90.7 281.6,90.8 281.6,91 L281.6,91.7 Z M268.7,34.2 L268.7,34.2 C265.6,34.2 263.2,36.7 263.2,39.8 C263.2,42.9 265.6,45.3 268.7,45.3 C271.8,45.3 274.3,42.9 274.3,39.8 C274.2,36.7 271.7,34.2 268.7,34.2 L268.7,34.2 Z M268.7,44.1 L268.7,44.1 C266.3,44.1 264.3,42.2 264.3,39.7 C264.3,37.2 266.2,35.3 268.7,35.3 C271.2,35.3 273.1,37.2 273.1,39.7 C273.1,42.2 271.2,44.1 268.7,44.1 L268.7,44.1 Z M266,36.7 L266,36.7 L266.8,37.5 L266.4,37.9 L265.6,37.1 L266,36.7 Z M268.4,35.7 L268.4,35.7 L269,35.7 L269,36.9 L268.4,36.9 L268.4,35.7 Z M269,43.8 L269,43.8 L268.4,43.8 L268.4,42.6 L269,42.6 L269,43.8 Z M266,42.8 L266,42.8 L265.6,42.4 L266.4,41.6 L266.8,42 L266,42.8 Z M270.6,38.4 L270.6,38.4 C270.6,38.3 270.5,38.3 270.4,38.3 L268.9,39.4 C268.8,39.4 268.8,39.4 268.7,39.4 L268.6,39.4 L267.6,38.5 C267.5,38.4 267.4,38.4 267.3,38.5 L267.3,38.6 C267.2,38.7 267.2,38.8 267.3,38.8 L268.3,39.7 L268.3,39.7 C268.3,39.9 268.5,40.1 268.7,40.1 L268.7,42 L268.8,42 L268.8,40 C268.9,40 269.1,39.8 269.1,39.6 L269.1,39.6 L270.6,38.5 C270.7,38.6 270.7,38.5 270.6,38.4 L270.6,38.4 Z M265.8,39.5 L265.8,40 L264.6,40 L264.6,39.5 L265.8,39.5 Z M272.8,39.5 L272.8,39.5 L272.8,40 L271.7,40 L271.7,39.5 L272.8,39.5 Z M270.9,41.6 L270.9,41.6 L271.7,42.4 L271.3,42.8 L270.5,42 L270.9,41.6 Z M271.4,36.7 L271.4,36.7 L271.8,37.1 L271,37.9 L270.6,37.5 L271.4,36.7 Z M287.9,56.4 L295.2,56.4 L295.2,62.2 L287.9,62.2 L287.9,56.4 Z M277.9,64.9 L285.3,64.9 L285.3,70.7 L277.9,70.7 L277.9,64.9 Z M287.9,64.9 L295.2,64.9 L295.2,70.7 L287.9,70.7 L287.9,64.9 Z M277.9,56.4 L285.3,56.4 L285.3,62.2 L277.9,62.2 L277.9,56.4 Z M277.9,73.4 L285.3,73.4 L285.3,79.2 L277.9,79.2 L277.9,73.4 Z M287.9,73.4 L295.2,73.4 L295.2,79.2 L287.9,79.2 L287.9,73.4 Z M252,56.4 L259.4,56.4 L259.4,62.2 L252,62.2 L252,56.4 Z M242.2,64.9 L249.5,64.9 L249.5,70.7 L242.2,70.7 L242.2,64.9 Z M252,64.9 L259.4,64.9 L259.4,70.7 L252,70.7 L252,64.9 Z M242.2,56.4 L249.5,56.4 L249.5,62.2 L242.2,62.2 L242.2,56.4 Z M242.2,73.4 L249.5,73.4 L249.5,79.2 L242.2,79.2 L242.2,73.4 Z M252,73.4 L259.4,73.4 L259.4,79.2 L252,79.2 L252,73.4 Z" id="Shape" fill="#004A97"></path>
            </g>
        </g>
    </g>
</svg>