<?xml version="1.0" encoding="utf-8"?>
<!-- Generator: Adobe Illustrator 18.1.1, SVG Export Plug-In . SVG Version: 6.00 Build 0)  -->
<svg version="1.1" id="Layer_1" xmlns="http://www.w3.org/2000/svg" xmlns:xlink="http://www.w3.org/1999/xlink" x="0px" y="0px"
	 viewBox="0 0 356 139.5" enable-background="new 0 0 356 139.5" xml:space="preserve">
<g>
	<rect x="41.7" y="57.5" fill="none" width="215.8" height="34.5"/>
	<text transform="matrix(1 0 0 1 41.6904 76.4017)" fill="#004A97" font-family="'Avenir-Medium'" font-size="25">IP + CFT</text>
	<path fill="none" stroke="#005283" stroke-width="2" stroke-miterlimit="10" d="M354.3,131.4c0,3.3-2.7,6-6,6H7.7c-3.3,0-6-2.7-6-6
		V8.1c0-3.3,2.7-6,6-6h340.7c3.3,0,6,2.7,6,6V131.4z"/>
	<path fill-rule="evenodd" clip-rule="evenodd" fill="#004A97" d="M236.6,40.3l-1.9,0.3l-5.8-4.1h1.3l0.6-0.1l38.4-4.1l-1.4-2
		l-42.6,4.4v0.7v1.6v54.5l7.7,5.4l0,0l5.3-0.4V43l2.3-0.1l32.9-3.3v-3L236.6,40.3z M284.1,43.9v-0.4L247,47.6l0.6,0.3L284.1,43.9z
		 M300.7,54.7l-37.1,4.1l0,0H263l0.6,0.4l36.1-4l0,0l1-0.1V54.7z M301.9,58L301.9,58l1-0.1v-0.3l-35.7,3.9l0,0h-0.6l0.6,0.4
		L301.9,58z M264.9,59.7l-0.6,0.1l0.6,0.3h0.6l0,0L293,57l7.6-0.9h1v-0.4L264.9,59.7L264.9,59.7z M277.3,59.3l-11.7,1.3l0.6,0.4h0.4
		l0,0l32.1-3.6l2.4-0.3l1.1-0.1l-0.1-0.4L277.3,59.3z M285,44.9l-0.1-0.4l-36.4,4l0.4,0.4L285,44.9z M285.5,45.9v-0.4l-35.9,3.8
		l0.6,0.4L285.5,45.9z M286.4,46.7l-0.1-0.4l-35.4,3.9l0.4,0.3L286.4,46.7z M269.1,34.2l-0.1-0.3l-36.1,4l0.6,0.3L269.1,34.2z
		 M268.3,33.3l-0.1-0.4l-36.5,4l0.6,0.4L268.3,33.3z M269.7,34.7l-35.5,3.8l0.4,0.4l35.1-3.9V34.7z M270.4,36v-0.4l-35.1,3.9
		l0.6,0.4L270.4,36z M267.1,62.4l-0.7-0.6l-0.6-0.3l-0.6-0.4l-0.6-0.4l-0.7-0.4l-0.4-0.4l-0.9-0.6l-0.6-0.3l-0.9-0.6l1.3-0.1
		l39.4-4.3l-1.7-2l-42.8,4.6v0.6v1.7v54.3l7.8,5.4v0.1l40.4-4.1V58.6L267.1,62.4z M272.8,87.2l-0.3-16.4l25-2.1L272.8,87.2z
		 M253,22.6v-0.3l-36.1,4l0.4,0.3L253,22.6z M252.2,21.8v-0.4l-36.5,4l0.4,0.4L252.2,21.8z M253.7,23.2l-35.7,4l0.6,0.3l35.1-3.8
		V23.2z M254.4,24.5V24l-35.1,3.8l0.4,0.4L254.4,24.5z M220.9,28.7l-2,0.1l-5.8-4l1.3-0.1h0.6l38.5-4.3l-1.4-2L209.2,23v0.6v1.7
		v54.3l7.8,5.6l0,0l5.3-0.6V31.5l2.1-0.3l32.9-3.1v-3L220.9,28.7z M252.2,51l-1.6,0.1l-5.8-4L246,47h0.1l38.9-4.3l-1.4-2L243.3,45
		l-2.4,0.3v0.6v1.7v54.3l7.7,5.6l0,0l5.3-0.6V53.7l2-0.1l33.2-3.3v-3L252.2,51z"/>
</g>
</svg>
