<?xml version="1.0" encoding="utf-8"?>
<!-- Generator: Adobe Illustrator 18.1.1, SVG Export Plug-In . SVG Version: 6.00 Build 0)  -->
<svg version="1.1" id="Layer_1" xmlns="http://www.w3.org/2000/svg" xmlns:xlink="http://www.w3.org/1999/xlink" x="0px" y="0px"
	 viewBox="0 0 222.4 67.1" enable-background="new 0 0 222.4 67.1" xml:space="preserve">
<g>
	<g>
		<rect x="1.5" y="1.7" fill="#004A97" width="219.2" height="63.8"/>
		<path fill="#FFFFFF" d="M0,0v67.1h222.4V0H0z M219.6,2.7v61.7H2.7V2.7H219.6z"/>
		<polygon fill="#FFFFFF" points="24,42.2 24,21.9 24,21.4 23.6,21.4 21.5,21.4 21,21.4 21,21.9 21,44.8 21,45.2 21.5,45.2 
			31.1,45.2 31.5,45.2 31.5,44.8 31.5,42.6 31.5,42.2 31.1,42.2 		"/>
		<path fill="#FFFFFF" d="M50.3,27.1l-0.4,0l-2,0h-0.4l0,0.4V29c-0.6-0.6-1.2-1.1-2-1.5c-1.1-0.6-2.3-0.9-3.6-0.9h0
			c-2.5,0-4.7,0.9-6.4,2.7c-1.7,1.8-2.5,4.1-2.5,6.8c0,2.6,0.8,4.9,2.5,6.7c1.7,1.8,3.8,2.7,6.2,2.7c1.3,0,2.6-0.3,3.8-0.9
			c0.8-0.4,1.4-0.9,2-1.5l0,1.5v0.4h0.4l2,0h0.4v-0.4l0-17.3V27.1z M41.8,29.6c1.5,0,2.8,0.6,3.9,1.9c1.2,1.3,1.7,2.8,1.7,4.5
			c0,1.9-0.6,3.5-1.7,4.8c-1.2,1.3-2.5,2-4,2c-1.6,0-2.9-0.6-4.1-1.9c-1.1-1.2-1.7-2.8-1.7-4.6c0-1.9,0.6-3.5,1.7-4.8
			C38.8,30.2,40.2,29.6,41.8,29.6z"/>
		<path fill="#FFFFFF" d="M71,21.7l-0.1-0.3l-0.3,0l-2.5,0l-0.3,0l-0.1,0.3l-8.3,22.9l-0.2,0.6l0.6,0l2.2,0h0.3l0.1-0.3l2.5-6.9h8.9
			l2.5,6.9l0.1,0.3h0.3l2.2,0h0.6l-0.2-0.6L71,21.7z M72.7,35.1l-6.9,0l3.4-9.8L72.7,35.1z"/>
		<path fill="#FFFFFF" d="M88.6,27.2l0-0.4l-0.4,0c-0.9,0-1.6,0.2-2.3,0.6c-0.4,0.2-0.7,0.5-1,0.8v-0.8v-0.4l-0.4,0h-2H82v0.4
			l0,17.3v0.4h0.4h2.1H85v-0.4l0-10.5c0-1.5,0.3-2.6,0.8-3.2c0.5-0.6,1.3-1,2.5-1.1l0.4,0l0-0.4L88.6,27.2z"/>
		<path fill="#FFFFFF" d="M107.5,27.1h-0.4h-2h-0.4v0.4V29c-0.6-0.6-1.2-1.1-2-1.5c-1.1-0.6-2.3-0.9-3.6-0.9c-2.5,0-4.7,0.9-6.4,2.7
			c-1.7,1.8-2.5,4.1-2.5,6.8c0,2.6,0.8,4.9,2.5,6.7c1.6,1.8,3.7,2.7,6.2,2.7c1.3,0,2.6-0.3,3.8-0.9c0.8-0.4,1.5-0.9,2-1.5v1.5v0.4
			h0.4h2h0.4v-0.4l0-17.3V27.1z M99,43v-0.2c-1.6,0-2.9-0.6-4.1-1.9c-1.2-1.3-1.7-2.8-1.7-4.6c0-1.9,0.6-3.5,1.7-4.8
			c1.1-1.3,2.5-1.9,4.1-1.9c1.5,0,2.8,0.6,3.9,1.9c1.2,1.3,1.7,2.8,1.7,4.5c0,1.9-0.6,3.5-1.7,4.8c-1.1,1.3-2.4,2-4,2L99,43L99,43z"
			/>
		<path fill="#FFFFFF" d="M125.8,27.1h-0.4l-2.1,0h-0.4v0.4l0,8.5c0,1.5,0,2.5-0.2,3.1c-0.1,0.6-0.3,1.1-0.5,1.5
			c-0.4,0.7-0.9,1.2-1.5,1.6c-0.6,0.4-1.4,0.5-2.2,0.5c-1.5,0-2.6-0.4-3.2-1.3c-0.7-0.9-1-2.5-1-4.8v-9.2v-0.4h-0.4h-2h-0.4v0.4l0,9
			c0,3.2,0.5,5.5,1.6,7c1.1,1.5,2.9,2.2,5.4,2.2c1.2,0,2.2-0.2,3-0.6c0.5-0.3,1-0.6,1.5-1.1v0.8v0.4h0.4l2.1,0h0.4v-0.4l0-17.3V27.1
			z"/>
		<path fill="#FFFFFF" d="M137.3,29.5c1.2,0,2.2,0.3,3,0.8c0.8,0.6,1.6,1.4,2.2,2.6l0.1,0.2h0.3h2.3h0.6l-0.2-0.6
			c-0.7-1.9-1.7-3.4-3.1-4.5c-1.4-1.1-3-1.6-4.9-1.6c-2.5,0-4.6,0.9-6.3,2.8c-1.7,1.9-2.6,4.1-2.6,6.8c0,2.6,0.8,4.9,2.5,6.7
			c1.7,1.9,3.8,2.8,6.2,2.8c1.9,0,3.6-0.5,5-1.6c1.4-1.1,2.4-2.6,3.1-4.6l0.2-0.6h-0.6l-2.3,0h-0.3l-0.1,0.3c-0.5,1.1-1.2,2-2,2.6
			c-0.9,0.6-1.9,0.9-3.1,0.9c-1.6,0-2.9-0.6-4-1.9c-1.1-1.3-1.6-2.8-1.6-4.7c0-1.9,0.5-3.5,1.6-4.8
			C134.5,30.1,135.8,29.5,137.3,29.5z"/>
		<path fill="#FFFFFF" d="M165.8,27.1h-0.4h-2h-0.4v0.4l0,1.6c-0.6-0.6-1.2-1.1-2-1.5c-1.1-0.6-2.3-0.9-3.6-0.9h0
			c-2.5,0-4.7,0.9-6.4,2.8c-1.7,1.8-2.5,4.1-2.5,6.8c0,2.6,0.8,4.9,2.5,6.7c1.6,1.8,3.7,2.7,6.2,2.7c1.3,0,2.6-0.3,3.8-0.9
			c0.8-0.4,1.4-0.9,2-1.5v1.5v0.4h0.4h2h0.4v-0.4l0-17.3V27.1z M157.3,29.6c1.5,0,2.8,0.6,3.9,1.9c1.2,1.3,1.7,2.8,1.7,4.5
			c0,1.9-0.6,3.5-1.7,4.8c-1.2,1.3-2.5,2-4,2h0c-1.6,0-2.9-0.6-4.1-1.9c-1.1-1.2-1.7-2.8-1.7-4.6c0-1.9,0.6-3.5,1.7-4.8
			C154.3,30.2,155.6,29.6,157.3,29.6z"/>
		<path fill="#FFFFFF" d="M182.9,29.7c-0.6-0.9-1.4-1.7-2.4-2.2c-1-0.5-2.1-0.8-3.4-0.8c-1.1,0-2.2,0.2-3,0.6
			c-0.6,0.3-1.1,0.6-1.6,1.1l0-0.9v-0.4H172l-2,0h-0.4v0.4l0,17.3v0.4h0.4l2,0h0.4v-0.4l0-8.4c0-1.5,0-2.5,0.1-3.1
			c0.1-0.6,0.3-1.1,0.5-1.5c0.4-0.7,0.9-1.2,1.5-1.6c0.7-0.4,1.4-0.6,2.3-0.6c1.5,0,2.5,0.4,3.2,1.2c0.7,0.8,1,2.3,1,4.2l0,9.7v0.4
			h0.4h2h0.4v-0.4l0-9.1c0-1.6-0.1-2.9-0.2-3.8C183.6,31.1,183.3,30.3,182.9,29.7z"/>
		<path fill="#FFFFFF" d="M204.3,27.5v-0.4l-0.4,0l-2,0h-0.4v0.4V29c-0.6-0.6-1.2-1.1-2-1.5c-1.1-0.6-2.3-0.9-3.6-0.9
			c-2.5,0-4.7,0.9-6.4,2.8c-1.7,1.8-2.5,4.1-2.5,6.8c0,2.6,0.8,4.9,2.5,6.7c1.7,1.8,3.8,2.7,6.2,2.7c1.3,0,2.6-0.3,3.8-0.9
			c0.8-0.4,1.4-0.9,2-1.5l0,1.5v0.4h0.4h2h0.4v-0.4L204.3,27.5z M195.8,29.6c1.5,0,2.8,0.6,3.9,1.9c1.2,1.3,1.7,2.8,1.7,4.5
			c0,1.9-0.6,3.5-1.7,4.8c-1.1,1.3-2.5,2-4,2c-1.6,0-2.9-0.6-4.1-1.9c-1.1-1.2-1.7-2.8-1.7-4.6c0-1.9,0.6-3.5,1.7-4.8
			C192.8,30.2,194.2,29.6,195.8,29.6z"/>
	</g>
</g>
</svg>
