<?xml version="1.0" encoding="UTF-8"?>
<svg width="25px" height="25px" viewBox="0 0 25 25" version="1.1" xmlns="http://www.w3.org/2000/svg" xmlns:xlink="http://www.w3.org/1999/xlink">
    <!-- Generator: Sketch 47.1 (45422) - http://www.bohemiancoding.com/sketch -->
    <title>phone</title>
    <desc>Created with Sketch.</desc>
    <defs></defs>
    <g id="Page-1" stroke="none" stroke-width="1" fill="none" fill-rule="evenodd">
        <g id="Artboard-2" transform="translate(-236.000000, -174.000000)" fill-rule="nonzero" fill="#FFFFFF">
            <g id="phone" transform="translate(236.000000, 174.000000)">
                <path d="M12.8,24.9 C9.6,24.9 6.6,23.7 4.3,21.4 C2,19.1 0.8,16.1 0.8,12.9 C0.8,9.7 2,6.7 4.3,4.4 C6.6,2.1 9.6,0.9 12.8,0.9 C16,0.9 19,2.1 21.3,4.4 C23.6,6.7 24.8,9.7 24.8,12.9 C24.8,16.1 23.6,19.1 21.3,21.4 C19,23.7 16,24.9 12.8,24.9 Z M12.8,1.7 C9.8,1.7 7,2.9 4.8,5 C2.7,7.1 1.5,10 1.5,13 C1.5,16 2.7,18.8 4.8,21 C6.9,23.1 9.8,24.3 12.8,24.3 C15.8,24.3 18.6,23.1 20.8,21 C22.9,18.9 24.1,16 24.1,13 C24.1,10 22.9,7.2 20.8,5 C18.6,2.9 15.8,1.7 12.8,1.7 Z" id="Shape"></path>
                <path d="M8.4,6.4 C8.3,6.4 8.2,6.4 8.1,6.4 C7.1,6.8 6.5,8.2 6.3,9.2 C5.8,12.4 8.3,15.1 10.6,16.9 C12.6,18.5 16.6,21.1 18.9,18.6 C19.2,18.3 19.5,17.8 19.5,17.4 C19.4,16.6 18.7,16.1 18.2,15.6 C17.8,15.3 16.9,14.4 16.3,14.4 C15.8,14.4 15.5,14.9 15.2,15.2 L14.6,15.8 C14.5,15.9 13.3,15.1 13.2,15 C12.7,14.7 12.3,14.3 11.9,14 C11.5,13.6 11.1,13.2 10.8,12.7 C10.7,12.6 10,11.5 10,11.4 C10,11.4 10.6,10.7 10.8,10.4 C11.2,9.8 11.5,9.4 11,8.7 C10.8,8.4 10.6,8.2 10.4,8 C10,7.6 9.6,7.2 9.2,6.9 C9.2,6.8 8.8,6.4 8.4,6.4 Z" id="Shape"></path>
            </g>
        </g>
    </g>
</svg>