<?xml version="1.0" encoding="utf-8"?>
<!-- Generator: Adobe Illustrator 18.1.1, SVG Export Plug-In . SVG Version: 6.00 Build 0)  -->
<svg version="1.1" id="Capa_1" xmlns="http://www.w3.org/2000/svg" xmlns:xlink="http://www.w3.org/1999/xlink" x="0px" y="0px"
	 viewBox="0 0 150 55" enable-background="new 0 0 150 55" xml:space="preserve">
<g>
	<g>
		<path fill="#2C4D80" d="M146.4,27.5c0,13.9-11.3,25.2-25.2,25.2C107.3,52.7,96,41.4,96,27.5c0-13.9,11.3-25.2,25.2-25.2
			C135.1,2.3,146.4,13.6,146.4,27.5"/>
	</g>
	<g>
		<path fill="#2C4D80" d="M3.6,11.8h7L20,37.7l9.6-25.9h6.6L22.3,46.1h-5.3L3.6,11.8z"/>
		<path fill="#2C4D80" d="M37,11.8h22.7v5.5H43.1v8.4h15.7v5.5H43.1v9.3h17.5v5.5H37V11.8z"/>
		<path fill="#2C4D80" d="M63.7,11.8h11.9c1.6,0,3.2,0.2,4.8,0.5c1.5,0.3,2.9,0.8,4.1,1.6c1.2,0.7,2.1,1.7,2.9,3
			c0.7,1.3,1.1,2.9,1.1,4.8c0,2.5-0.7,4.6-2.1,6.3C85,29.6,83,30.6,80.5,31l9.1,15.2h-7.4l-7.9-14.5h-4.5v14.5h-6.1V11.8z
			 M74.5,26.4c0.9,0,1.7,0,2.6-0.1c0.9-0.1,1.7-0.3,2.4-0.6c0.7-0.3,1.3-0.8,1.8-1.4c0.5-0.6,0.7-1.5,0.7-2.6c0-1-0.2-1.8-0.6-2.4
			c-0.4-0.6-1-1.1-1.6-1.4c-0.7-0.3-1.4-0.5-2.2-0.6c-0.8-0.1-1.6-0.1-2.4-0.1h-5.3v9.3H74.5z"/>
	</g>
	<polygon fill="#FFFFFF" points="118.8,25 118.8,14.4 123.7,14.4 123.7,25 134.3,25 134.3,30 123.7,30 123.7,40.6 118.8,40.6 
		118.8,30 108.1,30 108.1,25 	"/>
</g>
</svg>
